M48
;DRILL file {KiCad 5.0.0-fee4fd1~66~ubuntu16.04.1} date Tue Sep 18 23:27:14 2018
;FORMAT={-:-/ absolute / metric / decimal}
FMAT,2
METRIC,TZ
T1C0.600
T2C0.800
T3C1.000
T4C1.020
%
G90
G05
M71
T1
X156.21Y-99.822
X160.5Y-80.
X161.Y-82.5
X161.Y-93.
X165.354Y-91.186
X167.64Y-75.692
X167.64Y-77.216
X173.228Y-93.726
X173.736Y-71.374
X173.736Y-71.374
X179.25Y-92.15
T2
X151.13Y-99.06
X153.13Y-99.06
T3
X147.32Y-72.136
X149.86Y-72.136
X152.4Y-72.136
X154.94Y-72.136
X157.48Y-72.136
T4
X160.246Y-100.844
X172.946Y-100.844
T0
M30
