M48
;DRILL file {KiCad 5.0.0-fee4fd1~66~ubuntu16.04.1} date Tue Sep 18 00:24:07 2018
;FORMAT={-:-/ absolute / metric / decimal}
FMAT,2
METRIC,TZ
T1C0.600
T2C0.800
T3C1.000
T4C1.020
%
G90
G05
M71
T1
X160.05Y-72.95
X160.5Y-80.
X161.Y-82.5
X161.Y-93.
X162.5Y-82.5
X162.5Y-93.
X166.4Y-95.65
X167.673Y-75.611
X169.Y-72.
X175.1Y-74.1
X179.25Y-92.15
T2
X153.8Y-99.15
X155.8Y-99.15
T3
X147.32Y-72.136
X149.86Y-72.136
X152.4Y-72.136
X154.94Y-72.136
X157.48Y-72.136
T4
X160.246Y-100.844
X172.946Y-100.844
T0
M30
