G04 #@! TF.GenerationSoftware,KiCad,Pcbnew,5.0.0-fee4fd1~66~ubuntu16.04.1*
G04 #@! TF.CreationDate,2018-09-18T23:27:24+02:00*
G04 #@! TF.ProjectId,iotbin,696F7462696E2E6B696361645F706362,rev?*
G04 #@! TF.SameCoordinates,Original*
G04 #@! TF.FileFunction,Paste,Top*
G04 #@! TF.FilePolarity,Positive*
%FSLAX46Y46*%
G04 Gerber Fmt 4.6, Leading zero omitted, Abs format (unit mm)*
G04 Created by KiCad (PCBNEW 5.0.0-fee4fd1~66~ubuntu16.04.1) date Tue Sep 18 23:27:24 2018*
%MOMM*%
%LPD*%
G01*
G04 APERTURE LIST*
%ADD10C,0.100000*%
%ADD11C,0.150000*%
%ADD12C,0.300000*%
%ADD13C,0.400000*%
%ADD14R,3.800000X2.000000*%
%ADD15R,1.500000X2.000000*%
%ADD16R,0.800000X0.900000*%
%ADD17C,1.150000*%
%ADD18C,0.975000*%
%ADD19R,1.000000X2.500000*%
%ADD20R,1.800000X1.000000*%
G04 APERTURE END LIST*
D10*
D11*
X177002200Y-166007200D02*
X177002200Y-198007200D01*
X285002200Y-198007200D01*
X285002200Y-166007200D01*
X177002200Y-166007200D01*
D10*
D11*
X10000000Y-10000000D02*
X10000000Y-200007200D01*
X287002200Y-200007200D01*
X287002200Y-10000000D01*
X10000000Y-10000000D01*
D10*
D11*
X12000000Y-12000000D02*
X12000000Y-198007200D01*
X285002200Y-198007200D01*
X285002200Y-12000000D01*
X12000000Y-12000000D01*
D10*
D11*
X60000000Y-12000000D02*
X60000000Y-10000000D01*
D10*
D11*
X110000000Y-12000000D02*
X110000000Y-10000000D01*
D10*
D11*
X160000000Y-12000000D02*
X160000000Y-10000000D01*
D10*
D11*
X210000000Y-12000000D02*
X210000000Y-10000000D01*
D10*
D11*
X260000000Y-12000000D02*
X260000000Y-10000000D01*
D10*
D11*
X36065476Y-11588095D02*
X35322619Y-11588095D01*
X35694047Y-11588095D02*
X35694047Y-10288095D01*
X35570238Y-10473809D01*
X35446428Y-10597619D01*
X35322619Y-10659523D01*
D10*
D11*
X85322619Y-10411904D02*
X85384523Y-10350000D01*
X85508333Y-10288095D01*
X85817857Y-10288095D01*
X85941666Y-10350000D01*
X86003571Y-10411904D01*
X86065476Y-10535714D01*
X86065476Y-10659523D01*
X86003571Y-10845238D01*
X85260714Y-11588095D01*
X86065476Y-11588095D01*
D10*
D11*
X135260714Y-10288095D02*
X136065476Y-10288095D01*
X135632142Y-10783333D01*
X135817857Y-10783333D01*
X135941666Y-10845238D01*
X136003571Y-10907142D01*
X136065476Y-11030952D01*
X136065476Y-11340476D01*
X136003571Y-11464285D01*
X135941666Y-11526190D01*
X135817857Y-11588095D01*
X135446428Y-11588095D01*
X135322619Y-11526190D01*
X135260714Y-11464285D01*
D10*
D11*
X185941666Y-10721428D02*
X185941666Y-11588095D01*
X185632142Y-10226190D02*
X185322619Y-11154761D01*
X186127380Y-11154761D01*
D10*
D11*
X236003571Y-10288095D02*
X235384523Y-10288095D01*
X235322619Y-10907142D01*
X235384523Y-10845238D01*
X235508333Y-10783333D01*
X235817857Y-10783333D01*
X235941666Y-10845238D01*
X236003571Y-10907142D01*
X236065476Y-11030952D01*
X236065476Y-11340476D01*
X236003571Y-11464285D01*
X235941666Y-11526190D01*
X235817857Y-11588095D01*
X235508333Y-11588095D01*
X235384523Y-11526190D01*
X235322619Y-11464285D01*
D10*
D11*
X285941666Y-10288095D02*
X285694047Y-10288095D01*
X285570238Y-10350000D01*
X285508333Y-10411904D01*
X285384523Y-10597619D01*
X285322619Y-10845238D01*
X285322619Y-11340476D01*
X285384523Y-11464285D01*
X285446428Y-11526190D01*
X285570238Y-11588095D01*
X285817857Y-11588095D01*
X285941666Y-11526190D01*
X286003571Y-11464285D01*
X286065476Y-11340476D01*
X286065476Y-11030952D01*
X286003571Y-10907142D01*
X285941666Y-10845238D01*
X285817857Y-10783333D01*
X285570238Y-10783333D01*
X285446428Y-10845238D01*
X285384523Y-10907142D01*
X285322619Y-11030952D01*
D10*
D11*
X60000000Y-198007200D02*
X60000000Y-200007200D01*
D10*
D11*
X110000000Y-198007200D02*
X110000000Y-200007200D01*
D10*
D11*
X160000000Y-198007200D02*
X160000000Y-200007200D01*
D10*
D11*
X210000000Y-198007200D02*
X210000000Y-200007200D01*
D10*
D11*
X260000000Y-198007200D02*
X260000000Y-200007200D01*
D10*
D11*
X36065476Y-199595295D02*
X35322619Y-199595295D01*
X35694047Y-199595295D02*
X35694047Y-198295295D01*
X35570238Y-198481009D01*
X35446428Y-198604819D01*
X35322619Y-198666723D01*
D10*
D11*
X85322619Y-198419104D02*
X85384523Y-198357200D01*
X85508333Y-198295295D01*
X85817857Y-198295295D01*
X85941666Y-198357200D01*
X86003571Y-198419104D01*
X86065476Y-198542914D01*
X86065476Y-198666723D01*
X86003571Y-198852438D01*
X85260714Y-199595295D01*
X86065476Y-199595295D01*
D10*
D11*
X135260714Y-198295295D02*
X136065476Y-198295295D01*
X135632142Y-198790533D01*
X135817857Y-198790533D01*
X135941666Y-198852438D01*
X136003571Y-198914342D01*
X136065476Y-199038152D01*
X136065476Y-199347676D01*
X136003571Y-199471485D01*
X135941666Y-199533390D01*
X135817857Y-199595295D01*
X135446428Y-199595295D01*
X135322619Y-199533390D01*
X135260714Y-199471485D01*
D10*
D11*
X185941666Y-198728628D02*
X185941666Y-199595295D01*
X185632142Y-198233390D02*
X185322619Y-199161961D01*
X186127380Y-199161961D01*
D10*
D11*
X236003571Y-198295295D02*
X235384523Y-198295295D01*
X235322619Y-198914342D01*
X235384523Y-198852438D01*
X235508333Y-198790533D01*
X235817857Y-198790533D01*
X235941666Y-198852438D01*
X236003571Y-198914342D01*
X236065476Y-199038152D01*
X236065476Y-199347676D01*
X236003571Y-199471485D01*
X235941666Y-199533390D01*
X235817857Y-199595295D01*
X235508333Y-199595295D01*
X235384523Y-199533390D01*
X235322619Y-199471485D01*
D10*
D11*
X285941666Y-198295295D02*
X285694047Y-198295295D01*
X285570238Y-198357200D01*
X285508333Y-198419104D01*
X285384523Y-198604819D01*
X285322619Y-198852438D01*
X285322619Y-199347676D01*
X285384523Y-199471485D01*
X285446428Y-199533390D01*
X285570238Y-199595295D01*
X285817857Y-199595295D01*
X285941666Y-199533390D01*
X286003571Y-199471485D01*
X286065476Y-199347676D01*
X286065476Y-199038152D01*
X286003571Y-198914342D01*
X285941666Y-198852438D01*
X285817857Y-198790533D01*
X285570238Y-198790533D01*
X285446428Y-198852438D01*
X285384523Y-198914342D01*
X285322619Y-199038152D01*
D10*
D11*
X10000000Y-60000000D02*
X12000000Y-60000000D01*
D10*
D11*
X10000000Y-110000000D02*
X12000000Y-110000000D01*
D10*
D11*
X10000000Y-160000000D02*
X12000000Y-160000000D01*
D10*
D11*
X10690476Y-35216666D02*
X11309523Y-35216666D01*
X10566666Y-35588095D02*
X11000000Y-34288095D01*
X11433333Y-35588095D01*
D10*
D11*
X11092857Y-84907142D02*
X11278571Y-84969047D01*
X11340476Y-85030952D01*
X11402380Y-85154761D01*
X11402380Y-85340476D01*
X11340476Y-85464285D01*
X11278571Y-85526190D01*
X11154761Y-85588095D01*
X10659523Y-85588095D01*
X10659523Y-84288095D01*
X11092857Y-84288095D01*
X11216666Y-84350000D01*
X11278571Y-84411904D01*
X11340476Y-84535714D01*
X11340476Y-84659523D01*
X11278571Y-84783333D01*
X11216666Y-84845238D01*
X11092857Y-84907142D01*
X10659523Y-84907142D01*
D10*
D11*
X11402380Y-135464285D02*
X11340476Y-135526190D01*
X11154761Y-135588095D01*
X11030952Y-135588095D01*
X10845238Y-135526190D01*
X10721428Y-135402380D01*
X10659523Y-135278571D01*
X10597619Y-135030952D01*
X10597619Y-134845238D01*
X10659523Y-134597619D01*
X10721428Y-134473809D01*
X10845238Y-134350000D01*
X11030952Y-134288095D01*
X11154761Y-134288095D01*
X11340476Y-134350000D01*
X11402380Y-134411904D01*
D10*
D11*
X10659523Y-185588095D02*
X10659523Y-184288095D01*
X10969047Y-184288095D01*
X11154761Y-184350000D01*
X11278571Y-184473809D01*
X11340476Y-184597619D01*
X11402380Y-184845238D01*
X11402380Y-185030952D01*
X11340476Y-185278571D01*
X11278571Y-185402380D01*
X11154761Y-185526190D01*
X10969047Y-185588095D01*
X10659523Y-185588095D01*
D10*
D11*
X287002200Y-60000000D02*
X285002200Y-60000000D01*
D10*
D11*
X287002200Y-110000000D02*
X285002200Y-110000000D01*
D10*
D11*
X287002200Y-160000000D02*
X285002200Y-160000000D01*
D10*
D11*
X285692676Y-35216666D02*
X286311723Y-35216666D01*
X285568866Y-35588095D02*
X286002200Y-34288095D01*
X286435533Y-35588095D01*
D10*
D11*
X286095057Y-84907142D02*
X286280771Y-84969047D01*
X286342676Y-85030952D01*
X286404580Y-85154761D01*
X286404580Y-85340476D01*
X286342676Y-85464285D01*
X286280771Y-85526190D01*
X286156961Y-85588095D01*
X285661723Y-85588095D01*
X285661723Y-84288095D01*
X286095057Y-84288095D01*
X286218866Y-84350000D01*
X286280771Y-84411904D01*
X286342676Y-84535714D01*
X286342676Y-84659523D01*
X286280771Y-84783333D01*
X286218866Y-84845238D01*
X286095057Y-84907142D01*
X285661723Y-84907142D01*
D10*
D11*
X286404580Y-135464285D02*
X286342676Y-135526190D01*
X286156961Y-135588095D01*
X286033152Y-135588095D01*
X285847438Y-135526190D01*
X285723628Y-135402380D01*
X285661723Y-135278571D01*
X285599819Y-135030952D01*
X285599819Y-134845238D01*
X285661723Y-134597619D01*
X285723628Y-134473809D01*
X285847438Y-134350000D01*
X286033152Y-134288095D01*
X286156961Y-134288095D01*
X286342676Y-134350000D01*
X286404580Y-134411904D01*
D10*
D11*
X285661723Y-185588095D02*
X285661723Y-184288095D01*
X285971247Y-184288095D01*
X286156961Y-184350000D01*
X286280771Y-184473809D01*
X286342676Y-184597619D01*
X286404580Y-184845238D01*
X286404580Y-185030952D01*
X286342676Y-185278571D01*
X286280771Y-185402380D01*
X286156961Y-185526190D01*
X285971247Y-185588095D01*
X285661723Y-185588095D01*
D10*
D11*
X200434342Y-193785771D02*
X200434342Y-192285771D01*
X200791485Y-192285771D01*
X201005771Y-192357200D01*
X201148628Y-192500057D01*
X201220057Y-192642914D01*
X201291485Y-192928628D01*
X201291485Y-193142914D01*
X201220057Y-193428628D01*
X201148628Y-193571485D01*
X201005771Y-193714342D01*
X200791485Y-193785771D01*
X200434342Y-193785771D01*
X202577200Y-193785771D02*
X202577200Y-193000057D01*
X202505771Y-192857200D01*
X202362914Y-192785771D01*
X202077200Y-192785771D01*
X201934342Y-192857200D01*
X202577200Y-193714342D02*
X202434342Y-193785771D01*
X202077200Y-193785771D01*
X201934342Y-193714342D01*
X201862914Y-193571485D01*
X201862914Y-193428628D01*
X201934342Y-193285771D01*
X202077200Y-193214342D01*
X202434342Y-193214342D01*
X202577200Y-193142914D01*
X203077200Y-192785771D02*
X203648628Y-192785771D01*
X203291485Y-192285771D02*
X203291485Y-193571485D01*
X203362914Y-193714342D01*
X203505771Y-193785771D01*
X203648628Y-193785771D01*
X204720057Y-193714342D02*
X204577200Y-193785771D01*
X204291485Y-193785771D01*
X204148628Y-193714342D01*
X204077200Y-193571485D01*
X204077200Y-193000057D01*
X204148628Y-192857200D01*
X204291485Y-192785771D01*
X204577200Y-192785771D01*
X204720057Y-192857200D01*
X204791485Y-193000057D01*
X204791485Y-193142914D01*
X204077200Y-193285771D01*
X205434342Y-193642914D02*
X205505771Y-193714342D01*
X205434342Y-193785771D01*
X205362914Y-193714342D01*
X205434342Y-193642914D01*
X205434342Y-193785771D01*
X205434342Y-192857200D02*
X205505771Y-192928628D01*
X205434342Y-193000057D01*
X205362914Y-192928628D01*
X205434342Y-192857200D01*
X205434342Y-193000057D01*
D10*
D11*
X177002200Y-194507200D02*
X285002200Y-194507200D01*
D10*
D11*
X178434342Y-196585771D02*
X178434342Y-195085771D01*
X179291485Y-196585771D02*
X178648628Y-195728628D01*
X179291485Y-195085771D02*
X178434342Y-195942914D01*
X179934342Y-196585771D02*
X179934342Y-195585771D01*
X179934342Y-195085771D02*
X179862914Y-195157200D01*
X179934342Y-195228628D01*
X180005771Y-195157200D01*
X179934342Y-195085771D01*
X179934342Y-195228628D01*
X181505771Y-196442914D02*
X181434342Y-196514342D01*
X181220057Y-196585771D01*
X181077200Y-196585771D01*
X180862914Y-196514342D01*
X180720057Y-196371485D01*
X180648628Y-196228628D01*
X180577200Y-195942914D01*
X180577200Y-195728628D01*
X180648628Y-195442914D01*
X180720057Y-195300057D01*
X180862914Y-195157200D01*
X181077200Y-195085771D01*
X181220057Y-195085771D01*
X181434342Y-195157200D01*
X181505771Y-195228628D01*
X182791485Y-196585771D02*
X182791485Y-195800057D01*
X182720057Y-195657200D01*
X182577200Y-195585771D01*
X182291485Y-195585771D01*
X182148628Y-195657200D01*
X182791485Y-196514342D02*
X182648628Y-196585771D01*
X182291485Y-196585771D01*
X182148628Y-196514342D01*
X182077200Y-196371485D01*
X182077200Y-196228628D01*
X182148628Y-196085771D01*
X182291485Y-196014342D01*
X182648628Y-196014342D01*
X182791485Y-195942914D01*
X184148628Y-196585771D02*
X184148628Y-195085771D01*
X184148628Y-196514342D02*
X184005771Y-196585771D01*
X183720057Y-196585771D01*
X183577200Y-196514342D01*
X183505771Y-196442914D01*
X183434342Y-196300057D01*
X183434342Y-195871485D01*
X183505771Y-195728628D01*
X183577200Y-195657200D01*
X183720057Y-195585771D01*
X184005771Y-195585771D01*
X184148628Y-195657200D01*
X186005771Y-195800057D02*
X186505771Y-195800057D01*
X186720057Y-196585771D02*
X186005771Y-196585771D01*
X186005771Y-195085771D01*
X186720057Y-195085771D01*
X187362914Y-196442914D02*
X187434342Y-196514342D01*
X187362914Y-196585771D01*
X187291485Y-196514342D01*
X187362914Y-196442914D01*
X187362914Y-196585771D01*
X188077200Y-196585771D02*
X188077200Y-195085771D01*
X188434342Y-195085771D01*
X188648628Y-195157200D01*
X188791485Y-195300057D01*
X188862914Y-195442914D01*
X188934342Y-195728628D01*
X188934342Y-195942914D01*
X188862914Y-196228628D01*
X188791485Y-196371485D01*
X188648628Y-196514342D01*
X188434342Y-196585771D01*
X188077200Y-196585771D01*
X189577200Y-196442914D02*
X189648628Y-196514342D01*
X189577200Y-196585771D01*
X189505771Y-196514342D01*
X189577200Y-196442914D01*
X189577200Y-196585771D01*
X190220057Y-196157200D02*
X190934342Y-196157200D01*
X190077200Y-196585771D02*
X190577200Y-195085771D01*
X191077200Y-196585771D01*
X191577200Y-196442914D02*
X191648628Y-196514342D01*
X191577200Y-196585771D01*
X191505771Y-196514342D01*
X191577200Y-196442914D01*
X191577200Y-196585771D01*
X194577200Y-196585771D02*
X194577200Y-195085771D01*
X194720057Y-196014342D02*
X195148628Y-196585771D01*
X195148628Y-195585771D02*
X194577200Y-196157200D01*
X195791485Y-196585771D02*
X195791485Y-195585771D01*
X195791485Y-195085771D02*
X195720057Y-195157200D01*
X195791485Y-195228628D01*
X195862914Y-195157200D01*
X195791485Y-195085771D01*
X195791485Y-195228628D01*
X197148628Y-196514342D02*
X197005771Y-196585771D01*
X196720057Y-196585771D01*
X196577200Y-196514342D01*
X196505771Y-196442914D01*
X196434342Y-196300057D01*
X196434342Y-195871485D01*
X196505771Y-195728628D01*
X196577200Y-195657200D01*
X196720057Y-195585771D01*
X197005771Y-195585771D01*
X197148628Y-195657200D01*
X198434342Y-196585771D02*
X198434342Y-195800057D01*
X198362914Y-195657200D01*
X198220057Y-195585771D01*
X197934342Y-195585771D01*
X197791485Y-195657200D01*
X198434342Y-196514342D02*
X198291485Y-196585771D01*
X197934342Y-196585771D01*
X197791485Y-196514342D01*
X197720057Y-196371485D01*
X197720057Y-196228628D01*
X197791485Y-196085771D01*
X197934342Y-196014342D01*
X198291485Y-196014342D01*
X198434342Y-195942914D01*
X199791485Y-196585771D02*
X199791485Y-195085771D01*
X199791485Y-196514342D02*
X199648628Y-196585771D01*
X199362914Y-196585771D01*
X199220057Y-196514342D01*
X199148628Y-196442914D01*
X199077200Y-196300057D01*
X199077200Y-195871485D01*
X199148628Y-195728628D01*
X199220057Y-195657200D01*
X199362914Y-195585771D01*
X199648628Y-195585771D01*
X199791485Y-195657200D01*
X202362914Y-195085771D02*
X201648628Y-195085771D01*
X201577200Y-195800057D01*
X201648628Y-195728628D01*
X201791485Y-195657200D01*
X202148628Y-195657200D01*
X202291485Y-195728628D01*
X202362914Y-195800057D01*
X202434342Y-195942914D01*
X202434342Y-196300057D01*
X202362914Y-196442914D01*
X202291485Y-196514342D01*
X202148628Y-196585771D01*
X201791485Y-196585771D01*
X201648628Y-196514342D01*
X201577200Y-196442914D01*
X203077200Y-196442914D02*
X203148628Y-196514342D01*
X203077200Y-196585771D01*
X203005771Y-196514342D01*
X203077200Y-196442914D01*
X203077200Y-196585771D01*
X204077200Y-195085771D02*
X204220057Y-195085771D01*
X204362914Y-195157200D01*
X204434342Y-195228628D01*
X204505771Y-195371485D01*
X204577200Y-195657200D01*
X204577200Y-196014342D01*
X204505771Y-196300057D01*
X204434342Y-196442914D01*
X204362914Y-196514342D01*
X204220057Y-196585771D01*
X204077200Y-196585771D01*
X203934342Y-196514342D01*
X203862914Y-196442914D01*
X203791485Y-196300057D01*
X203720057Y-196014342D01*
X203720057Y-195657200D01*
X203791485Y-195371485D01*
X203862914Y-195228628D01*
X203934342Y-195157200D01*
X204077200Y-195085771D01*
X205220057Y-196442914D02*
X205291485Y-196514342D01*
X205220057Y-196585771D01*
X205148628Y-196514342D01*
X205220057Y-196442914D01*
X205220057Y-196585771D01*
X206220057Y-195085771D02*
X206362914Y-195085771D01*
X206505771Y-195157200D01*
X206577200Y-195228628D01*
X206648628Y-195371485D01*
X206720057Y-195657200D01*
X206720057Y-196014342D01*
X206648628Y-196300057D01*
X206577200Y-196442914D01*
X206505771Y-196514342D01*
X206362914Y-196585771D01*
X206220057Y-196585771D01*
X206077200Y-196514342D01*
X206005771Y-196442914D01*
X205934342Y-196300057D01*
X205862914Y-196014342D01*
X205862914Y-195657200D01*
X205934342Y-195371485D01*
X206005771Y-195228628D01*
X206077200Y-195157200D01*
X206220057Y-195085771D01*
X207362914Y-196014342D02*
X208505771Y-196014342D01*
X209005771Y-195585771D02*
X209577200Y-195585771D01*
X209220057Y-196585771D02*
X209220057Y-195300057D01*
X209291485Y-195157200D01*
X209434342Y-195085771D01*
X209577200Y-195085771D01*
X210648628Y-196514342D02*
X210505771Y-196585771D01*
X210220057Y-196585771D01*
X210077200Y-196514342D01*
X210005771Y-196371485D01*
X210005771Y-195800057D01*
X210077200Y-195657200D01*
X210220057Y-195585771D01*
X210505771Y-195585771D01*
X210648628Y-195657200D01*
X210720057Y-195800057D01*
X210720057Y-195942914D01*
X210005771Y-196085771D01*
X211934342Y-196514342D02*
X211791485Y-196585771D01*
X211505771Y-196585771D01*
X211362914Y-196514342D01*
X211291485Y-196371485D01*
X211291485Y-195800057D01*
X211362914Y-195657200D01*
X211505771Y-195585771D01*
X211791485Y-195585771D01*
X211934342Y-195657200D01*
X212005771Y-195800057D01*
X212005771Y-195942914D01*
X211291485Y-196085771D01*
X213291485Y-195585771D02*
X213291485Y-196585771D01*
X212934342Y-195014342D02*
X212577200Y-196085771D01*
X213505771Y-196085771D01*
X213862914Y-195585771D02*
X214434342Y-195585771D01*
X214077200Y-196585771D02*
X214077200Y-195300057D01*
X214148628Y-195157200D01*
X214291485Y-195085771D01*
X214434342Y-195085771D01*
X215577200Y-196585771D02*
X215577200Y-195085771D01*
X215577200Y-196514342D02*
X215434342Y-196585771D01*
X215148628Y-196585771D01*
X215005771Y-196514342D01*
X214934342Y-196442914D01*
X214862914Y-196300057D01*
X214862914Y-195871485D01*
X214934342Y-195728628D01*
X215005771Y-195657200D01*
X215148628Y-195585771D01*
X215434342Y-195585771D01*
X215577200Y-195657200D01*
X217077200Y-196585771D02*
X216220057Y-196585771D01*
X216648628Y-196585771D02*
X216648628Y-195085771D01*
X216505771Y-195300057D01*
X216362914Y-195442914D01*
X216220057Y-195514342D01*
X217362914Y-194677200D02*
X218791485Y-194677200D01*
X218362914Y-195085771D02*
X218077200Y-195085771D01*
X217934342Y-195157200D01*
X217862914Y-195228628D01*
X217720057Y-195442914D01*
X217648628Y-195728628D01*
X217648628Y-196300057D01*
X217720057Y-196442914D01*
X217791485Y-196514342D01*
X217934342Y-196585771D01*
X218220057Y-196585771D01*
X218362914Y-196514342D01*
X218434342Y-196442914D01*
X218505771Y-196300057D01*
X218505771Y-195942914D01*
X218434342Y-195800057D01*
X218362914Y-195728628D01*
X218220057Y-195657200D01*
X217934342Y-195657200D01*
X217791485Y-195728628D01*
X217720057Y-195800057D01*
X217648628Y-195942914D01*
X218791485Y-194677200D02*
X220220057Y-194677200D01*
X219791485Y-195085771D02*
X219505771Y-195085771D01*
X219362914Y-195157200D01*
X219291485Y-195228628D01*
X219148628Y-195442914D01*
X219077200Y-195728628D01*
X219077200Y-196300057D01*
X219148628Y-196442914D01*
X219220057Y-196514342D01*
X219362914Y-196585771D01*
X219648628Y-196585771D01*
X219791485Y-196514342D01*
X219862914Y-196442914D01*
X219934342Y-196300057D01*
X219934342Y-195942914D01*
X219862914Y-195800057D01*
X219791485Y-195728628D01*
X219648628Y-195657200D01*
X219362914Y-195657200D01*
X219220057Y-195728628D01*
X219148628Y-195800057D01*
X219077200Y-195942914D01*
X221220057Y-195585771D02*
X221220057Y-196585771D01*
X220577200Y-195585771D02*
X220577200Y-196371485D01*
X220648628Y-196514342D01*
X220791485Y-196585771D01*
X221005771Y-196585771D01*
X221148628Y-196514342D01*
X221220057Y-196442914D01*
X221934342Y-196585771D02*
X221934342Y-195085771D01*
X221934342Y-195657200D02*
X222077200Y-195585771D01*
X222362914Y-195585771D01*
X222505771Y-195657200D01*
X222577200Y-195728628D01*
X222648628Y-195871485D01*
X222648628Y-196300057D01*
X222577200Y-196442914D01*
X222505771Y-196514342D01*
X222362914Y-196585771D01*
X222077200Y-196585771D01*
X221934342Y-196514342D01*
X223934342Y-195585771D02*
X223934342Y-196585771D01*
X223291485Y-195585771D02*
X223291485Y-196371485D01*
X223362914Y-196514342D01*
X223505771Y-196585771D01*
X223720057Y-196585771D01*
X223862914Y-196514342D01*
X223934342Y-196442914D01*
X224648628Y-195585771D02*
X224648628Y-196585771D01*
X224648628Y-195728628D02*
X224720057Y-195657200D01*
X224862914Y-195585771D01*
X225077200Y-195585771D01*
X225220057Y-195657200D01*
X225291485Y-195800057D01*
X225291485Y-196585771D01*
X225791485Y-195585771D02*
X226362914Y-195585771D01*
X226005771Y-195085771D02*
X226005771Y-196371485D01*
X226077200Y-196514342D01*
X226220057Y-196585771D01*
X226362914Y-196585771D01*
X227505771Y-195585771D02*
X227505771Y-196585771D01*
X226862914Y-195585771D02*
X226862914Y-196371485D01*
X226934342Y-196514342D01*
X227077200Y-196585771D01*
X227291485Y-196585771D01*
X227434342Y-196514342D01*
X227505771Y-196442914D01*
X229005771Y-196585771D02*
X228148628Y-196585771D01*
X228577200Y-196585771D02*
X228577200Y-195085771D01*
X228434342Y-195300057D01*
X228291485Y-195442914D01*
X228148628Y-195514342D01*
X230291485Y-195085771D02*
X230005771Y-195085771D01*
X229862914Y-195157200D01*
X229791485Y-195228628D01*
X229648628Y-195442914D01*
X229577200Y-195728628D01*
X229577200Y-196300057D01*
X229648628Y-196442914D01*
X229720057Y-196514342D01*
X229862914Y-196585771D01*
X230148628Y-196585771D01*
X230291485Y-196514342D01*
X230362914Y-196442914D01*
X230434342Y-196300057D01*
X230434342Y-195942914D01*
X230362914Y-195800057D01*
X230291485Y-195728628D01*
X230148628Y-195657200D01*
X229862914Y-195657200D01*
X229720057Y-195728628D01*
X229648628Y-195800057D01*
X229577200Y-195942914D01*
X231077200Y-196442914D02*
X231148628Y-196514342D01*
X231077200Y-196585771D01*
X231005771Y-196514342D01*
X231077200Y-196442914D01*
X231077200Y-196585771D01*
X232077200Y-195085771D02*
X232220057Y-195085771D01*
X232362914Y-195157200D01*
X232434342Y-195228628D01*
X232505771Y-195371485D01*
X232577200Y-195657200D01*
X232577200Y-196014342D01*
X232505771Y-196300057D01*
X232434342Y-196442914D01*
X232362914Y-196514342D01*
X232220057Y-196585771D01*
X232077200Y-196585771D01*
X231934342Y-196514342D01*
X231862914Y-196442914D01*
X231791485Y-196300057D01*
X231720057Y-196014342D01*
X231720057Y-195657200D01*
X231791485Y-195371485D01*
X231862914Y-195228628D01*
X231934342Y-195157200D01*
X232077200Y-195085771D01*
X233862914Y-195585771D02*
X233862914Y-196585771D01*
X233505771Y-195014342D02*
X233148628Y-196085771D01*
X234077200Y-196085771D01*
X234648628Y-196442914D02*
X234720057Y-196514342D01*
X234648628Y-196585771D01*
X234577200Y-196514342D01*
X234648628Y-196442914D01*
X234648628Y-196585771D01*
X236148628Y-196585771D02*
X235291485Y-196585771D01*
X235720057Y-196585771D02*
X235720057Y-195085771D01*
X235577200Y-195300057D01*
X235434342Y-195442914D01*
X235291485Y-195514342D01*
D10*
D11*
X177002200Y-191507200D02*
X285002200Y-191507200D01*
D10*
D12*
X264411485Y-193785771D02*
X263911485Y-193071485D01*
X263554342Y-193785771D02*
X263554342Y-192285771D01*
X264125771Y-192285771D01*
X264268628Y-192357200D01*
X264340057Y-192428628D01*
X264411485Y-192571485D01*
X264411485Y-192785771D01*
X264340057Y-192928628D01*
X264268628Y-193000057D01*
X264125771Y-193071485D01*
X263554342Y-193071485D01*
X265625771Y-193714342D02*
X265482914Y-193785771D01*
X265197200Y-193785771D01*
X265054342Y-193714342D01*
X264982914Y-193571485D01*
X264982914Y-193000057D01*
X265054342Y-192857200D01*
X265197200Y-192785771D01*
X265482914Y-192785771D01*
X265625771Y-192857200D01*
X265697200Y-193000057D01*
X265697200Y-193142914D01*
X264982914Y-193285771D01*
X266197200Y-192785771D02*
X266554342Y-193785771D01*
X266911485Y-192785771D01*
X267482914Y-193642914D02*
X267554342Y-193714342D01*
X267482914Y-193785771D01*
X267411485Y-193714342D01*
X267482914Y-193642914D01*
X267482914Y-193785771D01*
X267482914Y-192857200D02*
X267554342Y-192928628D01*
X267482914Y-193000057D01*
X267411485Y-192928628D01*
X267482914Y-192857200D01*
X267482914Y-193000057D01*
D10*
D11*
X178362914Y-193714342D02*
X178577200Y-193785771D01*
X178934342Y-193785771D01*
X179077200Y-193714342D01*
X179148628Y-193642914D01*
X179220057Y-193500057D01*
X179220057Y-193357200D01*
X179148628Y-193214342D01*
X179077200Y-193142914D01*
X178934342Y-193071485D01*
X178648628Y-193000057D01*
X178505771Y-192928628D01*
X178434342Y-192857200D01*
X178362914Y-192714342D01*
X178362914Y-192571485D01*
X178434342Y-192428628D01*
X178505771Y-192357200D01*
X178648628Y-192285771D01*
X179005771Y-192285771D01*
X179220057Y-192357200D01*
X179862914Y-193785771D02*
X179862914Y-192785771D01*
X179862914Y-192285771D02*
X179791485Y-192357200D01*
X179862914Y-192428628D01*
X179934342Y-192357200D01*
X179862914Y-192285771D01*
X179862914Y-192428628D01*
X180434342Y-192785771D02*
X181220057Y-192785771D01*
X180434342Y-193785771D01*
X181220057Y-193785771D01*
X182362914Y-193714342D02*
X182220057Y-193785771D01*
X181934342Y-193785771D01*
X181791485Y-193714342D01*
X181720057Y-193571485D01*
X181720057Y-193000057D01*
X181791485Y-192857200D01*
X181934342Y-192785771D01*
X182220057Y-192785771D01*
X182362914Y-192857200D01*
X182434342Y-193000057D01*
X182434342Y-193142914D01*
X181720057Y-193285771D01*
X183077200Y-193642914D02*
X183148628Y-193714342D01*
X183077200Y-193785771D01*
X183005771Y-193714342D01*
X183077200Y-193642914D01*
X183077200Y-193785771D01*
X183077200Y-192857200D02*
X183148628Y-192928628D01*
X183077200Y-193000057D01*
X183005771Y-192928628D01*
X183077200Y-192857200D01*
X183077200Y-193000057D01*
X184862914Y-193357200D02*
X185577200Y-193357200D01*
X184720057Y-193785771D02*
X185220057Y-192285771D01*
X185720057Y-193785771D01*
X186862914Y-192785771D02*
X186862914Y-193785771D01*
X186505771Y-192214342D02*
X186148628Y-193285771D01*
X187077200Y-193285771D01*
D10*
D11*
X263434342Y-196585771D02*
X263434342Y-195085771D01*
X264791485Y-196585771D02*
X264791485Y-195085771D01*
X264791485Y-196514342D02*
X264648628Y-196585771D01*
X264362914Y-196585771D01*
X264220057Y-196514342D01*
X264148628Y-196442914D01*
X264077200Y-196300057D01*
X264077200Y-195871485D01*
X264148628Y-195728628D01*
X264220057Y-195657200D01*
X264362914Y-195585771D01*
X264648628Y-195585771D01*
X264791485Y-195657200D01*
X265505771Y-196442914D02*
X265577200Y-196514342D01*
X265505771Y-196585771D01*
X265434342Y-196514342D01*
X265505771Y-196442914D01*
X265505771Y-196585771D01*
X265505771Y-195657200D02*
X265577200Y-195728628D01*
X265505771Y-195800057D01*
X265434342Y-195728628D01*
X265505771Y-195657200D01*
X265505771Y-195800057D01*
X268148628Y-196585771D02*
X267291485Y-196585771D01*
X267720057Y-196585771D02*
X267720057Y-195085771D01*
X267577200Y-195300057D01*
X267434342Y-195442914D01*
X267291485Y-195514342D01*
X269862914Y-195014342D02*
X268577200Y-196942914D01*
X271148628Y-196585771D02*
X270291485Y-196585771D01*
X270720057Y-196585771D02*
X270720057Y-195085771D01*
X270577200Y-195300057D01*
X270434342Y-195442914D01*
X270291485Y-195514342D01*
D10*
D11*
X177002200Y-187507200D02*
X285002200Y-187507200D01*
D10*
D13*
X178714580Y-188211961D02*
X179857438Y-188211961D01*
X179036009Y-190211961D02*
X179286009Y-188211961D01*
X180274104Y-190211961D02*
X180440771Y-188878628D01*
X180524104Y-188211961D02*
X180416961Y-188307200D01*
X180500295Y-188402438D01*
X180607438Y-188307200D01*
X180524104Y-188211961D01*
X180500295Y-188402438D01*
X181107438Y-188878628D02*
X181869342Y-188878628D01*
X181476485Y-188211961D02*
X181262200Y-189926247D01*
X181333628Y-190116723D01*
X181512200Y-190211961D01*
X181702676Y-190211961D01*
X182655057Y-190211961D02*
X182476485Y-190116723D01*
X182405057Y-189926247D01*
X182619342Y-188211961D01*
X184190771Y-190116723D02*
X183988390Y-190211961D01*
X183607438Y-190211961D01*
X183428866Y-190116723D01*
X183357438Y-189926247D01*
X183452676Y-189164342D01*
X183571723Y-188973866D01*
X183774104Y-188878628D01*
X184155057Y-188878628D01*
X184333628Y-188973866D01*
X184405057Y-189164342D01*
X184381247Y-189354819D01*
X183405057Y-189545295D01*
X185155057Y-190021485D02*
X185238390Y-190116723D01*
X185131247Y-190211961D01*
X185047914Y-190116723D01*
X185155057Y-190021485D01*
X185131247Y-190211961D01*
X185286009Y-188973866D02*
X185369342Y-189069104D01*
X185262200Y-189164342D01*
X185178866Y-189069104D01*
X185286009Y-188973866D01*
X185262200Y-189164342D01*
D10*
D11*
X178934342Y-185600057D02*
X178434342Y-185600057D01*
X178434342Y-186385771D02*
X178434342Y-184885771D01*
X179148628Y-184885771D01*
X179720057Y-186385771D02*
X179720057Y-185385771D01*
X179720057Y-184885771D02*
X179648628Y-184957200D01*
X179720057Y-185028628D01*
X179791485Y-184957200D01*
X179720057Y-184885771D01*
X179720057Y-185028628D01*
X180648628Y-186385771D02*
X180505771Y-186314342D01*
X180434342Y-186171485D01*
X180434342Y-184885771D01*
X181791485Y-186314342D02*
X181648628Y-186385771D01*
X181362914Y-186385771D01*
X181220057Y-186314342D01*
X181148628Y-186171485D01*
X181148628Y-185600057D01*
X181220057Y-185457200D01*
X181362914Y-185385771D01*
X181648628Y-185385771D01*
X181791485Y-185457200D01*
X181862914Y-185600057D01*
X181862914Y-185742914D01*
X181148628Y-185885771D01*
X182505771Y-186242914D02*
X182577200Y-186314342D01*
X182505771Y-186385771D01*
X182434342Y-186314342D01*
X182505771Y-186242914D01*
X182505771Y-186385771D01*
X182505771Y-185457200D02*
X182577200Y-185528628D01*
X182505771Y-185600057D01*
X182434342Y-185528628D01*
X182505771Y-185457200D01*
X182505771Y-185600057D01*
X184362914Y-186385771D02*
X184362914Y-185385771D01*
X184362914Y-184885771D02*
X184291485Y-184957200D01*
X184362914Y-185028628D01*
X184434342Y-184957200D01*
X184362914Y-184885771D01*
X184362914Y-185028628D01*
X185291485Y-186385771D02*
X185148628Y-186314342D01*
X185077200Y-186242914D01*
X185005771Y-186100057D01*
X185005771Y-185671485D01*
X185077200Y-185528628D01*
X185148628Y-185457200D01*
X185291485Y-185385771D01*
X185505771Y-185385771D01*
X185648628Y-185457200D01*
X185720057Y-185528628D01*
X185791485Y-185671485D01*
X185791485Y-186100057D01*
X185720057Y-186242914D01*
X185648628Y-186314342D01*
X185505771Y-186385771D01*
X185291485Y-186385771D01*
X186220057Y-185385771D02*
X186791485Y-185385771D01*
X186434342Y-184885771D02*
X186434342Y-186171485D01*
X186505771Y-186314342D01*
X186648628Y-186385771D01*
X186791485Y-186385771D01*
X187291485Y-186385771D02*
X187291485Y-184885771D01*
X187291485Y-185457200D02*
X187434342Y-185385771D01*
X187720057Y-185385771D01*
X187862914Y-185457200D01*
X187934342Y-185528628D01*
X188005771Y-185671485D01*
X188005771Y-186100057D01*
X187934342Y-186242914D01*
X187862914Y-186314342D01*
X187720057Y-186385771D01*
X187434342Y-186385771D01*
X187291485Y-186314342D01*
X188648628Y-186385771D02*
X188648628Y-185385771D01*
X188648628Y-184885771D02*
X188577200Y-184957200D01*
X188648628Y-185028628D01*
X188720057Y-184957200D01*
X188648628Y-184885771D01*
X188648628Y-185028628D01*
X189362914Y-185385771D02*
X189362914Y-186385771D01*
X189362914Y-185528628D02*
X189434342Y-185457200D01*
X189577200Y-185385771D01*
X189791485Y-185385771D01*
X189934342Y-185457200D01*
X190005771Y-185600057D01*
X190005771Y-186385771D01*
X190720057Y-186242914D02*
X190791485Y-186314342D01*
X190720057Y-186385771D01*
X190648628Y-186314342D01*
X190720057Y-186242914D01*
X190720057Y-186385771D01*
X191434342Y-186385771D02*
X191434342Y-184885771D01*
X191577200Y-185814342D02*
X192005771Y-186385771D01*
X192005771Y-185385771D02*
X191434342Y-185957200D01*
X192648628Y-186385771D02*
X192648628Y-185385771D01*
X192648628Y-184885771D02*
X192577200Y-184957200D01*
X192648628Y-185028628D01*
X192720057Y-184957200D01*
X192648628Y-184885771D01*
X192648628Y-185028628D01*
X194005771Y-186314342D02*
X193862914Y-186385771D01*
X193577200Y-186385771D01*
X193434342Y-186314342D01*
X193362914Y-186242914D01*
X193291485Y-186100057D01*
X193291485Y-185671485D01*
X193362914Y-185528628D01*
X193434342Y-185457200D01*
X193577200Y-185385771D01*
X193862914Y-185385771D01*
X194005771Y-185457200D01*
X195291485Y-186385771D02*
X195291485Y-185600057D01*
X195220057Y-185457200D01*
X195077200Y-185385771D01*
X194791485Y-185385771D01*
X194648628Y-185457200D01*
X195291485Y-186314342D02*
X195148628Y-186385771D01*
X194791485Y-186385771D01*
X194648628Y-186314342D01*
X194577200Y-186171485D01*
X194577200Y-186028628D01*
X194648628Y-185885771D01*
X194791485Y-185814342D01*
X195148628Y-185814342D01*
X195291485Y-185742914D01*
X196648628Y-186385771D02*
X196648628Y-184885771D01*
X196648628Y-186314342D02*
X196505771Y-186385771D01*
X196220057Y-186385771D01*
X196077200Y-186314342D01*
X196005771Y-186242914D01*
X195934342Y-186100057D01*
X195934342Y-185671485D01*
X196005771Y-185528628D01*
X196077200Y-185457200D01*
X196220057Y-185385771D01*
X196505771Y-185385771D01*
X196648628Y-185457200D01*
X197005771Y-186528628D02*
X198148628Y-186528628D01*
X198505771Y-185385771D02*
X198505771Y-186885771D01*
X198505771Y-185457200D02*
X198648628Y-185385771D01*
X198934342Y-185385771D01*
X199077200Y-185457200D01*
X199148628Y-185528628D01*
X199220057Y-185671485D01*
X199220057Y-186100057D01*
X199148628Y-186242914D01*
X199077200Y-186314342D01*
X198934342Y-186385771D01*
X198648628Y-186385771D01*
X198505771Y-186314342D01*
X200505771Y-186314342D02*
X200362914Y-186385771D01*
X200077200Y-186385771D01*
X199934342Y-186314342D01*
X199862914Y-186242914D01*
X199791485Y-186100057D01*
X199791485Y-185671485D01*
X199862914Y-185528628D01*
X199934342Y-185457200D01*
X200077200Y-185385771D01*
X200362914Y-185385771D01*
X200505771Y-185457200D01*
X201148628Y-186385771D02*
X201148628Y-184885771D01*
X201148628Y-185457200D02*
X201291485Y-185385771D01*
X201577200Y-185385771D01*
X201720057Y-185457200D01*
X201791485Y-185528628D01*
X201862914Y-185671485D01*
X201862914Y-186100057D01*
X201791485Y-186242914D01*
X201720057Y-186314342D01*
X201577200Y-186385771D01*
X201291485Y-186385771D01*
X201148628Y-186314342D01*
D10*
D11*
X177002200Y-181507200D02*
X285002200Y-181507200D01*
D10*
D11*
X178362914Y-183614342D02*
X178577200Y-183685771D01*
X178934342Y-183685771D01*
X179077200Y-183614342D01*
X179148628Y-183542914D01*
X179220057Y-183400057D01*
X179220057Y-183257200D01*
X179148628Y-183114342D01*
X179077200Y-183042914D01*
X178934342Y-182971485D01*
X178648628Y-182900057D01*
X178505771Y-182828628D01*
X178434342Y-182757200D01*
X178362914Y-182614342D01*
X178362914Y-182471485D01*
X178434342Y-182328628D01*
X178505771Y-182257200D01*
X178648628Y-182185771D01*
X179005771Y-182185771D01*
X179220057Y-182257200D01*
X179862914Y-183685771D02*
X179862914Y-182185771D01*
X180505771Y-183685771D02*
X180505771Y-182900057D01*
X180434342Y-182757200D01*
X180291485Y-182685771D01*
X180077200Y-182685771D01*
X179934342Y-182757200D01*
X179862914Y-182828628D01*
X181791485Y-183614342D02*
X181648628Y-183685771D01*
X181362914Y-183685771D01*
X181220057Y-183614342D01*
X181148628Y-183471485D01*
X181148628Y-182900057D01*
X181220057Y-182757200D01*
X181362914Y-182685771D01*
X181648628Y-182685771D01*
X181791485Y-182757200D01*
X181862914Y-182900057D01*
X181862914Y-183042914D01*
X181148628Y-183185771D01*
X183077200Y-183614342D02*
X182934342Y-183685771D01*
X182648628Y-183685771D01*
X182505771Y-183614342D01*
X182434342Y-183471485D01*
X182434342Y-182900057D01*
X182505771Y-182757200D01*
X182648628Y-182685771D01*
X182934342Y-182685771D01*
X183077200Y-182757200D01*
X183148628Y-182900057D01*
X183148628Y-183042914D01*
X182434342Y-183185771D01*
X183577200Y-182685771D02*
X184148628Y-182685771D01*
X183791485Y-182185771D02*
X183791485Y-183471485D01*
X183862914Y-183614342D01*
X184005771Y-183685771D01*
X184148628Y-183685771D01*
X184648628Y-183542914D02*
X184720057Y-183614342D01*
X184648628Y-183685771D01*
X184577200Y-183614342D01*
X184648628Y-183542914D01*
X184648628Y-183685771D01*
X184648628Y-182757200D02*
X184720057Y-182828628D01*
X184648628Y-182900057D01*
X184577200Y-182828628D01*
X184648628Y-182757200D01*
X184648628Y-182900057D01*
D10*
D11*
X197002200Y-191507200D02*
X197002200Y-194507200D01*
D10*
D11*
X261002200Y-191507200D02*
X261002200Y-198007200D01*
D14*
G04 #@! TO.C,U4*
X167640000Y-79604000D03*
D15*
X167640000Y-73304000D03*
X165340000Y-73304000D03*
X169940000Y-73304000D03*
G04 #@! TD*
D16*
G04 #@! TO.C,U3*
X170180000Y-91456000D03*
X171130000Y-93456000D03*
X169230000Y-93456000D03*
G04 #@! TD*
G04 #@! TO.C,U2*
X172278000Y-88376000D03*
X174178000Y-88376000D03*
X173228000Y-86376000D03*
G04 #@! TD*
D10*
G04 #@! TO.C,R8*
G36*
X167236505Y-92773204D02*
X167260773Y-92776804D01*
X167284572Y-92782765D01*
X167307671Y-92791030D01*
X167329850Y-92801520D01*
X167350893Y-92814132D01*
X167370599Y-92828747D01*
X167388777Y-92845223D01*
X167405253Y-92863401D01*
X167419868Y-92883107D01*
X167432480Y-92904150D01*
X167442970Y-92926329D01*
X167451235Y-92949428D01*
X167457196Y-92973227D01*
X167460796Y-92997495D01*
X167462000Y-93021999D01*
X167462000Y-93922001D01*
X167460796Y-93946505D01*
X167457196Y-93970773D01*
X167451235Y-93994572D01*
X167442970Y-94017671D01*
X167432480Y-94039850D01*
X167419868Y-94060893D01*
X167405253Y-94080599D01*
X167388777Y-94098777D01*
X167370599Y-94115253D01*
X167350893Y-94129868D01*
X167329850Y-94142480D01*
X167307671Y-94152970D01*
X167284572Y-94161235D01*
X167260773Y-94167196D01*
X167236505Y-94170796D01*
X167212001Y-94172000D01*
X166561999Y-94172000D01*
X166537495Y-94170796D01*
X166513227Y-94167196D01*
X166489428Y-94161235D01*
X166466329Y-94152970D01*
X166444150Y-94142480D01*
X166423107Y-94129868D01*
X166403401Y-94115253D01*
X166385223Y-94098777D01*
X166368747Y-94080599D01*
X166354132Y-94060893D01*
X166341520Y-94039850D01*
X166331030Y-94017671D01*
X166322765Y-93994572D01*
X166316804Y-93970773D01*
X166313204Y-93946505D01*
X166312000Y-93922001D01*
X166312000Y-93021999D01*
X166313204Y-92997495D01*
X166316804Y-92973227D01*
X166322765Y-92949428D01*
X166331030Y-92926329D01*
X166341520Y-92904150D01*
X166354132Y-92883107D01*
X166368747Y-92863401D01*
X166385223Y-92845223D01*
X166403401Y-92828747D01*
X166423107Y-92814132D01*
X166444150Y-92801520D01*
X166466329Y-92791030D01*
X166489428Y-92782765D01*
X166513227Y-92776804D01*
X166537495Y-92773204D01*
X166561999Y-92772000D01*
X167212001Y-92772000D01*
X167236505Y-92773204D01*
X167236505Y-92773204D01*
G37*
D17*
X166887000Y-93472000D03*
D10*
G36*
X165186505Y-92773204D02*
X165210773Y-92776804D01*
X165234572Y-92782765D01*
X165257671Y-92791030D01*
X165279850Y-92801520D01*
X165300893Y-92814132D01*
X165320599Y-92828747D01*
X165338777Y-92845223D01*
X165355253Y-92863401D01*
X165369868Y-92883107D01*
X165382480Y-92904150D01*
X165392970Y-92926329D01*
X165401235Y-92949428D01*
X165407196Y-92973227D01*
X165410796Y-92997495D01*
X165412000Y-93021999D01*
X165412000Y-93922001D01*
X165410796Y-93946505D01*
X165407196Y-93970773D01*
X165401235Y-93994572D01*
X165392970Y-94017671D01*
X165382480Y-94039850D01*
X165369868Y-94060893D01*
X165355253Y-94080599D01*
X165338777Y-94098777D01*
X165320599Y-94115253D01*
X165300893Y-94129868D01*
X165279850Y-94142480D01*
X165257671Y-94152970D01*
X165234572Y-94161235D01*
X165210773Y-94167196D01*
X165186505Y-94170796D01*
X165162001Y-94172000D01*
X164511999Y-94172000D01*
X164487495Y-94170796D01*
X164463227Y-94167196D01*
X164439428Y-94161235D01*
X164416329Y-94152970D01*
X164394150Y-94142480D01*
X164373107Y-94129868D01*
X164353401Y-94115253D01*
X164335223Y-94098777D01*
X164318747Y-94080599D01*
X164304132Y-94060893D01*
X164291520Y-94039850D01*
X164281030Y-94017671D01*
X164272765Y-93994572D01*
X164266804Y-93970773D01*
X164263204Y-93946505D01*
X164262000Y-93922001D01*
X164262000Y-93021999D01*
X164263204Y-92997495D01*
X164266804Y-92973227D01*
X164272765Y-92949428D01*
X164281030Y-92926329D01*
X164291520Y-92904150D01*
X164304132Y-92883107D01*
X164318747Y-92863401D01*
X164335223Y-92845223D01*
X164353401Y-92828747D01*
X164373107Y-92814132D01*
X164394150Y-92801520D01*
X164416329Y-92791030D01*
X164439428Y-92782765D01*
X164463227Y-92776804D01*
X164487495Y-92773204D01*
X164511999Y-92772000D01*
X165162001Y-92772000D01*
X165186505Y-92773204D01*
X165186505Y-92773204D01*
G37*
D17*
X164837000Y-93472000D03*
G04 #@! TD*
D10*
G04 #@! TO.C,R7*
G36*
X175092505Y-90995204D02*
X175116773Y-90998804D01*
X175140572Y-91004765D01*
X175163671Y-91013030D01*
X175185850Y-91023520D01*
X175206893Y-91036132D01*
X175226599Y-91050747D01*
X175244777Y-91067223D01*
X175261253Y-91085401D01*
X175275868Y-91105107D01*
X175288480Y-91126150D01*
X175298970Y-91148329D01*
X175307235Y-91171428D01*
X175313196Y-91195227D01*
X175316796Y-91219495D01*
X175318000Y-91243999D01*
X175318000Y-92144001D01*
X175316796Y-92168505D01*
X175313196Y-92192773D01*
X175307235Y-92216572D01*
X175298970Y-92239671D01*
X175288480Y-92261850D01*
X175275868Y-92282893D01*
X175261253Y-92302599D01*
X175244777Y-92320777D01*
X175226599Y-92337253D01*
X175206893Y-92351868D01*
X175185850Y-92364480D01*
X175163671Y-92374970D01*
X175140572Y-92383235D01*
X175116773Y-92389196D01*
X175092505Y-92392796D01*
X175068001Y-92394000D01*
X174417999Y-92394000D01*
X174393495Y-92392796D01*
X174369227Y-92389196D01*
X174345428Y-92383235D01*
X174322329Y-92374970D01*
X174300150Y-92364480D01*
X174279107Y-92351868D01*
X174259401Y-92337253D01*
X174241223Y-92320777D01*
X174224747Y-92302599D01*
X174210132Y-92282893D01*
X174197520Y-92261850D01*
X174187030Y-92239671D01*
X174178765Y-92216572D01*
X174172804Y-92192773D01*
X174169204Y-92168505D01*
X174168000Y-92144001D01*
X174168000Y-91243999D01*
X174169204Y-91219495D01*
X174172804Y-91195227D01*
X174178765Y-91171428D01*
X174187030Y-91148329D01*
X174197520Y-91126150D01*
X174210132Y-91105107D01*
X174224747Y-91085401D01*
X174241223Y-91067223D01*
X174259401Y-91050747D01*
X174279107Y-91036132D01*
X174300150Y-91023520D01*
X174322329Y-91013030D01*
X174345428Y-91004765D01*
X174369227Y-90998804D01*
X174393495Y-90995204D01*
X174417999Y-90994000D01*
X175068001Y-90994000D01*
X175092505Y-90995204D01*
X175092505Y-90995204D01*
G37*
D17*
X174743000Y-91694000D03*
D10*
G36*
X177142505Y-90995204D02*
X177166773Y-90998804D01*
X177190572Y-91004765D01*
X177213671Y-91013030D01*
X177235850Y-91023520D01*
X177256893Y-91036132D01*
X177276599Y-91050747D01*
X177294777Y-91067223D01*
X177311253Y-91085401D01*
X177325868Y-91105107D01*
X177338480Y-91126150D01*
X177348970Y-91148329D01*
X177357235Y-91171428D01*
X177363196Y-91195227D01*
X177366796Y-91219495D01*
X177368000Y-91243999D01*
X177368000Y-92144001D01*
X177366796Y-92168505D01*
X177363196Y-92192773D01*
X177357235Y-92216572D01*
X177348970Y-92239671D01*
X177338480Y-92261850D01*
X177325868Y-92282893D01*
X177311253Y-92302599D01*
X177294777Y-92320777D01*
X177276599Y-92337253D01*
X177256893Y-92351868D01*
X177235850Y-92364480D01*
X177213671Y-92374970D01*
X177190572Y-92383235D01*
X177166773Y-92389196D01*
X177142505Y-92392796D01*
X177118001Y-92394000D01*
X176467999Y-92394000D01*
X176443495Y-92392796D01*
X176419227Y-92389196D01*
X176395428Y-92383235D01*
X176372329Y-92374970D01*
X176350150Y-92364480D01*
X176329107Y-92351868D01*
X176309401Y-92337253D01*
X176291223Y-92320777D01*
X176274747Y-92302599D01*
X176260132Y-92282893D01*
X176247520Y-92261850D01*
X176237030Y-92239671D01*
X176228765Y-92216572D01*
X176222804Y-92192773D01*
X176219204Y-92168505D01*
X176218000Y-92144001D01*
X176218000Y-91243999D01*
X176219204Y-91219495D01*
X176222804Y-91195227D01*
X176228765Y-91171428D01*
X176237030Y-91148329D01*
X176247520Y-91126150D01*
X176260132Y-91105107D01*
X176274747Y-91085401D01*
X176291223Y-91067223D01*
X176309401Y-91050747D01*
X176329107Y-91036132D01*
X176350150Y-91023520D01*
X176372329Y-91013030D01*
X176395428Y-91004765D01*
X176419227Y-90998804D01*
X176443495Y-90995204D01*
X176467999Y-90994000D01*
X177118001Y-90994000D01*
X177142505Y-90995204D01*
X177142505Y-90995204D01*
G37*
D17*
X176793000Y-91694000D03*
G04 #@! TD*
D10*
G04 #@! TO.C,R6*
G36*
X156924505Y-76401204D02*
X156948773Y-76404804D01*
X156972572Y-76410765D01*
X156995671Y-76419030D01*
X157017850Y-76429520D01*
X157038893Y-76442132D01*
X157058599Y-76456747D01*
X157076777Y-76473223D01*
X157093253Y-76491401D01*
X157107868Y-76511107D01*
X157120480Y-76532150D01*
X157130970Y-76554329D01*
X157139235Y-76577428D01*
X157145196Y-76601227D01*
X157148796Y-76625495D01*
X157150000Y-76649999D01*
X157150000Y-77550001D01*
X157148796Y-77574505D01*
X157145196Y-77598773D01*
X157139235Y-77622572D01*
X157130970Y-77645671D01*
X157120480Y-77667850D01*
X157107868Y-77688893D01*
X157093253Y-77708599D01*
X157076777Y-77726777D01*
X157058599Y-77743253D01*
X157038893Y-77757868D01*
X157017850Y-77770480D01*
X156995671Y-77780970D01*
X156972572Y-77789235D01*
X156948773Y-77795196D01*
X156924505Y-77798796D01*
X156900001Y-77800000D01*
X156249999Y-77800000D01*
X156225495Y-77798796D01*
X156201227Y-77795196D01*
X156177428Y-77789235D01*
X156154329Y-77780970D01*
X156132150Y-77770480D01*
X156111107Y-77757868D01*
X156091401Y-77743253D01*
X156073223Y-77726777D01*
X156056747Y-77708599D01*
X156042132Y-77688893D01*
X156029520Y-77667850D01*
X156019030Y-77645671D01*
X156010765Y-77622572D01*
X156004804Y-77598773D01*
X156001204Y-77574505D01*
X156000000Y-77550001D01*
X156000000Y-76649999D01*
X156001204Y-76625495D01*
X156004804Y-76601227D01*
X156010765Y-76577428D01*
X156019030Y-76554329D01*
X156029520Y-76532150D01*
X156042132Y-76511107D01*
X156056747Y-76491401D01*
X156073223Y-76473223D01*
X156091401Y-76456747D01*
X156111107Y-76442132D01*
X156132150Y-76429520D01*
X156154329Y-76419030D01*
X156177428Y-76410765D01*
X156201227Y-76404804D01*
X156225495Y-76401204D01*
X156249999Y-76400000D01*
X156900001Y-76400000D01*
X156924505Y-76401204D01*
X156924505Y-76401204D01*
G37*
D17*
X156575000Y-77100000D03*
D10*
G36*
X158974505Y-76401204D02*
X158998773Y-76404804D01*
X159022572Y-76410765D01*
X159045671Y-76419030D01*
X159067850Y-76429520D01*
X159088893Y-76442132D01*
X159108599Y-76456747D01*
X159126777Y-76473223D01*
X159143253Y-76491401D01*
X159157868Y-76511107D01*
X159170480Y-76532150D01*
X159180970Y-76554329D01*
X159189235Y-76577428D01*
X159195196Y-76601227D01*
X159198796Y-76625495D01*
X159200000Y-76649999D01*
X159200000Y-77550001D01*
X159198796Y-77574505D01*
X159195196Y-77598773D01*
X159189235Y-77622572D01*
X159180970Y-77645671D01*
X159170480Y-77667850D01*
X159157868Y-77688893D01*
X159143253Y-77708599D01*
X159126777Y-77726777D01*
X159108599Y-77743253D01*
X159088893Y-77757868D01*
X159067850Y-77770480D01*
X159045671Y-77780970D01*
X159022572Y-77789235D01*
X158998773Y-77795196D01*
X158974505Y-77798796D01*
X158950001Y-77800000D01*
X158299999Y-77800000D01*
X158275495Y-77798796D01*
X158251227Y-77795196D01*
X158227428Y-77789235D01*
X158204329Y-77780970D01*
X158182150Y-77770480D01*
X158161107Y-77757868D01*
X158141401Y-77743253D01*
X158123223Y-77726777D01*
X158106747Y-77708599D01*
X158092132Y-77688893D01*
X158079520Y-77667850D01*
X158069030Y-77645671D01*
X158060765Y-77622572D01*
X158054804Y-77598773D01*
X158051204Y-77574505D01*
X158050000Y-77550001D01*
X158050000Y-76649999D01*
X158051204Y-76625495D01*
X158054804Y-76601227D01*
X158060765Y-76577428D01*
X158069030Y-76554329D01*
X158079520Y-76532150D01*
X158092132Y-76511107D01*
X158106747Y-76491401D01*
X158123223Y-76473223D01*
X158141401Y-76456747D01*
X158161107Y-76442132D01*
X158182150Y-76429520D01*
X158204329Y-76419030D01*
X158227428Y-76410765D01*
X158251227Y-76404804D01*
X158275495Y-76401204D01*
X158299999Y-76400000D01*
X158950001Y-76400000D01*
X158974505Y-76401204D01*
X158974505Y-76401204D01*
G37*
D17*
X158625000Y-77100000D03*
G04 #@! TD*
D10*
G04 #@! TO.C,R5*
G36*
X179124505Y-86751204D02*
X179148773Y-86754804D01*
X179172572Y-86760765D01*
X179195671Y-86769030D01*
X179217850Y-86779520D01*
X179238893Y-86792132D01*
X179258599Y-86806747D01*
X179276777Y-86823223D01*
X179293253Y-86841401D01*
X179307868Y-86861107D01*
X179320480Y-86882150D01*
X179330970Y-86904329D01*
X179339235Y-86927428D01*
X179345196Y-86951227D01*
X179348796Y-86975495D01*
X179350000Y-86999999D01*
X179350000Y-87650001D01*
X179348796Y-87674505D01*
X179345196Y-87698773D01*
X179339235Y-87722572D01*
X179330970Y-87745671D01*
X179320480Y-87767850D01*
X179307868Y-87788893D01*
X179293253Y-87808599D01*
X179276777Y-87826777D01*
X179258599Y-87843253D01*
X179238893Y-87857868D01*
X179217850Y-87870480D01*
X179195671Y-87880970D01*
X179172572Y-87889235D01*
X179148773Y-87895196D01*
X179124505Y-87898796D01*
X179100001Y-87900000D01*
X178199999Y-87900000D01*
X178175495Y-87898796D01*
X178151227Y-87895196D01*
X178127428Y-87889235D01*
X178104329Y-87880970D01*
X178082150Y-87870480D01*
X178061107Y-87857868D01*
X178041401Y-87843253D01*
X178023223Y-87826777D01*
X178006747Y-87808599D01*
X177992132Y-87788893D01*
X177979520Y-87767850D01*
X177969030Y-87745671D01*
X177960765Y-87722572D01*
X177954804Y-87698773D01*
X177951204Y-87674505D01*
X177950000Y-87650001D01*
X177950000Y-86999999D01*
X177951204Y-86975495D01*
X177954804Y-86951227D01*
X177960765Y-86927428D01*
X177969030Y-86904329D01*
X177979520Y-86882150D01*
X177992132Y-86861107D01*
X178006747Y-86841401D01*
X178023223Y-86823223D01*
X178041401Y-86806747D01*
X178061107Y-86792132D01*
X178082150Y-86779520D01*
X178104329Y-86769030D01*
X178127428Y-86760765D01*
X178151227Y-86754804D01*
X178175495Y-86751204D01*
X178199999Y-86750000D01*
X179100001Y-86750000D01*
X179124505Y-86751204D01*
X179124505Y-86751204D01*
G37*
D17*
X178650000Y-87325000D03*
D10*
G36*
X179124505Y-88801204D02*
X179148773Y-88804804D01*
X179172572Y-88810765D01*
X179195671Y-88819030D01*
X179217850Y-88829520D01*
X179238893Y-88842132D01*
X179258599Y-88856747D01*
X179276777Y-88873223D01*
X179293253Y-88891401D01*
X179307868Y-88911107D01*
X179320480Y-88932150D01*
X179330970Y-88954329D01*
X179339235Y-88977428D01*
X179345196Y-89001227D01*
X179348796Y-89025495D01*
X179350000Y-89049999D01*
X179350000Y-89700001D01*
X179348796Y-89724505D01*
X179345196Y-89748773D01*
X179339235Y-89772572D01*
X179330970Y-89795671D01*
X179320480Y-89817850D01*
X179307868Y-89838893D01*
X179293253Y-89858599D01*
X179276777Y-89876777D01*
X179258599Y-89893253D01*
X179238893Y-89907868D01*
X179217850Y-89920480D01*
X179195671Y-89930970D01*
X179172572Y-89939235D01*
X179148773Y-89945196D01*
X179124505Y-89948796D01*
X179100001Y-89950000D01*
X178199999Y-89950000D01*
X178175495Y-89948796D01*
X178151227Y-89945196D01*
X178127428Y-89939235D01*
X178104329Y-89930970D01*
X178082150Y-89920480D01*
X178061107Y-89907868D01*
X178041401Y-89893253D01*
X178023223Y-89876777D01*
X178006747Y-89858599D01*
X177992132Y-89838893D01*
X177979520Y-89817850D01*
X177969030Y-89795671D01*
X177960765Y-89772572D01*
X177954804Y-89748773D01*
X177951204Y-89724505D01*
X177950000Y-89700001D01*
X177950000Y-89049999D01*
X177951204Y-89025495D01*
X177954804Y-89001227D01*
X177960765Y-88977428D01*
X177969030Y-88954329D01*
X177979520Y-88932150D01*
X177992132Y-88911107D01*
X178006747Y-88891401D01*
X178023223Y-88873223D01*
X178041401Y-88856747D01*
X178061107Y-88842132D01*
X178082150Y-88829520D01*
X178104329Y-88819030D01*
X178127428Y-88810765D01*
X178151227Y-88804804D01*
X178175495Y-88801204D01*
X178199999Y-88800000D01*
X179100001Y-88800000D01*
X179124505Y-88801204D01*
X179124505Y-88801204D01*
G37*
D17*
X178650000Y-89375000D03*
G04 #@! TD*
D10*
G04 #@! TO.C,R4*
G36*
X165828505Y-83999204D02*
X165852773Y-84002804D01*
X165876572Y-84008765D01*
X165899671Y-84017030D01*
X165921850Y-84027520D01*
X165942893Y-84040132D01*
X165962599Y-84054747D01*
X165980777Y-84071223D01*
X165997253Y-84089401D01*
X166011868Y-84109107D01*
X166024480Y-84130150D01*
X166034970Y-84152329D01*
X166043235Y-84175428D01*
X166049196Y-84199227D01*
X166052796Y-84223495D01*
X166054000Y-84247999D01*
X166054000Y-84898001D01*
X166052796Y-84922505D01*
X166049196Y-84946773D01*
X166043235Y-84970572D01*
X166034970Y-84993671D01*
X166024480Y-85015850D01*
X166011868Y-85036893D01*
X165997253Y-85056599D01*
X165980777Y-85074777D01*
X165962599Y-85091253D01*
X165942893Y-85105868D01*
X165921850Y-85118480D01*
X165899671Y-85128970D01*
X165876572Y-85137235D01*
X165852773Y-85143196D01*
X165828505Y-85146796D01*
X165804001Y-85148000D01*
X164903999Y-85148000D01*
X164879495Y-85146796D01*
X164855227Y-85143196D01*
X164831428Y-85137235D01*
X164808329Y-85128970D01*
X164786150Y-85118480D01*
X164765107Y-85105868D01*
X164745401Y-85091253D01*
X164727223Y-85074777D01*
X164710747Y-85056599D01*
X164696132Y-85036893D01*
X164683520Y-85015850D01*
X164673030Y-84993671D01*
X164664765Y-84970572D01*
X164658804Y-84946773D01*
X164655204Y-84922505D01*
X164654000Y-84898001D01*
X164654000Y-84247999D01*
X164655204Y-84223495D01*
X164658804Y-84199227D01*
X164664765Y-84175428D01*
X164673030Y-84152329D01*
X164683520Y-84130150D01*
X164696132Y-84109107D01*
X164710747Y-84089401D01*
X164727223Y-84071223D01*
X164745401Y-84054747D01*
X164765107Y-84040132D01*
X164786150Y-84027520D01*
X164808329Y-84017030D01*
X164831428Y-84008765D01*
X164855227Y-84002804D01*
X164879495Y-83999204D01*
X164903999Y-83998000D01*
X165804001Y-83998000D01*
X165828505Y-83999204D01*
X165828505Y-83999204D01*
G37*
D17*
X165354000Y-84573000D03*
D10*
G36*
X165828505Y-86049204D02*
X165852773Y-86052804D01*
X165876572Y-86058765D01*
X165899671Y-86067030D01*
X165921850Y-86077520D01*
X165942893Y-86090132D01*
X165962599Y-86104747D01*
X165980777Y-86121223D01*
X165997253Y-86139401D01*
X166011868Y-86159107D01*
X166024480Y-86180150D01*
X166034970Y-86202329D01*
X166043235Y-86225428D01*
X166049196Y-86249227D01*
X166052796Y-86273495D01*
X166054000Y-86297999D01*
X166054000Y-86948001D01*
X166052796Y-86972505D01*
X166049196Y-86996773D01*
X166043235Y-87020572D01*
X166034970Y-87043671D01*
X166024480Y-87065850D01*
X166011868Y-87086893D01*
X165997253Y-87106599D01*
X165980777Y-87124777D01*
X165962599Y-87141253D01*
X165942893Y-87155868D01*
X165921850Y-87168480D01*
X165899671Y-87178970D01*
X165876572Y-87187235D01*
X165852773Y-87193196D01*
X165828505Y-87196796D01*
X165804001Y-87198000D01*
X164903999Y-87198000D01*
X164879495Y-87196796D01*
X164855227Y-87193196D01*
X164831428Y-87187235D01*
X164808329Y-87178970D01*
X164786150Y-87168480D01*
X164765107Y-87155868D01*
X164745401Y-87141253D01*
X164727223Y-87124777D01*
X164710747Y-87106599D01*
X164696132Y-87086893D01*
X164683520Y-87065850D01*
X164673030Y-87043671D01*
X164664765Y-87020572D01*
X164658804Y-86996773D01*
X164655204Y-86972505D01*
X164654000Y-86948001D01*
X164654000Y-86297999D01*
X164655204Y-86273495D01*
X164658804Y-86249227D01*
X164664765Y-86225428D01*
X164673030Y-86202329D01*
X164683520Y-86180150D01*
X164696132Y-86159107D01*
X164710747Y-86139401D01*
X164727223Y-86121223D01*
X164745401Y-86104747D01*
X164765107Y-86090132D01*
X164786150Y-86077520D01*
X164808329Y-86067030D01*
X164831428Y-86058765D01*
X164855227Y-86052804D01*
X164879495Y-86049204D01*
X164903999Y-86048000D01*
X165804001Y-86048000D01*
X165828505Y-86049204D01*
X165828505Y-86049204D01*
G37*
D17*
X165354000Y-86623000D03*
G04 #@! TD*
D10*
G04 #@! TO.C,R2*
G36*
X167867332Y-83747980D02*
X167891600Y-83751580D01*
X167915399Y-83757541D01*
X167938498Y-83765806D01*
X167960677Y-83776296D01*
X167981720Y-83788908D01*
X168001426Y-83803523D01*
X168019604Y-83819999D01*
X168656001Y-84456396D01*
X168672477Y-84474574D01*
X168687092Y-84494280D01*
X168699704Y-84515323D01*
X168710194Y-84537502D01*
X168718459Y-84560601D01*
X168724420Y-84584400D01*
X168728020Y-84608668D01*
X168729224Y-84633172D01*
X168728020Y-84657676D01*
X168724420Y-84681944D01*
X168718459Y-84705743D01*
X168710194Y-84728842D01*
X168699704Y-84751021D01*
X168687092Y-84772064D01*
X168672477Y-84791770D01*
X168656001Y-84809948D01*
X168196380Y-85269569D01*
X168178202Y-85286045D01*
X168158496Y-85300660D01*
X168137453Y-85313272D01*
X168115274Y-85323762D01*
X168092175Y-85332027D01*
X168068376Y-85337988D01*
X168044108Y-85341588D01*
X168019604Y-85342792D01*
X167995100Y-85341588D01*
X167970832Y-85337988D01*
X167947033Y-85332027D01*
X167923934Y-85323762D01*
X167901755Y-85313272D01*
X167880712Y-85300660D01*
X167861006Y-85286045D01*
X167842828Y-85269569D01*
X167206431Y-84633172D01*
X167189955Y-84614994D01*
X167175340Y-84595288D01*
X167162728Y-84574245D01*
X167152238Y-84552066D01*
X167143973Y-84528967D01*
X167138012Y-84505168D01*
X167134412Y-84480900D01*
X167133208Y-84456396D01*
X167134412Y-84431892D01*
X167138012Y-84407624D01*
X167143973Y-84383825D01*
X167152238Y-84360726D01*
X167162728Y-84338547D01*
X167175340Y-84317504D01*
X167189955Y-84297798D01*
X167206431Y-84279620D01*
X167666052Y-83819999D01*
X167684230Y-83803523D01*
X167703936Y-83788908D01*
X167724979Y-83776296D01*
X167747158Y-83765806D01*
X167770257Y-83757541D01*
X167794056Y-83751580D01*
X167818324Y-83747980D01*
X167842828Y-83746776D01*
X167867332Y-83747980D01*
X167867332Y-83747980D01*
G37*
D17*
X167931216Y-84544784D03*
D10*
G36*
X169316900Y-82298412D02*
X169341168Y-82302012D01*
X169364967Y-82307973D01*
X169388066Y-82316238D01*
X169410245Y-82326728D01*
X169431288Y-82339340D01*
X169450994Y-82353955D01*
X169469172Y-82370431D01*
X170105569Y-83006828D01*
X170122045Y-83025006D01*
X170136660Y-83044712D01*
X170149272Y-83065755D01*
X170159762Y-83087934D01*
X170168027Y-83111033D01*
X170173988Y-83134832D01*
X170177588Y-83159100D01*
X170178792Y-83183604D01*
X170177588Y-83208108D01*
X170173988Y-83232376D01*
X170168027Y-83256175D01*
X170159762Y-83279274D01*
X170149272Y-83301453D01*
X170136660Y-83322496D01*
X170122045Y-83342202D01*
X170105569Y-83360380D01*
X169645948Y-83820001D01*
X169627770Y-83836477D01*
X169608064Y-83851092D01*
X169587021Y-83863704D01*
X169564842Y-83874194D01*
X169541743Y-83882459D01*
X169517944Y-83888420D01*
X169493676Y-83892020D01*
X169469172Y-83893224D01*
X169444668Y-83892020D01*
X169420400Y-83888420D01*
X169396601Y-83882459D01*
X169373502Y-83874194D01*
X169351323Y-83863704D01*
X169330280Y-83851092D01*
X169310574Y-83836477D01*
X169292396Y-83820001D01*
X168655999Y-83183604D01*
X168639523Y-83165426D01*
X168624908Y-83145720D01*
X168612296Y-83124677D01*
X168601806Y-83102498D01*
X168593541Y-83079399D01*
X168587580Y-83055600D01*
X168583980Y-83031332D01*
X168582776Y-83006828D01*
X168583980Y-82982324D01*
X168587580Y-82958056D01*
X168593541Y-82934257D01*
X168601806Y-82911158D01*
X168612296Y-82888979D01*
X168624908Y-82867936D01*
X168639523Y-82848230D01*
X168655999Y-82830052D01*
X169115620Y-82370431D01*
X169133798Y-82353955D01*
X169153504Y-82339340D01*
X169174547Y-82326728D01*
X169196726Y-82316238D01*
X169219825Y-82307973D01*
X169243624Y-82302012D01*
X169267892Y-82298412D01*
X169292396Y-82297208D01*
X169316900Y-82298412D01*
X169316900Y-82298412D01*
G37*
D17*
X169380784Y-83095216D03*
G04 #@! TD*
D10*
G04 #@! TO.C,R3*
G36*
X150962505Y-100901204D02*
X150986773Y-100904804D01*
X151010572Y-100910765D01*
X151033671Y-100919030D01*
X151055850Y-100929520D01*
X151076893Y-100942132D01*
X151096599Y-100956747D01*
X151114777Y-100973223D01*
X151131253Y-100991401D01*
X151145868Y-101011107D01*
X151158480Y-101032150D01*
X151168970Y-101054329D01*
X151177235Y-101077428D01*
X151183196Y-101101227D01*
X151186796Y-101125495D01*
X151188000Y-101149999D01*
X151188000Y-102050001D01*
X151186796Y-102074505D01*
X151183196Y-102098773D01*
X151177235Y-102122572D01*
X151168970Y-102145671D01*
X151158480Y-102167850D01*
X151145868Y-102188893D01*
X151131253Y-102208599D01*
X151114777Y-102226777D01*
X151096599Y-102243253D01*
X151076893Y-102257868D01*
X151055850Y-102270480D01*
X151033671Y-102280970D01*
X151010572Y-102289235D01*
X150986773Y-102295196D01*
X150962505Y-102298796D01*
X150938001Y-102300000D01*
X150287999Y-102300000D01*
X150263495Y-102298796D01*
X150239227Y-102295196D01*
X150215428Y-102289235D01*
X150192329Y-102280970D01*
X150170150Y-102270480D01*
X150149107Y-102257868D01*
X150129401Y-102243253D01*
X150111223Y-102226777D01*
X150094747Y-102208599D01*
X150080132Y-102188893D01*
X150067520Y-102167850D01*
X150057030Y-102145671D01*
X150048765Y-102122572D01*
X150042804Y-102098773D01*
X150039204Y-102074505D01*
X150038000Y-102050001D01*
X150038000Y-101149999D01*
X150039204Y-101125495D01*
X150042804Y-101101227D01*
X150048765Y-101077428D01*
X150057030Y-101054329D01*
X150067520Y-101032150D01*
X150080132Y-101011107D01*
X150094747Y-100991401D01*
X150111223Y-100973223D01*
X150129401Y-100956747D01*
X150149107Y-100942132D01*
X150170150Y-100929520D01*
X150192329Y-100919030D01*
X150215428Y-100910765D01*
X150239227Y-100904804D01*
X150263495Y-100901204D01*
X150287999Y-100900000D01*
X150938001Y-100900000D01*
X150962505Y-100901204D01*
X150962505Y-100901204D01*
G37*
D17*
X150613000Y-101600000D03*
D10*
G36*
X153012505Y-100901204D02*
X153036773Y-100904804D01*
X153060572Y-100910765D01*
X153083671Y-100919030D01*
X153105850Y-100929520D01*
X153126893Y-100942132D01*
X153146599Y-100956747D01*
X153164777Y-100973223D01*
X153181253Y-100991401D01*
X153195868Y-101011107D01*
X153208480Y-101032150D01*
X153218970Y-101054329D01*
X153227235Y-101077428D01*
X153233196Y-101101227D01*
X153236796Y-101125495D01*
X153238000Y-101149999D01*
X153238000Y-102050001D01*
X153236796Y-102074505D01*
X153233196Y-102098773D01*
X153227235Y-102122572D01*
X153218970Y-102145671D01*
X153208480Y-102167850D01*
X153195868Y-102188893D01*
X153181253Y-102208599D01*
X153164777Y-102226777D01*
X153146599Y-102243253D01*
X153126893Y-102257868D01*
X153105850Y-102270480D01*
X153083671Y-102280970D01*
X153060572Y-102289235D01*
X153036773Y-102295196D01*
X153012505Y-102298796D01*
X152988001Y-102300000D01*
X152337999Y-102300000D01*
X152313495Y-102298796D01*
X152289227Y-102295196D01*
X152265428Y-102289235D01*
X152242329Y-102280970D01*
X152220150Y-102270480D01*
X152199107Y-102257868D01*
X152179401Y-102243253D01*
X152161223Y-102226777D01*
X152144747Y-102208599D01*
X152130132Y-102188893D01*
X152117520Y-102167850D01*
X152107030Y-102145671D01*
X152098765Y-102122572D01*
X152092804Y-102098773D01*
X152089204Y-102074505D01*
X152088000Y-102050001D01*
X152088000Y-101149999D01*
X152089204Y-101125495D01*
X152092804Y-101101227D01*
X152098765Y-101077428D01*
X152107030Y-101054329D01*
X152117520Y-101032150D01*
X152130132Y-101011107D01*
X152144747Y-100991401D01*
X152161223Y-100973223D01*
X152179401Y-100956747D01*
X152199107Y-100942132D01*
X152220150Y-100929520D01*
X152242329Y-100919030D01*
X152265428Y-100910765D01*
X152289227Y-100904804D01*
X152313495Y-100901204D01*
X152337999Y-100900000D01*
X152988001Y-100900000D01*
X153012505Y-100901204D01*
X153012505Y-100901204D01*
G37*
D17*
X152663000Y-101600000D03*
G04 #@! TD*
D10*
G04 #@! TO.C,C3*
G36*
X163342642Y-95313174D02*
X163366303Y-95316684D01*
X163389507Y-95322496D01*
X163412029Y-95330554D01*
X163433653Y-95340782D01*
X163454170Y-95353079D01*
X163473383Y-95367329D01*
X163491107Y-95383393D01*
X163507171Y-95401117D01*
X163521421Y-95420330D01*
X163533718Y-95440847D01*
X163543946Y-95462471D01*
X163552004Y-95484993D01*
X163557816Y-95508197D01*
X163561326Y-95531858D01*
X163562500Y-95555750D01*
X163562500Y-96468250D01*
X163561326Y-96492142D01*
X163557816Y-96515803D01*
X163552004Y-96539007D01*
X163543946Y-96561529D01*
X163533718Y-96583153D01*
X163521421Y-96603670D01*
X163507171Y-96622883D01*
X163491107Y-96640607D01*
X163473383Y-96656671D01*
X163454170Y-96670921D01*
X163433653Y-96683218D01*
X163412029Y-96693446D01*
X163389507Y-96701504D01*
X163366303Y-96707316D01*
X163342642Y-96710826D01*
X163318750Y-96712000D01*
X162831250Y-96712000D01*
X162807358Y-96710826D01*
X162783697Y-96707316D01*
X162760493Y-96701504D01*
X162737971Y-96693446D01*
X162716347Y-96683218D01*
X162695830Y-96670921D01*
X162676617Y-96656671D01*
X162658893Y-96640607D01*
X162642829Y-96622883D01*
X162628579Y-96603670D01*
X162616282Y-96583153D01*
X162606054Y-96561529D01*
X162597996Y-96539007D01*
X162592184Y-96515803D01*
X162588674Y-96492142D01*
X162587500Y-96468250D01*
X162587500Y-95555750D01*
X162588674Y-95531858D01*
X162592184Y-95508197D01*
X162597996Y-95484993D01*
X162606054Y-95462471D01*
X162616282Y-95440847D01*
X162628579Y-95420330D01*
X162642829Y-95401117D01*
X162658893Y-95383393D01*
X162676617Y-95367329D01*
X162695830Y-95353079D01*
X162716347Y-95340782D01*
X162737971Y-95330554D01*
X162760493Y-95322496D01*
X162783697Y-95316684D01*
X162807358Y-95313174D01*
X162831250Y-95312000D01*
X163318750Y-95312000D01*
X163342642Y-95313174D01*
X163342642Y-95313174D01*
G37*
D18*
X163075000Y-96012000D03*
D10*
G36*
X161467642Y-95313174D02*
X161491303Y-95316684D01*
X161514507Y-95322496D01*
X161537029Y-95330554D01*
X161558653Y-95340782D01*
X161579170Y-95353079D01*
X161598383Y-95367329D01*
X161616107Y-95383393D01*
X161632171Y-95401117D01*
X161646421Y-95420330D01*
X161658718Y-95440847D01*
X161668946Y-95462471D01*
X161677004Y-95484993D01*
X161682816Y-95508197D01*
X161686326Y-95531858D01*
X161687500Y-95555750D01*
X161687500Y-96468250D01*
X161686326Y-96492142D01*
X161682816Y-96515803D01*
X161677004Y-96539007D01*
X161668946Y-96561529D01*
X161658718Y-96583153D01*
X161646421Y-96603670D01*
X161632171Y-96622883D01*
X161616107Y-96640607D01*
X161598383Y-96656671D01*
X161579170Y-96670921D01*
X161558653Y-96683218D01*
X161537029Y-96693446D01*
X161514507Y-96701504D01*
X161491303Y-96707316D01*
X161467642Y-96710826D01*
X161443750Y-96712000D01*
X160956250Y-96712000D01*
X160932358Y-96710826D01*
X160908697Y-96707316D01*
X160885493Y-96701504D01*
X160862971Y-96693446D01*
X160841347Y-96683218D01*
X160820830Y-96670921D01*
X160801617Y-96656671D01*
X160783893Y-96640607D01*
X160767829Y-96622883D01*
X160753579Y-96603670D01*
X160741282Y-96583153D01*
X160731054Y-96561529D01*
X160722996Y-96539007D01*
X160717184Y-96515803D01*
X160713674Y-96492142D01*
X160712500Y-96468250D01*
X160712500Y-95555750D01*
X160713674Y-95531858D01*
X160717184Y-95508197D01*
X160722996Y-95484993D01*
X160731054Y-95462471D01*
X160741282Y-95440847D01*
X160753579Y-95420330D01*
X160767829Y-95401117D01*
X160783893Y-95383393D01*
X160801617Y-95367329D01*
X160820830Y-95353079D01*
X160841347Y-95340782D01*
X160862971Y-95330554D01*
X160885493Y-95322496D01*
X160908697Y-95316684D01*
X160932358Y-95313174D01*
X160956250Y-95312000D01*
X161443750Y-95312000D01*
X161467642Y-95313174D01*
X161467642Y-95313174D01*
G37*
D18*
X161200000Y-96012000D03*
G04 #@! TD*
D10*
G04 #@! TO.C,C2*
G36*
X161008719Y-75871362D02*
X161032380Y-75874872D01*
X161055584Y-75880684D01*
X161078106Y-75888742D01*
X161099730Y-75898970D01*
X161120247Y-75911267D01*
X161139460Y-75925517D01*
X161157184Y-75941581D01*
X161802419Y-76586816D01*
X161818483Y-76604540D01*
X161832733Y-76623753D01*
X161845030Y-76644270D01*
X161855258Y-76665894D01*
X161863316Y-76688416D01*
X161869128Y-76711620D01*
X161872638Y-76735281D01*
X161873812Y-76759173D01*
X161872638Y-76783065D01*
X161869128Y-76806726D01*
X161863316Y-76829930D01*
X161855258Y-76852452D01*
X161845030Y-76874076D01*
X161832733Y-76894593D01*
X161818483Y-76913806D01*
X161802419Y-76931530D01*
X161457704Y-77276245D01*
X161439980Y-77292309D01*
X161420767Y-77306559D01*
X161400250Y-77318856D01*
X161378626Y-77329084D01*
X161356104Y-77337142D01*
X161332900Y-77342954D01*
X161309239Y-77346464D01*
X161285347Y-77347638D01*
X161261455Y-77346464D01*
X161237794Y-77342954D01*
X161214590Y-77337142D01*
X161192068Y-77329084D01*
X161170444Y-77318856D01*
X161149927Y-77306559D01*
X161130714Y-77292309D01*
X161112990Y-77276245D01*
X160467755Y-76631010D01*
X160451691Y-76613286D01*
X160437441Y-76594073D01*
X160425144Y-76573556D01*
X160414916Y-76551932D01*
X160406858Y-76529410D01*
X160401046Y-76506206D01*
X160397536Y-76482545D01*
X160396362Y-76458653D01*
X160397536Y-76434761D01*
X160401046Y-76411100D01*
X160406858Y-76387896D01*
X160414916Y-76365374D01*
X160425144Y-76343750D01*
X160437441Y-76323233D01*
X160451691Y-76304020D01*
X160467755Y-76286296D01*
X160812470Y-75941581D01*
X160830194Y-75925517D01*
X160849407Y-75911267D01*
X160869924Y-75898970D01*
X160891548Y-75888742D01*
X160914070Y-75880684D01*
X160937274Y-75874872D01*
X160960935Y-75871362D01*
X160984827Y-75870188D01*
X161008719Y-75871362D01*
X161008719Y-75871362D01*
G37*
D18*
X161135087Y-76608913D03*
D10*
G36*
X162334545Y-74545536D02*
X162358206Y-74549046D01*
X162381410Y-74554858D01*
X162403932Y-74562916D01*
X162425556Y-74573144D01*
X162446073Y-74585441D01*
X162465286Y-74599691D01*
X162483010Y-74615755D01*
X163128245Y-75260990D01*
X163144309Y-75278714D01*
X163158559Y-75297927D01*
X163170856Y-75318444D01*
X163181084Y-75340068D01*
X163189142Y-75362590D01*
X163194954Y-75385794D01*
X163198464Y-75409455D01*
X163199638Y-75433347D01*
X163198464Y-75457239D01*
X163194954Y-75480900D01*
X163189142Y-75504104D01*
X163181084Y-75526626D01*
X163170856Y-75548250D01*
X163158559Y-75568767D01*
X163144309Y-75587980D01*
X163128245Y-75605704D01*
X162783530Y-75950419D01*
X162765806Y-75966483D01*
X162746593Y-75980733D01*
X162726076Y-75993030D01*
X162704452Y-76003258D01*
X162681930Y-76011316D01*
X162658726Y-76017128D01*
X162635065Y-76020638D01*
X162611173Y-76021812D01*
X162587281Y-76020638D01*
X162563620Y-76017128D01*
X162540416Y-76011316D01*
X162517894Y-76003258D01*
X162496270Y-75993030D01*
X162475753Y-75980733D01*
X162456540Y-75966483D01*
X162438816Y-75950419D01*
X161793581Y-75305184D01*
X161777517Y-75287460D01*
X161763267Y-75268247D01*
X161750970Y-75247730D01*
X161740742Y-75226106D01*
X161732684Y-75203584D01*
X161726872Y-75180380D01*
X161723362Y-75156719D01*
X161722188Y-75132827D01*
X161723362Y-75108935D01*
X161726872Y-75085274D01*
X161732684Y-75062070D01*
X161740742Y-75039548D01*
X161750970Y-75017924D01*
X161763267Y-74997407D01*
X161777517Y-74978194D01*
X161793581Y-74960470D01*
X162138296Y-74615755D01*
X162156020Y-74599691D01*
X162175233Y-74585441D01*
X162195750Y-74573144D01*
X162217374Y-74562916D01*
X162239896Y-74554858D01*
X162263100Y-74549046D01*
X162286761Y-74545536D01*
X162310653Y-74544362D01*
X162334545Y-74545536D01*
X162334545Y-74545536D01*
G37*
D18*
X162460913Y-75283087D03*
G04 #@! TD*
D10*
G04 #@! TO.C,C1*
G36*
X173454142Y-75127174D02*
X173477803Y-75130684D01*
X173501007Y-75136496D01*
X173523529Y-75144554D01*
X173545153Y-75154782D01*
X173565670Y-75167079D01*
X173584883Y-75181329D01*
X173602607Y-75197393D01*
X173618671Y-75215117D01*
X173632921Y-75234330D01*
X173645218Y-75254847D01*
X173655446Y-75276471D01*
X173663504Y-75298993D01*
X173669316Y-75322197D01*
X173672826Y-75345858D01*
X173674000Y-75369750D01*
X173674000Y-75857250D01*
X173672826Y-75881142D01*
X173669316Y-75904803D01*
X173663504Y-75928007D01*
X173655446Y-75950529D01*
X173645218Y-75972153D01*
X173632921Y-75992670D01*
X173618671Y-76011883D01*
X173602607Y-76029607D01*
X173584883Y-76045671D01*
X173565670Y-76059921D01*
X173545153Y-76072218D01*
X173523529Y-76082446D01*
X173501007Y-76090504D01*
X173477803Y-76096316D01*
X173454142Y-76099826D01*
X173430250Y-76101000D01*
X172517750Y-76101000D01*
X172493858Y-76099826D01*
X172470197Y-76096316D01*
X172446993Y-76090504D01*
X172424471Y-76082446D01*
X172402847Y-76072218D01*
X172382330Y-76059921D01*
X172363117Y-76045671D01*
X172345393Y-76029607D01*
X172329329Y-76011883D01*
X172315079Y-75992670D01*
X172302782Y-75972153D01*
X172292554Y-75950529D01*
X172284496Y-75928007D01*
X172278684Y-75904803D01*
X172275174Y-75881142D01*
X172274000Y-75857250D01*
X172274000Y-75369750D01*
X172275174Y-75345858D01*
X172278684Y-75322197D01*
X172284496Y-75298993D01*
X172292554Y-75276471D01*
X172302782Y-75254847D01*
X172315079Y-75234330D01*
X172329329Y-75215117D01*
X172345393Y-75197393D01*
X172363117Y-75181329D01*
X172382330Y-75167079D01*
X172402847Y-75154782D01*
X172424471Y-75144554D01*
X172446993Y-75136496D01*
X172470197Y-75130684D01*
X172493858Y-75127174D01*
X172517750Y-75126000D01*
X173430250Y-75126000D01*
X173454142Y-75127174D01*
X173454142Y-75127174D01*
G37*
D18*
X172974000Y-75613500D03*
D10*
G36*
X173454142Y-73252174D02*
X173477803Y-73255684D01*
X173501007Y-73261496D01*
X173523529Y-73269554D01*
X173545153Y-73279782D01*
X173565670Y-73292079D01*
X173584883Y-73306329D01*
X173602607Y-73322393D01*
X173618671Y-73340117D01*
X173632921Y-73359330D01*
X173645218Y-73379847D01*
X173655446Y-73401471D01*
X173663504Y-73423993D01*
X173669316Y-73447197D01*
X173672826Y-73470858D01*
X173674000Y-73494750D01*
X173674000Y-73982250D01*
X173672826Y-74006142D01*
X173669316Y-74029803D01*
X173663504Y-74053007D01*
X173655446Y-74075529D01*
X173645218Y-74097153D01*
X173632921Y-74117670D01*
X173618671Y-74136883D01*
X173602607Y-74154607D01*
X173584883Y-74170671D01*
X173565670Y-74184921D01*
X173545153Y-74197218D01*
X173523529Y-74207446D01*
X173501007Y-74215504D01*
X173477803Y-74221316D01*
X173454142Y-74224826D01*
X173430250Y-74226000D01*
X172517750Y-74226000D01*
X172493858Y-74224826D01*
X172470197Y-74221316D01*
X172446993Y-74215504D01*
X172424471Y-74207446D01*
X172402847Y-74197218D01*
X172382330Y-74184921D01*
X172363117Y-74170671D01*
X172345393Y-74154607D01*
X172329329Y-74136883D01*
X172315079Y-74117670D01*
X172302782Y-74097153D01*
X172292554Y-74075529D01*
X172284496Y-74053007D01*
X172278684Y-74029803D01*
X172275174Y-74006142D01*
X172274000Y-73982250D01*
X172274000Y-73494750D01*
X172275174Y-73470858D01*
X172278684Y-73447197D01*
X172284496Y-73423993D01*
X172292554Y-73401471D01*
X172302782Y-73379847D01*
X172315079Y-73359330D01*
X172329329Y-73340117D01*
X172345393Y-73322393D01*
X172363117Y-73306329D01*
X172382330Y-73292079D01*
X172402847Y-73279782D01*
X172424471Y-73269554D01*
X172446993Y-73261496D01*
X172470197Y-73255684D01*
X172493858Y-73252174D01*
X172517750Y-73251000D01*
X173430250Y-73251000D01*
X173454142Y-73252174D01*
X173454142Y-73252174D01*
G37*
D18*
X172974000Y-73738500D03*
G04 #@! TD*
D19*
G04 #@! TO.C,U1*
X142550000Y-80030000D03*
X144550000Y-80030000D03*
X146550000Y-80030000D03*
X148550000Y-80030000D03*
X150550000Y-80030000D03*
X152550000Y-80030000D03*
X154550000Y-80030000D03*
X156550000Y-80030000D03*
D20*
X158050000Y-82630000D03*
X158050000Y-84630000D03*
X158050000Y-86630000D03*
X158050000Y-88630000D03*
X158050000Y-90630000D03*
X158050000Y-92630000D03*
D19*
X156550000Y-95230000D03*
X154550000Y-95230000D03*
X152550000Y-95230000D03*
X150550000Y-95230000D03*
X148550000Y-95230000D03*
X146550000Y-95230000D03*
X144550000Y-95230000D03*
X142550000Y-95230000D03*
G04 #@! TD*
D10*
G04 #@! TO.C,R1*
G36*
X155624505Y-74201204D02*
X155648773Y-74204804D01*
X155672572Y-74210765D01*
X155695671Y-74219030D01*
X155717850Y-74229520D01*
X155738893Y-74242132D01*
X155758599Y-74256747D01*
X155776777Y-74273223D01*
X155793253Y-74291401D01*
X155807868Y-74311107D01*
X155820480Y-74332150D01*
X155830970Y-74354329D01*
X155839235Y-74377428D01*
X155845196Y-74401227D01*
X155848796Y-74425495D01*
X155850000Y-74449999D01*
X155850000Y-75350001D01*
X155848796Y-75374505D01*
X155845196Y-75398773D01*
X155839235Y-75422572D01*
X155830970Y-75445671D01*
X155820480Y-75467850D01*
X155807868Y-75488893D01*
X155793253Y-75508599D01*
X155776777Y-75526777D01*
X155758599Y-75543253D01*
X155738893Y-75557868D01*
X155717850Y-75570480D01*
X155695671Y-75580970D01*
X155672572Y-75589235D01*
X155648773Y-75595196D01*
X155624505Y-75598796D01*
X155600001Y-75600000D01*
X154949999Y-75600000D01*
X154925495Y-75598796D01*
X154901227Y-75595196D01*
X154877428Y-75589235D01*
X154854329Y-75580970D01*
X154832150Y-75570480D01*
X154811107Y-75557868D01*
X154791401Y-75543253D01*
X154773223Y-75526777D01*
X154756747Y-75508599D01*
X154742132Y-75488893D01*
X154729520Y-75467850D01*
X154719030Y-75445671D01*
X154710765Y-75422572D01*
X154704804Y-75398773D01*
X154701204Y-75374505D01*
X154700000Y-75350001D01*
X154700000Y-74449999D01*
X154701204Y-74425495D01*
X154704804Y-74401227D01*
X154710765Y-74377428D01*
X154719030Y-74354329D01*
X154729520Y-74332150D01*
X154742132Y-74311107D01*
X154756747Y-74291401D01*
X154773223Y-74273223D01*
X154791401Y-74256747D01*
X154811107Y-74242132D01*
X154832150Y-74229520D01*
X154854329Y-74219030D01*
X154877428Y-74210765D01*
X154901227Y-74204804D01*
X154925495Y-74201204D01*
X154949999Y-74200000D01*
X155600001Y-74200000D01*
X155624505Y-74201204D01*
X155624505Y-74201204D01*
G37*
D17*
X155275000Y-74900000D03*
D10*
G36*
X153574505Y-74201204D02*
X153598773Y-74204804D01*
X153622572Y-74210765D01*
X153645671Y-74219030D01*
X153667850Y-74229520D01*
X153688893Y-74242132D01*
X153708599Y-74256747D01*
X153726777Y-74273223D01*
X153743253Y-74291401D01*
X153757868Y-74311107D01*
X153770480Y-74332150D01*
X153780970Y-74354329D01*
X153789235Y-74377428D01*
X153795196Y-74401227D01*
X153798796Y-74425495D01*
X153800000Y-74449999D01*
X153800000Y-75350001D01*
X153798796Y-75374505D01*
X153795196Y-75398773D01*
X153789235Y-75422572D01*
X153780970Y-75445671D01*
X153770480Y-75467850D01*
X153757868Y-75488893D01*
X153743253Y-75508599D01*
X153726777Y-75526777D01*
X153708599Y-75543253D01*
X153688893Y-75557868D01*
X153667850Y-75570480D01*
X153645671Y-75580970D01*
X153622572Y-75589235D01*
X153598773Y-75595196D01*
X153574505Y-75598796D01*
X153550001Y-75600000D01*
X152899999Y-75600000D01*
X152875495Y-75598796D01*
X152851227Y-75595196D01*
X152827428Y-75589235D01*
X152804329Y-75580970D01*
X152782150Y-75570480D01*
X152761107Y-75557868D01*
X152741401Y-75543253D01*
X152723223Y-75526777D01*
X152706747Y-75508599D01*
X152692132Y-75488893D01*
X152679520Y-75467850D01*
X152669030Y-75445671D01*
X152660765Y-75422572D01*
X152654804Y-75398773D01*
X152651204Y-75374505D01*
X152650000Y-75350001D01*
X152650000Y-74449999D01*
X152651204Y-74425495D01*
X152654804Y-74401227D01*
X152660765Y-74377428D01*
X152669030Y-74354329D01*
X152679520Y-74332150D01*
X152692132Y-74311107D01*
X152706747Y-74291401D01*
X152723223Y-74273223D01*
X152741401Y-74256747D01*
X152761107Y-74242132D01*
X152782150Y-74229520D01*
X152804329Y-74219030D01*
X152827428Y-74210765D01*
X152851227Y-74204804D01*
X152875495Y-74201204D01*
X152899999Y-74200000D01*
X153550001Y-74200000D01*
X153574505Y-74201204D01*
X153574505Y-74201204D01*
G37*
D17*
X153225000Y-74900000D03*
G04 #@! TD*
M02*
