G04 #@! TF.GenerationSoftware,KiCad,Pcbnew,5.0.0-fee4fd1~66~ubuntu16.04.1*
G04 #@! TF.CreationDate,2018-09-18T23:27:24+02:00*
G04 #@! TF.ProjectId,iotbin,696F7462696E2E6B696361645F706362,rev?*
G04 #@! TF.SameCoordinates,Original*
G04 #@! TF.FileFunction,Other,Fab,Top*
%FSLAX46Y46*%
G04 Gerber Fmt 4.6, Leading zero omitted, Abs format (unit mm)*
G04 Created by KiCad (PCBNEW 5.0.0-fee4fd1~66~ubuntu16.04.1) date Tue Sep 18 23:27:24 2018*
%MOMM*%
%LPD*%
G01*
G04 APERTURE LIST*
%ADD10C,0.100000*%
%ADD11C,0.150000*%
%ADD12C,0.300000*%
%ADD13C,0.400000*%
%ADD14C,0.120000*%
%ADD15C,0.075000*%
%ADD16C,0.080000*%
G04 APERTURE END LIST*
D10*
D11*
X177002200Y-166007200D02*
X177002200Y-198007200D01*
X285002200Y-198007200D01*
X285002200Y-166007200D01*
X177002200Y-166007200D01*
D10*
D11*
X10000000Y-10000000D02*
X10000000Y-200007200D01*
X287002200Y-200007200D01*
X287002200Y-10000000D01*
X10000000Y-10000000D01*
D10*
D11*
X12000000Y-12000000D02*
X12000000Y-198007200D01*
X285002200Y-198007200D01*
X285002200Y-12000000D01*
X12000000Y-12000000D01*
D10*
D11*
X60000000Y-12000000D02*
X60000000Y-10000000D01*
D10*
D11*
X110000000Y-12000000D02*
X110000000Y-10000000D01*
D10*
D11*
X160000000Y-12000000D02*
X160000000Y-10000000D01*
D10*
D11*
X210000000Y-12000000D02*
X210000000Y-10000000D01*
D10*
D11*
X260000000Y-12000000D02*
X260000000Y-10000000D01*
D10*
D11*
X36065476Y-11588095D02*
X35322619Y-11588095D01*
X35694047Y-11588095D02*
X35694047Y-10288095D01*
X35570238Y-10473809D01*
X35446428Y-10597619D01*
X35322619Y-10659523D01*
D10*
D11*
X85322619Y-10411904D02*
X85384523Y-10350000D01*
X85508333Y-10288095D01*
X85817857Y-10288095D01*
X85941666Y-10350000D01*
X86003571Y-10411904D01*
X86065476Y-10535714D01*
X86065476Y-10659523D01*
X86003571Y-10845238D01*
X85260714Y-11588095D01*
X86065476Y-11588095D01*
D10*
D11*
X135260714Y-10288095D02*
X136065476Y-10288095D01*
X135632142Y-10783333D01*
X135817857Y-10783333D01*
X135941666Y-10845238D01*
X136003571Y-10907142D01*
X136065476Y-11030952D01*
X136065476Y-11340476D01*
X136003571Y-11464285D01*
X135941666Y-11526190D01*
X135817857Y-11588095D01*
X135446428Y-11588095D01*
X135322619Y-11526190D01*
X135260714Y-11464285D01*
D10*
D11*
X185941666Y-10721428D02*
X185941666Y-11588095D01*
X185632142Y-10226190D02*
X185322619Y-11154761D01*
X186127380Y-11154761D01*
D10*
D11*
X236003571Y-10288095D02*
X235384523Y-10288095D01*
X235322619Y-10907142D01*
X235384523Y-10845238D01*
X235508333Y-10783333D01*
X235817857Y-10783333D01*
X235941666Y-10845238D01*
X236003571Y-10907142D01*
X236065476Y-11030952D01*
X236065476Y-11340476D01*
X236003571Y-11464285D01*
X235941666Y-11526190D01*
X235817857Y-11588095D01*
X235508333Y-11588095D01*
X235384523Y-11526190D01*
X235322619Y-11464285D01*
D10*
D11*
X285941666Y-10288095D02*
X285694047Y-10288095D01*
X285570238Y-10350000D01*
X285508333Y-10411904D01*
X285384523Y-10597619D01*
X285322619Y-10845238D01*
X285322619Y-11340476D01*
X285384523Y-11464285D01*
X285446428Y-11526190D01*
X285570238Y-11588095D01*
X285817857Y-11588095D01*
X285941666Y-11526190D01*
X286003571Y-11464285D01*
X286065476Y-11340476D01*
X286065476Y-11030952D01*
X286003571Y-10907142D01*
X285941666Y-10845238D01*
X285817857Y-10783333D01*
X285570238Y-10783333D01*
X285446428Y-10845238D01*
X285384523Y-10907142D01*
X285322619Y-11030952D01*
D10*
D11*
X60000000Y-198007200D02*
X60000000Y-200007200D01*
D10*
D11*
X110000000Y-198007200D02*
X110000000Y-200007200D01*
D10*
D11*
X160000000Y-198007200D02*
X160000000Y-200007200D01*
D10*
D11*
X210000000Y-198007200D02*
X210000000Y-200007200D01*
D10*
D11*
X260000000Y-198007200D02*
X260000000Y-200007200D01*
D10*
D11*
X36065476Y-199595295D02*
X35322619Y-199595295D01*
X35694047Y-199595295D02*
X35694047Y-198295295D01*
X35570238Y-198481009D01*
X35446428Y-198604819D01*
X35322619Y-198666723D01*
D10*
D11*
X85322619Y-198419104D02*
X85384523Y-198357200D01*
X85508333Y-198295295D01*
X85817857Y-198295295D01*
X85941666Y-198357200D01*
X86003571Y-198419104D01*
X86065476Y-198542914D01*
X86065476Y-198666723D01*
X86003571Y-198852438D01*
X85260714Y-199595295D01*
X86065476Y-199595295D01*
D10*
D11*
X135260714Y-198295295D02*
X136065476Y-198295295D01*
X135632142Y-198790533D01*
X135817857Y-198790533D01*
X135941666Y-198852438D01*
X136003571Y-198914342D01*
X136065476Y-199038152D01*
X136065476Y-199347676D01*
X136003571Y-199471485D01*
X135941666Y-199533390D01*
X135817857Y-199595295D01*
X135446428Y-199595295D01*
X135322619Y-199533390D01*
X135260714Y-199471485D01*
D10*
D11*
X185941666Y-198728628D02*
X185941666Y-199595295D01*
X185632142Y-198233390D02*
X185322619Y-199161961D01*
X186127380Y-199161961D01*
D10*
D11*
X236003571Y-198295295D02*
X235384523Y-198295295D01*
X235322619Y-198914342D01*
X235384523Y-198852438D01*
X235508333Y-198790533D01*
X235817857Y-198790533D01*
X235941666Y-198852438D01*
X236003571Y-198914342D01*
X236065476Y-199038152D01*
X236065476Y-199347676D01*
X236003571Y-199471485D01*
X235941666Y-199533390D01*
X235817857Y-199595295D01*
X235508333Y-199595295D01*
X235384523Y-199533390D01*
X235322619Y-199471485D01*
D10*
D11*
X285941666Y-198295295D02*
X285694047Y-198295295D01*
X285570238Y-198357200D01*
X285508333Y-198419104D01*
X285384523Y-198604819D01*
X285322619Y-198852438D01*
X285322619Y-199347676D01*
X285384523Y-199471485D01*
X285446428Y-199533390D01*
X285570238Y-199595295D01*
X285817857Y-199595295D01*
X285941666Y-199533390D01*
X286003571Y-199471485D01*
X286065476Y-199347676D01*
X286065476Y-199038152D01*
X286003571Y-198914342D01*
X285941666Y-198852438D01*
X285817857Y-198790533D01*
X285570238Y-198790533D01*
X285446428Y-198852438D01*
X285384523Y-198914342D01*
X285322619Y-199038152D01*
D10*
D11*
X10000000Y-60000000D02*
X12000000Y-60000000D01*
D10*
D11*
X10000000Y-110000000D02*
X12000000Y-110000000D01*
D10*
D11*
X10000000Y-160000000D02*
X12000000Y-160000000D01*
D10*
D11*
X10690476Y-35216666D02*
X11309523Y-35216666D01*
X10566666Y-35588095D02*
X11000000Y-34288095D01*
X11433333Y-35588095D01*
D10*
D11*
X11092857Y-84907142D02*
X11278571Y-84969047D01*
X11340476Y-85030952D01*
X11402380Y-85154761D01*
X11402380Y-85340476D01*
X11340476Y-85464285D01*
X11278571Y-85526190D01*
X11154761Y-85588095D01*
X10659523Y-85588095D01*
X10659523Y-84288095D01*
X11092857Y-84288095D01*
X11216666Y-84350000D01*
X11278571Y-84411904D01*
X11340476Y-84535714D01*
X11340476Y-84659523D01*
X11278571Y-84783333D01*
X11216666Y-84845238D01*
X11092857Y-84907142D01*
X10659523Y-84907142D01*
D10*
D11*
X11402380Y-135464285D02*
X11340476Y-135526190D01*
X11154761Y-135588095D01*
X11030952Y-135588095D01*
X10845238Y-135526190D01*
X10721428Y-135402380D01*
X10659523Y-135278571D01*
X10597619Y-135030952D01*
X10597619Y-134845238D01*
X10659523Y-134597619D01*
X10721428Y-134473809D01*
X10845238Y-134350000D01*
X11030952Y-134288095D01*
X11154761Y-134288095D01*
X11340476Y-134350000D01*
X11402380Y-134411904D01*
D10*
D11*
X10659523Y-185588095D02*
X10659523Y-184288095D01*
X10969047Y-184288095D01*
X11154761Y-184350000D01*
X11278571Y-184473809D01*
X11340476Y-184597619D01*
X11402380Y-184845238D01*
X11402380Y-185030952D01*
X11340476Y-185278571D01*
X11278571Y-185402380D01*
X11154761Y-185526190D01*
X10969047Y-185588095D01*
X10659523Y-185588095D01*
D10*
D11*
X287002200Y-60000000D02*
X285002200Y-60000000D01*
D10*
D11*
X287002200Y-110000000D02*
X285002200Y-110000000D01*
D10*
D11*
X287002200Y-160000000D02*
X285002200Y-160000000D01*
D10*
D11*
X285692676Y-35216666D02*
X286311723Y-35216666D01*
X285568866Y-35588095D02*
X286002200Y-34288095D01*
X286435533Y-35588095D01*
D10*
D11*
X286095057Y-84907142D02*
X286280771Y-84969047D01*
X286342676Y-85030952D01*
X286404580Y-85154761D01*
X286404580Y-85340476D01*
X286342676Y-85464285D01*
X286280771Y-85526190D01*
X286156961Y-85588095D01*
X285661723Y-85588095D01*
X285661723Y-84288095D01*
X286095057Y-84288095D01*
X286218866Y-84350000D01*
X286280771Y-84411904D01*
X286342676Y-84535714D01*
X286342676Y-84659523D01*
X286280771Y-84783333D01*
X286218866Y-84845238D01*
X286095057Y-84907142D01*
X285661723Y-84907142D01*
D10*
D11*
X286404580Y-135464285D02*
X286342676Y-135526190D01*
X286156961Y-135588095D01*
X286033152Y-135588095D01*
X285847438Y-135526190D01*
X285723628Y-135402380D01*
X285661723Y-135278571D01*
X285599819Y-135030952D01*
X285599819Y-134845238D01*
X285661723Y-134597619D01*
X285723628Y-134473809D01*
X285847438Y-134350000D01*
X286033152Y-134288095D01*
X286156961Y-134288095D01*
X286342676Y-134350000D01*
X286404580Y-134411904D01*
D10*
D11*
X285661723Y-185588095D02*
X285661723Y-184288095D01*
X285971247Y-184288095D01*
X286156961Y-184350000D01*
X286280771Y-184473809D01*
X286342676Y-184597619D01*
X286404580Y-184845238D01*
X286404580Y-185030952D01*
X286342676Y-185278571D01*
X286280771Y-185402380D01*
X286156961Y-185526190D01*
X285971247Y-185588095D01*
X285661723Y-185588095D01*
D10*
D11*
X200434342Y-193785771D02*
X200434342Y-192285771D01*
X200791485Y-192285771D01*
X201005771Y-192357200D01*
X201148628Y-192500057D01*
X201220057Y-192642914D01*
X201291485Y-192928628D01*
X201291485Y-193142914D01*
X201220057Y-193428628D01*
X201148628Y-193571485D01*
X201005771Y-193714342D01*
X200791485Y-193785771D01*
X200434342Y-193785771D01*
X202577200Y-193785771D02*
X202577200Y-193000057D01*
X202505771Y-192857200D01*
X202362914Y-192785771D01*
X202077200Y-192785771D01*
X201934342Y-192857200D01*
X202577200Y-193714342D02*
X202434342Y-193785771D01*
X202077200Y-193785771D01*
X201934342Y-193714342D01*
X201862914Y-193571485D01*
X201862914Y-193428628D01*
X201934342Y-193285771D01*
X202077200Y-193214342D01*
X202434342Y-193214342D01*
X202577200Y-193142914D01*
X203077200Y-192785771D02*
X203648628Y-192785771D01*
X203291485Y-192285771D02*
X203291485Y-193571485D01*
X203362914Y-193714342D01*
X203505771Y-193785771D01*
X203648628Y-193785771D01*
X204720057Y-193714342D02*
X204577200Y-193785771D01*
X204291485Y-193785771D01*
X204148628Y-193714342D01*
X204077200Y-193571485D01*
X204077200Y-193000057D01*
X204148628Y-192857200D01*
X204291485Y-192785771D01*
X204577200Y-192785771D01*
X204720057Y-192857200D01*
X204791485Y-193000057D01*
X204791485Y-193142914D01*
X204077200Y-193285771D01*
X205434342Y-193642914D02*
X205505771Y-193714342D01*
X205434342Y-193785771D01*
X205362914Y-193714342D01*
X205434342Y-193642914D01*
X205434342Y-193785771D01*
X205434342Y-192857200D02*
X205505771Y-192928628D01*
X205434342Y-193000057D01*
X205362914Y-192928628D01*
X205434342Y-192857200D01*
X205434342Y-193000057D01*
D10*
D11*
X177002200Y-194507200D02*
X285002200Y-194507200D01*
D10*
D11*
X178434342Y-196585771D02*
X178434342Y-195085771D01*
X179291485Y-196585771D02*
X178648628Y-195728628D01*
X179291485Y-195085771D02*
X178434342Y-195942914D01*
X179934342Y-196585771D02*
X179934342Y-195585771D01*
X179934342Y-195085771D02*
X179862914Y-195157200D01*
X179934342Y-195228628D01*
X180005771Y-195157200D01*
X179934342Y-195085771D01*
X179934342Y-195228628D01*
X181505771Y-196442914D02*
X181434342Y-196514342D01*
X181220057Y-196585771D01*
X181077200Y-196585771D01*
X180862914Y-196514342D01*
X180720057Y-196371485D01*
X180648628Y-196228628D01*
X180577200Y-195942914D01*
X180577200Y-195728628D01*
X180648628Y-195442914D01*
X180720057Y-195300057D01*
X180862914Y-195157200D01*
X181077200Y-195085771D01*
X181220057Y-195085771D01*
X181434342Y-195157200D01*
X181505771Y-195228628D01*
X182791485Y-196585771D02*
X182791485Y-195800057D01*
X182720057Y-195657200D01*
X182577200Y-195585771D01*
X182291485Y-195585771D01*
X182148628Y-195657200D01*
X182791485Y-196514342D02*
X182648628Y-196585771D01*
X182291485Y-196585771D01*
X182148628Y-196514342D01*
X182077200Y-196371485D01*
X182077200Y-196228628D01*
X182148628Y-196085771D01*
X182291485Y-196014342D01*
X182648628Y-196014342D01*
X182791485Y-195942914D01*
X184148628Y-196585771D02*
X184148628Y-195085771D01*
X184148628Y-196514342D02*
X184005771Y-196585771D01*
X183720057Y-196585771D01*
X183577200Y-196514342D01*
X183505771Y-196442914D01*
X183434342Y-196300057D01*
X183434342Y-195871485D01*
X183505771Y-195728628D01*
X183577200Y-195657200D01*
X183720057Y-195585771D01*
X184005771Y-195585771D01*
X184148628Y-195657200D01*
X186005771Y-195800057D02*
X186505771Y-195800057D01*
X186720057Y-196585771D02*
X186005771Y-196585771D01*
X186005771Y-195085771D01*
X186720057Y-195085771D01*
X187362914Y-196442914D02*
X187434342Y-196514342D01*
X187362914Y-196585771D01*
X187291485Y-196514342D01*
X187362914Y-196442914D01*
X187362914Y-196585771D01*
X188077200Y-196585771D02*
X188077200Y-195085771D01*
X188434342Y-195085771D01*
X188648628Y-195157200D01*
X188791485Y-195300057D01*
X188862914Y-195442914D01*
X188934342Y-195728628D01*
X188934342Y-195942914D01*
X188862914Y-196228628D01*
X188791485Y-196371485D01*
X188648628Y-196514342D01*
X188434342Y-196585771D01*
X188077200Y-196585771D01*
X189577200Y-196442914D02*
X189648628Y-196514342D01*
X189577200Y-196585771D01*
X189505771Y-196514342D01*
X189577200Y-196442914D01*
X189577200Y-196585771D01*
X190220057Y-196157200D02*
X190934342Y-196157200D01*
X190077200Y-196585771D02*
X190577200Y-195085771D01*
X191077200Y-196585771D01*
X191577200Y-196442914D02*
X191648628Y-196514342D01*
X191577200Y-196585771D01*
X191505771Y-196514342D01*
X191577200Y-196442914D01*
X191577200Y-196585771D01*
X194577200Y-196585771D02*
X194577200Y-195085771D01*
X194720057Y-196014342D02*
X195148628Y-196585771D01*
X195148628Y-195585771D02*
X194577200Y-196157200D01*
X195791485Y-196585771D02*
X195791485Y-195585771D01*
X195791485Y-195085771D02*
X195720057Y-195157200D01*
X195791485Y-195228628D01*
X195862914Y-195157200D01*
X195791485Y-195085771D01*
X195791485Y-195228628D01*
X197148628Y-196514342D02*
X197005771Y-196585771D01*
X196720057Y-196585771D01*
X196577200Y-196514342D01*
X196505771Y-196442914D01*
X196434342Y-196300057D01*
X196434342Y-195871485D01*
X196505771Y-195728628D01*
X196577200Y-195657200D01*
X196720057Y-195585771D01*
X197005771Y-195585771D01*
X197148628Y-195657200D01*
X198434342Y-196585771D02*
X198434342Y-195800057D01*
X198362914Y-195657200D01*
X198220057Y-195585771D01*
X197934342Y-195585771D01*
X197791485Y-195657200D01*
X198434342Y-196514342D02*
X198291485Y-196585771D01*
X197934342Y-196585771D01*
X197791485Y-196514342D01*
X197720057Y-196371485D01*
X197720057Y-196228628D01*
X197791485Y-196085771D01*
X197934342Y-196014342D01*
X198291485Y-196014342D01*
X198434342Y-195942914D01*
X199791485Y-196585771D02*
X199791485Y-195085771D01*
X199791485Y-196514342D02*
X199648628Y-196585771D01*
X199362914Y-196585771D01*
X199220057Y-196514342D01*
X199148628Y-196442914D01*
X199077200Y-196300057D01*
X199077200Y-195871485D01*
X199148628Y-195728628D01*
X199220057Y-195657200D01*
X199362914Y-195585771D01*
X199648628Y-195585771D01*
X199791485Y-195657200D01*
X202362914Y-195085771D02*
X201648628Y-195085771D01*
X201577200Y-195800057D01*
X201648628Y-195728628D01*
X201791485Y-195657200D01*
X202148628Y-195657200D01*
X202291485Y-195728628D01*
X202362914Y-195800057D01*
X202434342Y-195942914D01*
X202434342Y-196300057D01*
X202362914Y-196442914D01*
X202291485Y-196514342D01*
X202148628Y-196585771D01*
X201791485Y-196585771D01*
X201648628Y-196514342D01*
X201577200Y-196442914D01*
X203077200Y-196442914D02*
X203148628Y-196514342D01*
X203077200Y-196585771D01*
X203005771Y-196514342D01*
X203077200Y-196442914D01*
X203077200Y-196585771D01*
X204077200Y-195085771D02*
X204220057Y-195085771D01*
X204362914Y-195157200D01*
X204434342Y-195228628D01*
X204505771Y-195371485D01*
X204577200Y-195657200D01*
X204577200Y-196014342D01*
X204505771Y-196300057D01*
X204434342Y-196442914D01*
X204362914Y-196514342D01*
X204220057Y-196585771D01*
X204077200Y-196585771D01*
X203934342Y-196514342D01*
X203862914Y-196442914D01*
X203791485Y-196300057D01*
X203720057Y-196014342D01*
X203720057Y-195657200D01*
X203791485Y-195371485D01*
X203862914Y-195228628D01*
X203934342Y-195157200D01*
X204077200Y-195085771D01*
X205220057Y-196442914D02*
X205291485Y-196514342D01*
X205220057Y-196585771D01*
X205148628Y-196514342D01*
X205220057Y-196442914D01*
X205220057Y-196585771D01*
X206220057Y-195085771D02*
X206362914Y-195085771D01*
X206505771Y-195157200D01*
X206577200Y-195228628D01*
X206648628Y-195371485D01*
X206720057Y-195657200D01*
X206720057Y-196014342D01*
X206648628Y-196300057D01*
X206577200Y-196442914D01*
X206505771Y-196514342D01*
X206362914Y-196585771D01*
X206220057Y-196585771D01*
X206077200Y-196514342D01*
X206005771Y-196442914D01*
X205934342Y-196300057D01*
X205862914Y-196014342D01*
X205862914Y-195657200D01*
X205934342Y-195371485D01*
X206005771Y-195228628D01*
X206077200Y-195157200D01*
X206220057Y-195085771D01*
X207362914Y-196014342D02*
X208505771Y-196014342D01*
X209005771Y-195585771D02*
X209577200Y-195585771D01*
X209220057Y-196585771D02*
X209220057Y-195300057D01*
X209291485Y-195157200D01*
X209434342Y-195085771D01*
X209577200Y-195085771D01*
X210648628Y-196514342D02*
X210505771Y-196585771D01*
X210220057Y-196585771D01*
X210077200Y-196514342D01*
X210005771Y-196371485D01*
X210005771Y-195800057D01*
X210077200Y-195657200D01*
X210220057Y-195585771D01*
X210505771Y-195585771D01*
X210648628Y-195657200D01*
X210720057Y-195800057D01*
X210720057Y-195942914D01*
X210005771Y-196085771D01*
X211934342Y-196514342D02*
X211791485Y-196585771D01*
X211505771Y-196585771D01*
X211362914Y-196514342D01*
X211291485Y-196371485D01*
X211291485Y-195800057D01*
X211362914Y-195657200D01*
X211505771Y-195585771D01*
X211791485Y-195585771D01*
X211934342Y-195657200D01*
X212005771Y-195800057D01*
X212005771Y-195942914D01*
X211291485Y-196085771D01*
X213291485Y-195585771D02*
X213291485Y-196585771D01*
X212934342Y-195014342D02*
X212577200Y-196085771D01*
X213505771Y-196085771D01*
X213862914Y-195585771D02*
X214434342Y-195585771D01*
X214077200Y-196585771D02*
X214077200Y-195300057D01*
X214148628Y-195157200D01*
X214291485Y-195085771D01*
X214434342Y-195085771D01*
X215577200Y-196585771D02*
X215577200Y-195085771D01*
X215577200Y-196514342D02*
X215434342Y-196585771D01*
X215148628Y-196585771D01*
X215005771Y-196514342D01*
X214934342Y-196442914D01*
X214862914Y-196300057D01*
X214862914Y-195871485D01*
X214934342Y-195728628D01*
X215005771Y-195657200D01*
X215148628Y-195585771D01*
X215434342Y-195585771D01*
X215577200Y-195657200D01*
X217077200Y-196585771D02*
X216220057Y-196585771D01*
X216648628Y-196585771D02*
X216648628Y-195085771D01*
X216505771Y-195300057D01*
X216362914Y-195442914D01*
X216220057Y-195514342D01*
X217362914Y-194677200D02*
X218791485Y-194677200D01*
X218362914Y-195085771D02*
X218077200Y-195085771D01*
X217934342Y-195157200D01*
X217862914Y-195228628D01*
X217720057Y-195442914D01*
X217648628Y-195728628D01*
X217648628Y-196300057D01*
X217720057Y-196442914D01*
X217791485Y-196514342D01*
X217934342Y-196585771D01*
X218220057Y-196585771D01*
X218362914Y-196514342D01*
X218434342Y-196442914D01*
X218505771Y-196300057D01*
X218505771Y-195942914D01*
X218434342Y-195800057D01*
X218362914Y-195728628D01*
X218220057Y-195657200D01*
X217934342Y-195657200D01*
X217791485Y-195728628D01*
X217720057Y-195800057D01*
X217648628Y-195942914D01*
X218791485Y-194677200D02*
X220220057Y-194677200D01*
X219791485Y-195085771D02*
X219505771Y-195085771D01*
X219362914Y-195157200D01*
X219291485Y-195228628D01*
X219148628Y-195442914D01*
X219077200Y-195728628D01*
X219077200Y-196300057D01*
X219148628Y-196442914D01*
X219220057Y-196514342D01*
X219362914Y-196585771D01*
X219648628Y-196585771D01*
X219791485Y-196514342D01*
X219862914Y-196442914D01*
X219934342Y-196300057D01*
X219934342Y-195942914D01*
X219862914Y-195800057D01*
X219791485Y-195728628D01*
X219648628Y-195657200D01*
X219362914Y-195657200D01*
X219220057Y-195728628D01*
X219148628Y-195800057D01*
X219077200Y-195942914D01*
X221220057Y-195585771D02*
X221220057Y-196585771D01*
X220577200Y-195585771D02*
X220577200Y-196371485D01*
X220648628Y-196514342D01*
X220791485Y-196585771D01*
X221005771Y-196585771D01*
X221148628Y-196514342D01*
X221220057Y-196442914D01*
X221934342Y-196585771D02*
X221934342Y-195085771D01*
X221934342Y-195657200D02*
X222077200Y-195585771D01*
X222362914Y-195585771D01*
X222505771Y-195657200D01*
X222577200Y-195728628D01*
X222648628Y-195871485D01*
X222648628Y-196300057D01*
X222577200Y-196442914D01*
X222505771Y-196514342D01*
X222362914Y-196585771D01*
X222077200Y-196585771D01*
X221934342Y-196514342D01*
X223934342Y-195585771D02*
X223934342Y-196585771D01*
X223291485Y-195585771D02*
X223291485Y-196371485D01*
X223362914Y-196514342D01*
X223505771Y-196585771D01*
X223720057Y-196585771D01*
X223862914Y-196514342D01*
X223934342Y-196442914D01*
X224648628Y-195585771D02*
X224648628Y-196585771D01*
X224648628Y-195728628D02*
X224720057Y-195657200D01*
X224862914Y-195585771D01*
X225077200Y-195585771D01*
X225220057Y-195657200D01*
X225291485Y-195800057D01*
X225291485Y-196585771D01*
X225791485Y-195585771D02*
X226362914Y-195585771D01*
X226005771Y-195085771D02*
X226005771Y-196371485D01*
X226077200Y-196514342D01*
X226220057Y-196585771D01*
X226362914Y-196585771D01*
X227505771Y-195585771D02*
X227505771Y-196585771D01*
X226862914Y-195585771D02*
X226862914Y-196371485D01*
X226934342Y-196514342D01*
X227077200Y-196585771D01*
X227291485Y-196585771D01*
X227434342Y-196514342D01*
X227505771Y-196442914D01*
X229005771Y-196585771D02*
X228148628Y-196585771D01*
X228577200Y-196585771D02*
X228577200Y-195085771D01*
X228434342Y-195300057D01*
X228291485Y-195442914D01*
X228148628Y-195514342D01*
X230291485Y-195085771D02*
X230005771Y-195085771D01*
X229862914Y-195157200D01*
X229791485Y-195228628D01*
X229648628Y-195442914D01*
X229577200Y-195728628D01*
X229577200Y-196300057D01*
X229648628Y-196442914D01*
X229720057Y-196514342D01*
X229862914Y-196585771D01*
X230148628Y-196585771D01*
X230291485Y-196514342D01*
X230362914Y-196442914D01*
X230434342Y-196300057D01*
X230434342Y-195942914D01*
X230362914Y-195800057D01*
X230291485Y-195728628D01*
X230148628Y-195657200D01*
X229862914Y-195657200D01*
X229720057Y-195728628D01*
X229648628Y-195800057D01*
X229577200Y-195942914D01*
X231077200Y-196442914D02*
X231148628Y-196514342D01*
X231077200Y-196585771D01*
X231005771Y-196514342D01*
X231077200Y-196442914D01*
X231077200Y-196585771D01*
X232077200Y-195085771D02*
X232220057Y-195085771D01*
X232362914Y-195157200D01*
X232434342Y-195228628D01*
X232505771Y-195371485D01*
X232577200Y-195657200D01*
X232577200Y-196014342D01*
X232505771Y-196300057D01*
X232434342Y-196442914D01*
X232362914Y-196514342D01*
X232220057Y-196585771D01*
X232077200Y-196585771D01*
X231934342Y-196514342D01*
X231862914Y-196442914D01*
X231791485Y-196300057D01*
X231720057Y-196014342D01*
X231720057Y-195657200D01*
X231791485Y-195371485D01*
X231862914Y-195228628D01*
X231934342Y-195157200D01*
X232077200Y-195085771D01*
X233862914Y-195585771D02*
X233862914Y-196585771D01*
X233505771Y-195014342D02*
X233148628Y-196085771D01*
X234077200Y-196085771D01*
X234648628Y-196442914D02*
X234720057Y-196514342D01*
X234648628Y-196585771D01*
X234577200Y-196514342D01*
X234648628Y-196442914D01*
X234648628Y-196585771D01*
X236148628Y-196585771D02*
X235291485Y-196585771D01*
X235720057Y-196585771D02*
X235720057Y-195085771D01*
X235577200Y-195300057D01*
X235434342Y-195442914D01*
X235291485Y-195514342D01*
D10*
D11*
X177002200Y-191507200D02*
X285002200Y-191507200D01*
D10*
D12*
X264411485Y-193785771D02*
X263911485Y-193071485D01*
X263554342Y-193785771D02*
X263554342Y-192285771D01*
X264125771Y-192285771D01*
X264268628Y-192357200D01*
X264340057Y-192428628D01*
X264411485Y-192571485D01*
X264411485Y-192785771D01*
X264340057Y-192928628D01*
X264268628Y-193000057D01*
X264125771Y-193071485D01*
X263554342Y-193071485D01*
X265625771Y-193714342D02*
X265482914Y-193785771D01*
X265197200Y-193785771D01*
X265054342Y-193714342D01*
X264982914Y-193571485D01*
X264982914Y-193000057D01*
X265054342Y-192857200D01*
X265197200Y-192785771D01*
X265482914Y-192785771D01*
X265625771Y-192857200D01*
X265697200Y-193000057D01*
X265697200Y-193142914D01*
X264982914Y-193285771D01*
X266197200Y-192785771D02*
X266554342Y-193785771D01*
X266911485Y-192785771D01*
X267482914Y-193642914D02*
X267554342Y-193714342D01*
X267482914Y-193785771D01*
X267411485Y-193714342D01*
X267482914Y-193642914D01*
X267482914Y-193785771D01*
X267482914Y-192857200D02*
X267554342Y-192928628D01*
X267482914Y-193000057D01*
X267411485Y-192928628D01*
X267482914Y-192857200D01*
X267482914Y-193000057D01*
D10*
D11*
X178362914Y-193714342D02*
X178577200Y-193785771D01*
X178934342Y-193785771D01*
X179077200Y-193714342D01*
X179148628Y-193642914D01*
X179220057Y-193500057D01*
X179220057Y-193357200D01*
X179148628Y-193214342D01*
X179077200Y-193142914D01*
X178934342Y-193071485D01*
X178648628Y-193000057D01*
X178505771Y-192928628D01*
X178434342Y-192857200D01*
X178362914Y-192714342D01*
X178362914Y-192571485D01*
X178434342Y-192428628D01*
X178505771Y-192357200D01*
X178648628Y-192285771D01*
X179005771Y-192285771D01*
X179220057Y-192357200D01*
X179862914Y-193785771D02*
X179862914Y-192785771D01*
X179862914Y-192285771D02*
X179791485Y-192357200D01*
X179862914Y-192428628D01*
X179934342Y-192357200D01*
X179862914Y-192285771D01*
X179862914Y-192428628D01*
X180434342Y-192785771D02*
X181220057Y-192785771D01*
X180434342Y-193785771D01*
X181220057Y-193785771D01*
X182362914Y-193714342D02*
X182220057Y-193785771D01*
X181934342Y-193785771D01*
X181791485Y-193714342D01*
X181720057Y-193571485D01*
X181720057Y-193000057D01*
X181791485Y-192857200D01*
X181934342Y-192785771D01*
X182220057Y-192785771D01*
X182362914Y-192857200D01*
X182434342Y-193000057D01*
X182434342Y-193142914D01*
X181720057Y-193285771D01*
X183077200Y-193642914D02*
X183148628Y-193714342D01*
X183077200Y-193785771D01*
X183005771Y-193714342D01*
X183077200Y-193642914D01*
X183077200Y-193785771D01*
X183077200Y-192857200D02*
X183148628Y-192928628D01*
X183077200Y-193000057D01*
X183005771Y-192928628D01*
X183077200Y-192857200D01*
X183077200Y-193000057D01*
X184862914Y-193357200D02*
X185577200Y-193357200D01*
X184720057Y-193785771D02*
X185220057Y-192285771D01*
X185720057Y-193785771D01*
X186862914Y-192785771D02*
X186862914Y-193785771D01*
X186505771Y-192214342D02*
X186148628Y-193285771D01*
X187077200Y-193285771D01*
D10*
D11*
X263434342Y-196585771D02*
X263434342Y-195085771D01*
X264791485Y-196585771D02*
X264791485Y-195085771D01*
X264791485Y-196514342D02*
X264648628Y-196585771D01*
X264362914Y-196585771D01*
X264220057Y-196514342D01*
X264148628Y-196442914D01*
X264077200Y-196300057D01*
X264077200Y-195871485D01*
X264148628Y-195728628D01*
X264220057Y-195657200D01*
X264362914Y-195585771D01*
X264648628Y-195585771D01*
X264791485Y-195657200D01*
X265505771Y-196442914D02*
X265577200Y-196514342D01*
X265505771Y-196585771D01*
X265434342Y-196514342D01*
X265505771Y-196442914D01*
X265505771Y-196585771D01*
X265505771Y-195657200D02*
X265577200Y-195728628D01*
X265505771Y-195800057D01*
X265434342Y-195728628D01*
X265505771Y-195657200D01*
X265505771Y-195800057D01*
X268148628Y-196585771D02*
X267291485Y-196585771D01*
X267720057Y-196585771D02*
X267720057Y-195085771D01*
X267577200Y-195300057D01*
X267434342Y-195442914D01*
X267291485Y-195514342D01*
X269862914Y-195014342D02*
X268577200Y-196942914D01*
X271148628Y-196585771D02*
X270291485Y-196585771D01*
X270720057Y-196585771D02*
X270720057Y-195085771D01*
X270577200Y-195300057D01*
X270434342Y-195442914D01*
X270291485Y-195514342D01*
D10*
D11*
X177002200Y-187507200D02*
X285002200Y-187507200D01*
D10*
D13*
X178714580Y-188211961D02*
X179857438Y-188211961D01*
X179036009Y-190211961D02*
X179286009Y-188211961D01*
X180274104Y-190211961D02*
X180440771Y-188878628D01*
X180524104Y-188211961D02*
X180416961Y-188307200D01*
X180500295Y-188402438D01*
X180607438Y-188307200D01*
X180524104Y-188211961D01*
X180500295Y-188402438D01*
X181107438Y-188878628D02*
X181869342Y-188878628D01*
X181476485Y-188211961D02*
X181262200Y-189926247D01*
X181333628Y-190116723D01*
X181512200Y-190211961D01*
X181702676Y-190211961D01*
X182655057Y-190211961D02*
X182476485Y-190116723D01*
X182405057Y-189926247D01*
X182619342Y-188211961D01*
X184190771Y-190116723D02*
X183988390Y-190211961D01*
X183607438Y-190211961D01*
X183428866Y-190116723D01*
X183357438Y-189926247D01*
X183452676Y-189164342D01*
X183571723Y-188973866D01*
X183774104Y-188878628D01*
X184155057Y-188878628D01*
X184333628Y-188973866D01*
X184405057Y-189164342D01*
X184381247Y-189354819D01*
X183405057Y-189545295D01*
X185155057Y-190021485D02*
X185238390Y-190116723D01*
X185131247Y-190211961D01*
X185047914Y-190116723D01*
X185155057Y-190021485D01*
X185131247Y-190211961D01*
X185286009Y-188973866D02*
X185369342Y-189069104D01*
X185262200Y-189164342D01*
X185178866Y-189069104D01*
X185286009Y-188973866D01*
X185262200Y-189164342D01*
D10*
D11*
X178934342Y-185600057D02*
X178434342Y-185600057D01*
X178434342Y-186385771D02*
X178434342Y-184885771D01*
X179148628Y-184885771D01*
X179720057Y-186385771D02*
X179720057Y-185385771D01*
X179720057Y-184885771D02*
X179648628Y-184957200D01*
X179720057Y-185028628D01*
X179791485Y-184957200D01*
X179720057Y-184885771D01*
X179720057Y-185028628D01*
X180648628Y-186385771D02*
X180505771Y-186314342D01*
X180434342Y-186171485D01*
X180434342Y-184885771D01*
X181791485Y-186314342D02*
X181648628Y-186385771D01*
X181362914Y-186385771D01*
X181220057Y-186314342D01*
X181148628Y-186171485D01*
X181148628Y-185600057D01*
X181220057Y-185457200D01*
X181362914Y-185385771D01*
X181648628Y-185385771D01*
X181791485Y-185457200D01*
X181862914Y-185600057D01*
X181862914Y-185742914D01*
X181148628Y-185885771D01*
X182505771Y-186242914D02*
X182577200Y-186314342D01*
X182505771Y-186385771D01*
X182434342Y-186314342D01*
X182505771Y-186242914D01*
X182505771Y-186385771D01*
X182505771Y-185457200D02*
X182577200Y-185528628D01*
X182505771Y-185600057D01*
X182434342Y-185528628D01*
X182505771Y-185457200D01*
X182505771Y-185600057D01*
X184362914Y-186385771D02*
X184362914Y-185385771D01*
X184362914Y-184885771D02*
X184291485Y-184957200D01*
X184362914Y-185028628D01*
X184434342Y-184957200D01*
X184362914Y-184885771D01*
X184362914Y-185028628D01*
X185291485Y-186385771D02*
X185148628Y-186314342D01*
X185077200Y-186242914D01*
X185005771Y-186100057D01*
X185005771Y-185671485D01*
X185077200Y-185528628D01*
X185148628Y-185457200D01*
X185291485Y-185385771D01*
X185505771Y-185385771D01*
X185648628Y-185457200D01*
X185720057Y-185528628D01*
X185791485Y-185671485D01*
X185791485Y-186100057D01*
X185720057Y-186242914D01*
X185648628Y-186314342D01*
X185505771Y-186385771D01*
X185291485Y-186385771D01*
X186220057Y-185385771D02*
X186791485Y-185385771D01*
X186434342Y-184885771D02*
X186434342Y-186171485D01*
X186505771Y-186314342D01*
X186648628Y-186385771D01*
X186791485Y-186385771D01*
X187291485Y-186385771D02*
X187291485Y-184885771D01*
X187291485Y-185457200D02*
X187434342Y-185385771D01*
X187720057Y-185385771D01*
X187862914Y-185457200D01*
X187934342Y-185528628D01*
X188005771Y-185671485D01*
X188005771Y-186100057D01*
X187934342Y-186242914D01*
X187862914Y-186314342D01*
X187720057Y-186385771D01*
X187434342Y-186385771D01*
X187291485Y-186314342D01*
X188648628Y-186385771D02*
X188648628Y-185385771D01*
X188648628Y-184885771D02*
X188577200Y-184957200D01*
X188648628Y-185028628D01*
X188720057Y-184957200D01*
X188648628Y-184885771D01*
X188648628Y-185028628D01*
X189362914Y-185385771D02*
X189362914Y-186385771D01*
X189362914Y-185528628D02*
X189434342Y-185457200D01*
X189577200Y-185385771D01*
X189791485Y-185385771D01*
X189934342Y-185457200D01*
X190005771Y-185600057D01*
X190005771Y-186385771D01*
X190720057Y-186242914D02*
X190791485Y-186314342D01*
X190720057Y-186385771D01*
X190648628Y-186314342D01*
X190720057Y-186242914D01*
X190720057Y-186385771D01*
X191434342Y-186385771D02*
X191434342Y-184885771D01*
X191577200Y-185814342D02*
X192005771Y-186385771D01*
X192005771Y-185385771D02*
X191434342Y-185957200D01*
X192648628Y-186385771D02*
X192648628Y-185385771D01*
X192648628Y-184885771D02*
X192577200Y-184957200D01*
X192648628Y-185028628D01*
X192720057Y-184957200D01*
X192648628Y-184885771D01*
X192648628Y-185028628D01*
X194005771Y-186314342D02*
X193862914Y-186385771D01*
X193577200Y-186385771D01*
X193434342Y-186314342D01*
X193362914Y-186242914D01*
X193291485Y-186100057D01*
X193291485Y-185671485D01*
X193362914Y-185528628D01*
X193434342Y-185457200D01*
X193577200Y-185385771D01*
X193862914Y-185385771D01*
X194005771Y-185457200D01*
X195291485Y-186385771D02*
X195291485Y-185600057D01*
X195220057Y-185457200D01*
X195077200Y-185385771D01*
X194791485Y-185385771D01*
X194648628Y-185457200D01*
X195291485Y-186314342D02*
X195148628Y-186385771D01*
X194791485Y-186385771D01*
X194648628Y-186314342D01*
X194577200Y-186171485D01*
X194577200Y-186028628D01*
X194648628Y-185885771D01*
X194791485Y-185814342D01*
X195148628Y-185814342D01*
X195291485Y-185742914D01*
X196648628Y-186385771D02*
X196648628Y-184885771D01*
X196648628Y-186314342D02*
X196505771Y-186385771D01*
X196220057Y-186385771D01*
X196077200Y-186314342D01*
X196005771Y-186242914D01*
X195934342Y-186100057D01*
X195934342Y-185671485D01*
X196005771Y-185528628D01*
X196077200Y-185457200D01*
X196220057Y-185385771D01*
X196505771Y-185385771D01*
X196648628Y-185457200D01*
X197005771Y-186528628D02*
X198148628Y-186528628D01*
X198505771Y-185385771D02*
X198505771Y-186885771D01*
X198505771Y-185457200D02*
X198648628Y-185385771D01*
X198934342Y-185385771D01*
X199077200Y-185457200D01*
X199148628Y-185528628D01*
X199220057Y-185671485D01*
X199220057Y-186100057D01*
X199148628Y-186242914D01*
X199077200Y-186314342D01*
X198934342Y-186385771D01*
X198648628Y-186385771D01*
X198505771Y-186314342D01*
X200505771Y-186314342D02*
X200362914Y-186385771D01*
X200077200Y-186385771D01*
X199934342Y-186314342D01*
X199862914Y-186242914D01*
X199791485Y-186100057D01*
X199791485Y-185671485D01*
X199862914Y-185528628D01*
X199934342Y-185457200D01*
X200077200Y-185385771D01*
X200362914Y-185385771D01*
X200505771Y-185457200D01*
X201148628Y-186385771D02*
X201148628Y-184885771D01*
X201148628Y-185457200D02*
X201291485Y-185385771D01*
X201577200Y-185385771D01*
X201720057Y-185457200D01*
X201791485Y-185528628D01*
X201862914Y-185671485D01*
X201862914Y-186100057D01*
X201791485Y-186242914D01*
X201720057Y-186314342D01*
X201577200Y-186385771D01*
X201291485Y-186385771D01*
X201148628Y-186314342D01*
D10*
D11*
X177002200Y-181507200D02*
X285002200Y-181507200D01*
D10*
D11*
X178362914Y-183614342D02*
X178577200Y-183685771D01*
X178934342Y-183685771D01*
X179077200Y-183614342D01*
X179148628Y-183542914D01*
X179220057Y-183400057D01*
X179220057Y-183257200D01*
X179148628Y-183114342D01*
X179077200Y-183042914D01*
X178934342Y-182971485D01*
X178648628Y-182900057D01*
X178505771Y-182828628D01*
X178434342Y-182757200D01*
X178362914Y-182614342D01*
X178362914Y-182471485D01*
X178434342Y-182328628D01*
X178505771Y-182257200D01*
X178648628Y-182185771D01*
X179005771Y-182185771D01*
X179220057Y-182257200D01*
X179862914Y-183685771D02*
X179862914Y-182185771D01*
X180505771Y-183685771D02*
X180505771Y-182900057D01*
X180434342Y-182757200D01*
X180291485Y-182685771D01*
X180077200Y-182685771D01*
X179934342Y-182757200D01*
X179862914Y-182828628D01*
X181791485Y-183614342D02*
X181648628Y-183685771D01*
X181362914Y-183685771D01*
X181220057Y-183614342D01*
X181148628Y-183471485D01*
X181148628Y-182900057D01*
X181220057Y-182757200D01*
X181362914Y-182685771D01*
X181648628Y-182685771D01*
X181791485Y-182757200D01*
X181862914Y-182900057D01*
X181862914Y-183042914D01*
X181148628Y-183185771D01*
X183077200Y-183614342D02*
X182934342Y-183685771D01*
X182648628Y-183685771D01*
X182505771Y-183614342D01*
X182434342Y-183471485D01*
X182434342Y-182900057D01*
X182505771Y-182757200D01*
X182648628Y-182685771D01*
X182934342Y-182685771D01*
X183077200Y-182757200D01*
X183148628Y-182900057D01*
X183148628Y-183042914D01*
X182434342Y-183185771D01*
X183577200Y-182685771D02*
X184148628Y-182685771D01*
X183791485Y-182185771D02*
X183791485Y-183471485D01*
X183862914Y-183614342D01*
X184005771Y-183685771D01*
X184148628Y-183685771D01*
X184648628Y-183542914D02*
X184720057Y-183614342D01*
X184648628Y-183685771D01*
X184577200Y-183614342D01*
X184648628Y-183542914D01*
X184648628Y-183685771D01*
X184648628Y-182757200D02*
X184720057Y-182828628D01*
X184648628Y-182900057D01*
X184577200Y-182828628D01*
X184648628Y-182757200D01*
X184648628Y-182900057D01*
D10*
D11*
X197002200Y-191507200D02*
X197002200Y-194507200D01*
D10*
D11*
X261002200Y-191507200D02*
X261002200Y-198007200D01*
D10*
G04 #@! TO.C,U4*
X169990000Y-74604000D02*
X170990000Y-75604000D01*
X169990000Y-74604000D02*
X164290000Y-74604000D01*
X170990000Y-75604000D02*
X170990000Y-78304000D01*
X164290000Y-74604000D02*
X164290000Y-78304000D01*
X170990000Y-78304000D02*
X164290000Y-78304000D01*
G04 #@! TO.C,U3*
X171700000Y-93156000D02*
X171700000Y-91756000D01*
X168660000Y-91756000D02*
X171700000Y-91756000D01*
X169230000Y-93156000D02*
X168660000Y-92606000D01*
X168660000Y-92606000D02*
X168660000Y-91756000D01*
X169230000Y-93156000D02*
X171680000Y-93156000D01*
G04 #@! TO.C,U2*
X172278000Y-88076000D02*
X174728000Y-88076000D01*
X171708000Y-87526000D02*
X171708000Y-86676000D01*
X172278000Y-88076000D02*
X171708000Y-87526000D01*
X171708000Y-86676000D02*
X174748000Y-86676000D01*
X174748000Y-88076000D02*
X174748000Y-86676000D01*
G04 #@! TO.C,R8*
X166862000Y-92872000D02*
X166862000Y-94072000D01*
X166862000Y-94072000D02*
X164862000Y-94072000D01*
X164862000Y-94072000D02*
X164862000Y-92872000D01*
X164862000Y-92872000D02*
X166862000Y-92872000D01*
G04 #@! TO.C,R7*
X174768000Y-92294000D02*
X174768000Y-91094000D01*
X174768000Y-91094000D02*
X176768000Y-91094000D01*
X176768000Y-91094000D02*
X176768000Y-92294000D01*
X176768000Y-92294000D02*
X174768000Y-92294000D01*
G04 #@! TO.C,J1*
X158750000Y-71501000D02*
X158750000Y-73406000D01*
X158750000Y-73406000D02*
X146050000Y-73406000D01*
X146050000Y-73406000D02*
X146050000Y-70866000D01*
X146050000Y-70866000D02*
X158115000Y-70866000D01*
X158115000Y-70866000D02*
X158750000Y-71501000D01*
G04 #@! TO.C,R6*
X156600000Y-77700000D02*
X156600000Y-76500000D01*
X156600000Y-76500000D02*
X158600000Y-76500000D01*
X158600000Y-76500000D02*
X158600000Y-77700000D01*
X158600000Y-77700000D02*
X156600000Y-77700000D01*
G04 #@! TO.C,J2*
X150130000Y-99560000D02*
X150130000Y-98060000D01*
X150130000Y-98060000D02*
X154130000Y-98060000D01*
X154130000Y-98060000D02*
X154130000Y-100060000D01*
X154130000Y-100060000D02*
X150630000Y-100060000D01*
X150630000Y-100060000D02*
X150130000Y-99560000D01*
G04 #@! TO.C,R5*
X178050000Y-87350000D02*
X179250000Y-87350000D01*
X179250000Y-87350000D02*
X179250000Y-89350000D01*
X179250000Y-89350000D02*
X178050000Y-89350000D01*
X178050000Y-89350000D02*
X178050000Y-87350000D01*
G04 #@! TO.C,R4*
X165954000Y-84598000D02*
X165954000Y-86598000D01*
X164754000Y-84598000D02*
X165954000Y-84598000D01*
X164754000Y-86598000D02*
X164754000Y-84598000D01*
X165954000Y-86598000D02*
X164754000Y-86598000D01*
G04 #@! TO.C,R2*
X167524629Y-84102843D02*
X168938843Y-82688629D01*
X168373157Y-84951371D02*
X167524629Y-84102843D01*
X169787371Y-83537157D02*
X168373157Y-84951371D01*
X168938843Y-82688629D02*
X169787371Y-83537157D01*
G04 #@! TO.C,R3*
X150638000Y-101000000D02*
X152638000Y-101000000D01*
X150638000Y-102200000D02*
X150638000Y-101000000D01*
X152638000Y-102200000D02*
X150638000Y-102200000D01*
X152638000Y-101000000D02*
X152638000Y-102200000D01*
G04 #@! TO.C,C3*
X163137500Y-96612000D02*
X161137500Y-96612000D01*
X163137500Y-95412000D02*
X163137500Y-96612000D01*
X161137500Y-95412000D02*
X163137500Y-95412000D01*
X161137500Y-96612000D02*
X161137500Y-95412000D01*
G04 #@! TO.C,C2*
X160666629Y-76228843D02*
X162080843Y-74814629D01*
X161515157Y-77077371D02*
X160666629Y-76228843D01*
X162929371Y-75663157D02*
X161515157Y-77077371D01*
X162080843Y-74814629D02*
X162929371Y-75663157D01*
G04 #@! TO.C,C1*
X172374000Y-75676000D02*
X172374000Y-73676000D01*
X173574000Y-75676000D02*
X172374000Y-75676000D01*
X173574000Y-73676000D02*
X173574000Y-75676000D01*
X172374000Y-73676000D02*
X173574000Y-73676000D01*
D14*
G04 #@! TO.C,U1*
X142050000Y-95630000D02*
X134050000Y-95630000D01*
X142550000Y-95130000D02*
X142050000Y-95630000D01*
X143050000Y-95630000D02*
X142550000Y-95130000D01*
X158050000Y-95630000D02*
X143050000Y-95630000D01*
X158050000Y-79630000D02*
X158050000Y-95630000D01*
X134050000Y-79630000D02*
X158050000Y-79630000D01*
X134050000Y-95630000D02*
X134050000Y-79630000D01*
D10*
G04 #@! TO.C,R1*
X155250000Y-75500000D02*
X153250000Y-75500000D01*
X155250000Y-74300000D02*
X155250000Y-75500000D01*
X153250000Y-74300000D02*
X155250000Y-74300000D01*
X153250000Y-75500000D02*
X153250000Y-74300000D01*
G04 #@! TD*
G04 #@! TO.C,U4*
D11*
X163306666Y-81906380D02*
X163306666Y-81430190D01*
X163592380Y-82001619D02*
X162592380Y-81668285D01*
X163592380Y-81334952D01*
X163592380Y-81001619D02*
X162592380Y-81001619D01*
X162592380Y-80620666D01*
X162640000Y-80525428D01*
X162687619Y-80477809D01*
X162782857Y-80430190D01*
X162925714Y-80430190D01*
X163020952Y-80477809D01*
X163068571Y-80525428D01*
X163116190Y-80620666D01*
X163116190Y-81001619D01*
X162687619Y-80049238D02*
X162640000Y-80001619D01*
X162592380Y-79906380D01*
X162592380Y-79668285D01*
X162640000Y-79573047D01*
X162687619Y-79525428D01*
X162782857Y-79477809D01*
X162878095Y-79477809D01*
X163020952Y-79525428D01*
X163592380Y-80096857D01*
X163592380Y-79477809D01*
X162687619Y-79096857D02*
X162640000Y-79049238D01*
X162592380Y-78954000D01*
X162592380Y-78715904D01*
X162640000Y-78620666D01*
X162687619Y-78573047D01*
X162782857Y-78525428D01*
X162878095Y-78525428D01*
X163020952Y-78573047D01*
X163592380Y-79144476D01*
X163592380Y-78525428D01*
X162592380Y-77906380D02*
X162592380Y-77811142D01*
X162640000Y-77715904D01*
X162687619Y-77668285D01*
X162782857Y-77620666D01*
X162973333Y-77573047D01*
X163211428Y-77573047D01*
X163401904Y-77620666D01*
X163497142Y-77668285D01*
X163544761Y-77715904D01*
X163592380Y-77811142D01*
X163592380Y-77906380D01*
X163544761Y-78001619D01*
X163497142Y-78049238D01*
X163401904Y-78096857D01*
X163211428Y-78144476D01*
X162973333Y-78144476D01*
X162782857Y-78096857D01*
X162687619Y-78049238D01*
X162640000Y-78001619D01*
X162592380Y-77906380D01*
X162925714Y-76715904D02*
X163592380Y-76715904D01*
X162544761Y-76954000D02*
X163259047Y-77192095D01*
X163259047Y-76573047D01*
X163592380Y-75620666D02*
X163116190Y-75954000D01*
X163592380Y-76192095D02*
X162592380Y-76192095D01*
X162592380Y-75811142D01*
X162640000Y-75715904D01*
X162687619Y-75668285D01*
X162782857Y-75620666D01*
X162925714Y-75620666D01*
X163020952Y-75668285D01*
X163068571Y-75715904D01*
X163116190Y-75811142D01*
X163116190Y-76192095D01*
X163068571Y-74858761D02*
X163116190Y-74715904D01*
X163163809Y-74668285D01*
X163259047Y-74620666D01*
X163401904Y-74620666D01*
X163497142Y-74668285D01*
X163544761Y-74715904D01*
X163592380Y-74811142D01*
X163592380Y-75192095D01*
X162592380Y-75192095D01*
X162592380Y-74858761D01*
X162640000Y-74763523D01*
X162687619Y-74715904D01*
X162782857Y-74668285D01*
X162878095Y-74668285D01*
X162973333Y-74715904D01*
X163020952Y-74763523D01*
X163068571Y-74858761D01*
X163068571Y-75192095D01*
X163211428Y-74192095D02*
X163211428Y-73430190D01*
X162592380Y-73049238D02*
X162592380Y-72430190D01*
X162973333Y-72763523D01*
X162973333Y-72620666D01*
X163020952Y-72525428D01*
X163068571Y-72477809D01*
X163163809Y-72430190D01*
X163401904Y-72430190D01*
X163497142Y-72477809D01*
X163544761Y-72525428D01*
X163592380Y-72620666D01*
X163592380Y-72906380D01*
X163544761Y-73001619D01*
X163497142Y-73049238D01*
X163497142Y-72001619D02*
X163544761Y-71954000D01*
X163592380Y-72001619D01*
X163544761Y-72049238D01*
X163497142Y-72001619D01*
X163592380Y-72001619D01*
X162592380Y-71620666D02*
X162592380Y-71001619D01*
X162973333Y-71334952D01*
X162973333Y-71192095D01*
X163020952Y-71096857D01*
X163068571Y-71049238D01*
X163163809Y-71001619D01*
X163401904Y-71001619D01*
X163497142Y-71049238D01*
X163544761Y-71096857D01*
X163592380Y-71192095D01*
X163592380Y-71477809D01*
X163544761Y-71573047D01*
X163497142Y-71620666D01*
D14*
X167030476Y-76015904D02*
X167030476Y-76663523D01*
X167068571Y-76739714D01*
X167106666Y-76777809D01*
X167182857Y-76815904D01*
X167335238Y-76815904D01*
X167411428Y-76777809D01*
X167449523Y-76739714D01*
X167487619Y-76663523D01*
X167487619Y-76015904D01*
X168211428Y-76282571D02*
X168211428Y-76815904D01*
X168020952Y-75977809D02*
X167830476Y-76549238D01*
X168325714Y-76549238D01*
G04 #@! TO.C,U3*
D11*
X172608571Y-95194095D02*
X172608571Y-95527428D01*
X173132380Y-95527428D02*
X172132380Y-95527428D01*
X172132380Y-95051238D01*
X173132380Y-94670285D02*
X172132380Y-94670285D01*
X172132380Y-94432190D01*
X172180000Y-94289333D01*
X172275238Y-94194095D01*
X172370476Y-94146476D01*
X172560952Y-94098857D01*
X172703809Y-94098857D01*
X172894285Y-94146476D01*
X172989523Y-94194095D01*
X173084761Y-94289333D01*
X173132380Y-94432190D01*
X173132380Y-94670285D01*
X172132380Y-93813142D02*
X173132380Y-93479809D01*
X172132380Y-93146476D01*
X172132380Y-92908380D02*
X172132380Y-92289333D01*
X172513333Y-92622666D01*
X172513333Y-92479809D01*
X172560952Y-92384571D01*
X172608571Y-92336952D01*
X172703809Y-92289333D01*
X172941904Y-92289333D01*
X173037142Y-92336952D01*
X173084761Y-92384571D01*
X173132380Y-92479809D01*
X173132380Y-92765523D01*
X173084761Y-92860761D01*
X173037142Y-92908380D01*
X172132380Y-91670285D02*
X172132380Y-91575047D01*
X172180000Y-91479809D01*
X172227619Y-91432190D01*
X172322857Y-91384571D01*
X172513333Y-91336952D01*
X172751428Y-91336952D01*
X172941904Y-91384571D01*
X173037142Y-91432190D01*
X173084761Y-91479809D01*
X173132380Y-91575047D01*
X173132380Y-91670285D01*
X173084761Y-91765523D01*
X173037142Y-91813142D01*
X172941904Y-91860761D01*
X172751428Y-91908380D01*
X172513333Y-91908380D01*
X172322857Y-91860761D01*
X172227619Y-91813142D01*
X172180000Y-91765523D01*
X172132380Y-91670285D01*
X172132380Y-91003619D02*
X172132380Y-90384571D01*
X172513333Y-90717904D01*
X172513333Y-90575047D01*
X172560952Y-90479809D01*
X172608571Y-90432190D01*
X172703809Y-90384571D01*
X172941904Y-90384571D01*
X173037142Y-90432190D01*
X173084761Y-90479809D01*
X173132380Y-90575047D01*
X173132380Y-90860761D01*
X173084761Y-90956000D01*
X173037142Y-91003619D01*
X173132380Y-89956000D02*
X172132380Y-89956000D01*
X173132380Y-89384571D01*
X172132380Y-89384571D01*
D15*
X169799047Y-92182190D02*
X169799047Y-92586952D01*
X169822857Y-92634571D01*
X169846666Y-92658380D01*
X169894285Y-92682190D01*
X169989523Y-92682190D01*
X170037142Y-92658380D01*
X170060952Y-92634571D01*
X170084761Y-92586952D01*
X170084761Y-92182190D01*
X170275238Y-92182190D02*
X170584761Y-92182190D01*
X170418095Y-92372666D01*
X170489523Y-92372666D01*
X170537142Y-92396476D01*
X170560952Y-92420285D01*
X170584761Y-92467904D01*
X170584761Y-92586952D01*
X170560952Y-92634571D01*
X170537142Y-92658380D01*
X170489523Y-92682190D01*
X170346666Y-92682190D01*
X170299047Y-92658380D01*
X170275238Y-92634571D01*
G04 #@! TO.C,U2*
D11*
X175656571Y-90090285D02*
X175656571Y-90423619D01*
X176180380Y-90423619D02*
X175180380Y-90423619D01*
X175180380Y-89947428D01*
X176180380Y-89566476D02*
X175180380Y-89566476D01*
X175180380Y-89328380D01*
X175228000Y-89185523D01*
X175323238Y-89090285D01*
X175418476Y-89042666D01*
X175608952Y-88995047D01*
X175751809Y-88995047D01*
X175942285Y-89042666D01*
X176037523Y-89090285D01*
X176132761Y-89185523D01*
X176180380Y-89328380D01*
X176180380Y-89566476D01*
X175180380Y-88709333D02*
X176180380Y-88376000D01*
X175180380Y-88042666D01*
X175180380Y-87804571D02*
X175180380Y-87185523D01*
X175561333Y-87518857D01*
X175561333Y-87376000D01*
X175608952Y-87280761D01*
X175656571Y-87233142D01*
X175751809Y-87185523D01*
X175989904Y-87185523D01*
X176085142Y-87233142D01*
X176132761Y-87280761D01*
X176180380Y-87376000D01*
X176180380Y-87661714D01*
X176132761Y-87756952D01*
X176085142Y-87804571D01*
X175180380Y-86566476D02*
X175180380Y-86471238D01*
X175228000Y-86376000D01*
X175275619Y-86328380D01*
X175370857Y-86280761D01*
X175561333Y-86233142D01*
X175799428Y-86233142D01*
X175989904Y-86280761D01*
X176085142Y-86328380D01*
X176132761Y-86376000D01*
X176180380Y-86471238D01*
X176180380Y-86566476D01*
X176132761Y-86661714D01*
X176085142Y-86709333D01*
X175989904Y-86756952D01*
X175799428Y-86804571D01*
X175561333Y-86804571D01*
X175370857Y-86756952D01*
X175275619Y-86709333D01*
X175228000Y-86661714D01*
X175180380Y-86566476D01*
X175275619Y-85852190D02*
X175228000Y-85804571D01*
X175180380Y-85709333D01*
X175180380Y-85471238D01*
X175228000Y-85376000D01*
X175275619Y-85328380D01*
X175370857Y-85280761D01*
X175466095Y-85280761D01*
X175608952Y-85328380D01*
X176180380Y-85899809D01*
X176180380Y-85280761D01*
X176180380Y-84852190D02*
X175180380Y-84852190D01*
X175180380Y-84471238D01*
X175228000Y-84376000D01*
X175275619Y-84328380D01*
X175370857Y-84280761D01*
X175513714Y-84280761D01*
X175608952Y-84328380D01*
X175656571Y-84376000D01*
X175704190Y-84471238D01*
X175704190Y-84852190D01*
D15*
X172847047Y-87102190D02*
X172847047Y-87506952D01*
X172870857Y-87554571D01*
X172894666Y-87578380D01*
X172942285Y-87602190D01*
X173037523Y-87602190D01*
X173085142Y-87578380D01*
X173108952Y-87554571D01*
X173132761Y-87506952D01*
X173132761Y-87102190D01*
X173347047Y-87149809D02*
X173370857Y-87126000D01*
X173418476Y-87102190D01*
X173537523Y-87102190D01*
X173585142Y-87126000D01*
X173608952Y-87149809D01*
X173632761Y-87197428D01*
X173632761Y-87245047D01*
X173608952Y-87316476D01*
X173323238Y-87602190D01*
X173632761Y-87602190D01*
G04 #@! TO.C,R8*
D11*
X165647714Y-92274380D02*
X165076285Y-92274380D01*
X165362000Y-92274380D02*
X165362000Y-91274380D01*
X165266761Y-91417238D01*
X165171523Y-91512476D01*
X165076285Y-91560095D01*
X166076285Y-92274380D02*
X166076285Y-91274380D01*
X166647714Y-92274380D02*
X166219142Y-91702952D01*
X166647714Y-91274380D02*
X166076285Y-91845809D01*
D16*
X165778666Y-93698190D02*
X165612000Y-93460095D01*
X165492952Y-93698190D02*
X165492952Y-93198190D01*
X165683428Y-93198190D01*
X165731047Y-93222000D01*
X165754857Y-93245809D01*
X165778666Y-93293428D01*
X165778666Y-93364857D01*
X165754857Y-93412476D01*
X165731047Y-93436285D01*
X165683428Y-93460095D01*
X165492952Y-93460095D01*
X166064380Y-93412476D02*
X166016761Y-93388666D01*
X165992952Y-93364857D01*
X165969142Y-93317238D01*
X165969142Y-93293428D01*
X165992952Y-93245809D01*
X166016761Y-93222000D01*
X166064380Y-93198190D01*
X166159619Y-93198190D01*
X166207238Y-93222000D01*
X166231047Y-93245809D01*
X166254857Y-93293428D01*
X166254857Y-93317238D01*
X166231047Y-93364857D01*
X166207238Y-93388666D01*
X166159619Y-93412476D01*
X166064380Y-93412476D01*
X166016761Y-93436285D01*
X165992952Y-93460095D01*
X165969142Y-93507714D01*
X165969142Y-93602952D01*
X165992952Y-93650571D01*
X166016761Y-93674380D01*
X166064380Y-93698190D01*
X166159619Y-93698190D01*
X166207238Y-93674380D01*
X166231047Y-93650571D01*
X166254857Y-93602952D01*
X166254857Y-93507714D01*
X166231047Y-93460095D01*
X166207238Y-93436285D01*
X166159619Y-93412476D01*
G04 #@! TO.C,R7*
D11*
X175482285Y-93796380D02*
X174910857Y-93796380D01*
X175196571Y-93796380D02*
X175196571Y-92796380D01*
X175101333Y-92939238D01*
X175006095Y-93034476D01*
X174910857Y-93082095D01*
X175910857Y-93796380D02*
X175910857Y-92796380D01*
X176244190Y-93510666D01*
X176577523Y-92796380D01*
X176577523Y-93796380D01*
D16*
X175684666Y-91920190D02*
X175518000Y-91682095D01*
X175398952Y-91920190D02*
X175398952Y-91420190D01*
X175589428Y-91420190D01*
X175637047Y-91444000D01*
X175660857Y-91467809D01*
X175684666Y-91515428D01*
X175684666Y-91586857D01*
X175660857Y-91634476D01*
X175637047Y-91658285D01*
X175589428Y-91682095D01*
X175398952Y-91682095D01*
X175851333Y-91420190D02*
X176184666Y-91420190D01*
X175970380Y-91920190D01*
G04 #@! TO.C,J1*
D11*
X145347142Y-77969333D02*
X145394761Y-78016952D01*
X145442380Y-78159809D01*
X145442380Y-78255047D01*
X145394761Y-78397904D01*
X145299523Y-78493142D01*
X145204285Y-78540761D01*
X145013809Y-78588380D01*
X144870952Y-78588380D01*
X144680476Y-78540761D01*
X144585238Y-78493142D01*
X144490000Y-78397904D01*
X144442380Y-78255047D01*
X144442380Y-78159809D01*
X144490000Y-78016952D01*
X144537619Y-77969333D01*
X145442380Y-77397904D02*
X145394761Y-77493142D01*
X145347142Y-77540761D01*
X145251904Y-77588380D01*
X144966190Y-77588380D01*
X144870952Y-77540761D01*
X144823333Y-77493142D01*
X144775714Y-77397904D01*
X144775714Y-77255047D01*
X144823333Y-77159809D01*
X144870952Y-77112190D01*
X144966190Y-77064571D01*
X145251904Y-77064571D01*
X145347142Y-77112190D01*
X145394761Y-77159809D01*
X145442380Y-77255047D01*
X145442380Y-77397904D01*
X144775714Y-76636000D02*
X145442380Y-76636000D01*
X144870952Y-76636000D02*
X144823333Y-76588380D01*
X144775714Y-76493142D01*
X144775714Y-76350285D01*
X144823333Y-76255047D01*
X144918571Y-76207428D01*
X145442380Y-76207428D01*
X144775714Y-75731238D02*
X145442380Y-75731238D01*
X144870952Y-75731238D02*
X144823333Y-75683619D01*
X144775714Y-75588380D01*
X144775714Y-75445523D01*
X144823333Y-75350285D01*
X144918571Y-75302666D01*
X145442380Y-75302666D01*
X145537619Y-75064571D02*
X145537619Y-74302666D01*
X144442380Y-73874095D02*
X144442380Y-73778857D01*
X144490000Y-73683619D01*
X144537619Y-73636000D01*
X144632857Y-73588380D01*
X144823333Y-73540761D01*
X145061428Y-73540761D01*
X145251904Y-73588380D01*
X145347142Y-73636000D01*
X145394761Y-73683619D01*
X145442380Y-73778857D01*
X145442380Y-73874095D01*
X145394761Y-73969333D01*
X145347142Y-74016952D01*
X145251904Y-74064571D01*
X145061428Y-74112190D01*
X144823333Y-74112190D01*
X144632857Y-74064571D01*
X144537619Y-74016952D01*
X144490000Y-73969333D01*
X144442380Y-73874095D01*
X145442380Y-72588380D02*
X145442380Y-73159809D01*
X145442380Y-72874095D02*
X144442380Y-72874095D01*
X144585238Y-72969333D01*
X144680476Y-73064571D01*
X144728095Y-73159809D01*
X145442380Y-72255047D02*
X144775714Y-71731238D01*
X144775714Y-72255047D02*
X145442380Y-71731238D01*
X144442380Y-71159809D02*
X144442380Y-71064571D01*
X144490000Y-70969333D01*
X144537619Y-70921714D01*
X144632857Y-70874095D01*
X144823333Y-70826476D01*
X145061428Y-70826476D01*
X145251904Y-70874095D01*
X145347142Y-70921714D01*
X145394761Y-70969333D01*
X145442380Y-71064571D01*
X145442380Y-71159809D01*
X145394761Y-71255047D01*
X145347142Y-71302666D01*
X145251904Y-71350285D01*
X145061428Y-71397904D01*
X144823333Y-71397904D01*
X144632857Y-71350285D01*
X144537619Y-71302666D01*
X144490000Y-71255047D01*
X144442380Y-71159809D01*
X144442380Y-69921714D02*
X144442380Y-70397904D01*
X144918571Y-70445523D01*
X144870952Y-70397904D01*
X144823333Y-70302666D01*
X144823333Y-70064571D01*
X144870952Y-69969333D01*
X144918571Y-69921714D01*
X145013809Y-69874095D01*
X145251904Y-69874095D01*
X145347142Y-69921714D01*
X145394761Y-69969333D01*
X145442380Y-70064571D01*
X145442380Y-70302666D01*
X145394761Y-70397904D01*
X145347142Y-70445523D01*
X145537619Y-69683619D02*
X145537619Y-68921714D01*
X145442380Y-68683619D02*
X144442380Y-68683619D01*
X145156666Y-68350285D01*
X144442380Y-68016952D01*
X145442380Y-68016952D01*
X145442380Y-67112190D02*
X144918571Y-67112190D01*
X144823333Y-67159809D01*
X144775714Y-67255047D01*
X144775714Y-67445523D01*
X144823333Y-67540761D01*
X145394761Y-67112190D02*
X145442380Y-67207428D01*
X145442380Y-67445523D01*
X145394761Y-67540761D01*
X145299523Y-67588380D01*
X145204285Y-67588380D01*
X145109047Y-67540761D01*
X145061428Y-67445523D01*
X145061428Y-67207428D01*
X145013809Y-67112190D01*
X145442380Y-66493142D02*
X145394761Y-66588380D01*
X145299523Y-66636000D01*
X144442380Y-66636000D01*
X145394761Y-65731238D02*
X145442380Y-65826476D01*
X145442380Y-66016952D01*
X145394761Y-66112190D01*
X145299523Y-66159809D01*
X144918571Y-66159809D01*
X144823333Y-66112190D01*
X144775714Y-66016952D01*
X144775714Y-65826476D01*
X144823333Y-65731238D01*
X144918571Y-65683619D01*
X145013809Y-65683619D01*
X145109047Y-66159809D01*
X152066666Y-71588380D02*
X152066666Y-72302666D01*
X152019047Y-72445523D01*
X151923809Y-72540761D01*
X151780952Y-72588380D01*
X151685714Y-72588380D01*
X153066666Y-72588380D02*
X152495238Y-72588380D01*
X152780952Y-72588380D02*
X152780952Y-71588380D01*
X152685714Y-71731238D01*
X152590476Y-71826476D01*
X152495238Y-71874095D01*
G04 #@! TO.C,P1*
X206852380Y-64278571D02*
X205852380Y-64278571D01*
X206852380Y-63850000D02*
X206328571Y-63850000D01*
X206233333Y-63897619D01*
X206185714Y-63992857D01*
X206185714Y-64135714D01*
X206233333Y-64230952D01*
X206280952Y-64278571D01*
X206804761Y-62945238D02*
X206852380Y-63040476D01*
X206852380Y-63230952D01*
X206804761Y-63326190D01*
X206757142Y-63373809D01*
X206661904Y-63421428D01*
X206376190Y-63421428D01*
X206280952Y-63373809D01*
X206233333Y-63326190D01*
X206185714Y-63230952D01*
X206185714Y-63040476D01*
X206233333Y-62945238D01*
X206471428Y-62516666D02*
X206471428Y-61754761D01*
X206804761Y-61326190D02*
X206852380Y-61230952D01*
X206852380Y-61040476D01*
X206804761Y-60945238D01*
X206709523Y-60897619D01*
X206661904Y-60897619D01*
X206566666Y-60945238D01*
X206519047Y-61040476D01*
X206519047Y-61183333D01*
X206471428Y-61278571D01*
X206376190Y-61326190D01*
X206328571Y-61326190D01*
X206233333Y-61278571D01*
X206185714Y-61183333D01*
X206185714Y-61040476D01*
X206233333Y-60945238D01*
X206852380Y-60469047D02*
X206185714Y-60469047D01*
X206376190Y-60469047D02*
X206280952Y-60421428D01*
X206233333Y-60373809D01*
X206185714Y-60278571D01*
X206185714Y-60183333D01*
X205852380Y-59659523D02*
X205852380Y-59564285D01*
X205900000Y-59469047D01*
X205947619Y-59421428D01*
X206042857Y-59373809D01*
X206233333Y-59326190D01*
X206471428Y-59326190D01*
X206661904Y-59373809D01*
X206757142Y-59421428D01*
X206804761Y-59469047D01*
X206852380Y-59564285D01*
X206852380Y-59659523D01*
X206804761Y-59754761D01*
X206757142Y-59802380D01*
X206661904Y-59850000D01*
X206471428Y-59897619D01*
X206233333Y-59897619D01*
X206042857Y-59850000D01*
X205947619Y-59802380D01*
X205900000Y-59754761D01*
X205852380Y-59659523D01*
X206185714Y-58469047D02*
X206852380Y-58469047D01*
X205804761Y-58707142D02*
X206519047Y-58945238D01*
X206519047Y-58326190D01*
G04 #@! TO.C,R6*
X156909523Y-79202380D02*
X156338095Y-79202380D01*
X156623809Y-79202380D02*
X156623809Y-78202380D01*
X156528571Y-78345238D01*
X156433333Y-78440476D01*
X156338095Y-78488095D01*
X157528571Y-78202380D02*
X157623809Y-78202380D01*
X157719047Y-78250000D01*
X157766666Y-78297619D01*
X157814285Y-78392857D01*
X157861904Y-78583333D01*
X157861904Y-78821428D01*
X157814285Y-79011904D01*
X157766666Y-79107142D01*
X157719047Y-79154761D01*
X157623809Y-79202380D01*
X157528571Y-79202380D01*
X157433333Y-79154761D01*
X157385714Y-79107142D01*
X157338095Y-79011904D01*
X157290476Y-78821428D01*
X157290476Y-78583333D01*
X157338095Y-78392857D01*
X157385714Y-78297619D01*
X157433333Y-78250000D01*
X157528571Y-78202380D01*
X158290476Y-79202380D02*
X158290476Y-78202380D01*
X158861904Y-79202380D02*
X158433333Y-78630952D01*
X158861904Y-78202380D02*
X158290476Y-78773809D01*
D16*
X157516666Y-77326190D02*
X157350000Y-77088095D01*
X157230952Y-77326190D02*
X157230952Y-76826190D01*
X157421428Y-76826190D01*
X157469047Y-76850000D01*
X157492857Y-76873809D01*
X157516666Y-76921428D01*
X157516666Y-76992857D01*
X157492857Y-77040476D01*
X157469047Y-77064285D01*
X157421428Y-77088095D01*
X157230952Y-77088095D01*
X157945238Y-76826190D02*
X157850000Y-76826190D01*
X157802380Y-76850000D01*
X157778571Y-76873809D01*
X157730952Y-76945238D01*
X157707142Y-77040476D01*
X157707142Y-77230952D01*
X157730952Y-77278571D01*
X157754761Y-77302380D01*
X157802380Y-77326190D01*
X157897619Y-77326190D01*
X157945238Y-77302380D01*
X157969047Y-77278571D01*
X157992857Y-77230952D01*
X157992857Y-77111904D01*
X157969047Y-77064285D01*
X157945238Y-77040476D01*
X157897619Y-77016666D01*
X157802380Y-77016666D01*
X157754761Y-77040476D01*
X157730952Y-77064285D01*
X157707142Y-77111904D01*
G04 #@! TO.C,J2*
D11*
X155547142Y-104893333D02*
X155594761Y-104940952D01*
X155642380Y-105083809D01*
X155642380Y-105179047D01*
X155594761Y-105321904D01*
X155499523Y-105417142D01*
X155404285Y-105464761D01*
X155213809Y-105512380D01*
X155070952Y-105512380D01*
X154880476Y-105464761D01*
X154785238Y-105417142D01*
X154690000Y-105321904D01*
X154642380Y-105179047D01*
X154642380Y-105083809D01*
X154690000Y-104940952D01*
X154737619Y-104893333D01*
X155642380Y-104321904D02*
X155594761Y-104417142D01*
X155547142Y-104464761D01*
X155451904Y-104512380D01*
X155166190Y-104512380D01*
X155070952Y-104464761D01*
X155023333Y-104417142D01*
X154975714Y-104321904D01*
X154975714Y-104179047D01*
X155023333Y-104083809D01*
X155070952Y-104036190D01*
X155166190Y-103988571D01*
X155451904Y-103988571D01*
X155547142Y-104036190D01*
X155594761Y-104083809D01*
X155642380Y-104179047D01*
X155642380Y-104321904D01*
X154975714Y-103560000D02*
X155642380Y-103560000D01*
X155070952Y-103560000D02*
X155023333Y-103512380D01*
X154975714Y-103417142D01*
X154975714Y-103274285D01*
X155023333Y-103179047D01*
X155118571Y-103131428D01*
X155642380Y-103131428D01*
X154975714Y-102655238D02*
X155642380Y-102655238D01*
X155070952Y-102655238D02*
X155023333Y-102607619D01*
X154975714Y-102512380D01*
X154975714Y-102369523D01*
X155023333Y-102274285D01*
X155118571Y-102226666D01*
X155642380Y-102226666D01*
X155737619Y-101988571D02*
X155737619Y-101226666D01*
X154642380Y-100798095D02*
X154642380Y-100702857D01*
X154690000Y-100607619D01*
X154737619Y-100560000D01*
X154832857Y-100512380D01*
X155023333Y-100464761D01*
X155261428Y-100464761D01*
X155451904Y-100512380D01*
X155547142Y-100560000D01*
X155594761Y-100607619D01*
X155642380Y-100702857D01*
X155642380Y-100798095D01*
X155594761Y-100893333D01*
X155547142Y-100940952D01*
X155451904Y-100988571D01*
X155261428Y-101036190D01*
X155023333Y-101036190D01*
X154832857Y-100988571D01*
X154737619Y-100940952D01*
X154690000Y-100893333D01*
X154642380Y-100798095D01*
X155642380Y-99512380D02*
X155642380Y-100083809D01*
X155642380Y-99798095D02*
X154642380Y-99798095D01*
X154785238Y-99893333D01*
X154880476Y-99988571D01*
X154928095Y-100083809D01*
X155642380Y-99179047D02*
X154975714Y-98655238D01*
X154975714Y-99179047D02*
X155642380Y-98655238D01*
X154642380Y-98083809D02*
X154642380Y-97988571D01*
X154690000Y-97893333D01*
X154737619Y-97845714D01*
X154832857Y-97798095D01*
X155023333Y-97750476D01*
X155261428Y-97750476D01*
X155451904Y-97798095D01*
X155547142Y-97845714D01*
X155594761Y-97893333D01*
X155642380Y-97988571D01*
X155642380Y-98083809D01*
X155594761Y-98179047D01*
X155547142Y-98226666D01*
X155451904Y-98274285D01*
X155261428Y-98321904D01*
X155023333Y-98321904D01*
X154832857Y-98274285D01*
X154737619Y-98226666D01*
X154690000Y-98179047D01*
X154642380Y-98083809D01*
X154737619Y-97369523D02*
X154690000Y-97321904D01*
X154642380Y-97226666D01*
X154642380Y-96988571D01*
X154690000Y-96893333D01*
X154737619Y-96845714D01*
X154832857Y-96798095D01*
X154928095Y-96798095D01*
X155070952Y-96845714D01*
X155642380Y-97417142D01*
X155642380Y-96798095D01*
X155737619Y-96607619D02*
X155737619Y-95845714D01*
X155642380Y-95607619D02*
X154642380Y-95607619D01*
X155356666Y-95274285D01*
X154642380Y-94940952D01*
X155642380Y-94940952D01*
X155642380Y-94036190D02*
X155118571Y-94036190D01*
X155023333Y-94083809D01*
X154975714Y-94179047D01*
X154975714Y-94369523D01*
X155023333Y-94464761D01*
X155594761Y-94036190D02*
X155642380Y-94131428D01*
X155642380Y-94369523D01*
X155594761Y-94464761D01*
X155499523Y-94512380D01*
X155404285Y-94512380D01*
X155309047Y-94464761D01*
X155261428Y-94369523D01*
X155261428Y-94131428D01*
X155213809Y-94036190D01*
X155642380Y-93417142D02*
X155594761Y-93512380D01*
X155499523Y-93560000D01*
X154642380Y-93560000D01*
X155594761Y-92655238D02*
X155642380Y-92750476D01*
X155642380Y-92940952D01*
X155594761Y-93036190D01*
X155499523Y-93083809D01*
X155118571Y-93083809D01*
X155023333Y-93036190D01*
X154975714Y-92940952D01*
X154975714Y-92750476D01*
X155023333Y-92655238D01*
X155118571Y-92607619D01*
X155213809Y-92607619D01*
X155309047Y-93083809D01*
X151796666Y-98512380D02*
X151796666Y-99226666D01*
X151749047Y-99369523D01*
X151653809Y-99464761D01*
X151510952Y-99512380D01*
X151415714Y-99512380D01*
X152225238Y-98607619D02*
X152272857Y-98560000D01*
X152368095Y-98512380D01*
X152606190Y-98512380D01*
X152701428Y-98560000D01*
X152749047Y-98607619D01*
X152796666Y-98702857D01*
X152796666Y-98798095D01*
X152749047Y-98940952D01*
X152177619Y-99512380D01*
X152796666Y-99512380D01*
G04 #@! TO.C,R5*
X176452380Y-88397619D02*
X176452380Y-88302380D01*
X176500000Y-88207142D01*
X176547619Y-88159523D01*
X176642857Y-88111904D01*
X176833333Y-88064285D01*
X177071428Y-88064285D01*
X177261904Y-88111904D01*
X177357142Y-88159523D01*
X177404761Y-88207142D01*
X177452380Y-88302380D01*
X177452380Y-88397619D01*
X177404761Y-88492857D01*
X177357142Y-88540476D01*
X177261904Y-88588095D01*
X177071428Y-88635714D01*
X176833333Y-88635714D01*
X176642857Y-88588095D01*
X176547619Y-88540476D01*
X176500000Y-88492857D01*
X176452380Y-88397619D01*
D16*
X178876190Y-88433333D02*
X178638095Y-88600000D01*
X178876190Y-88719047D02*
X178376190Y-88719047D01*
X178376190Y-88528571D01*
X178400000Y-88480952D01*
X178423809Y-88457142D01*
X178471428Y-88433333D01*
X178542857Y-88433333D01*
X178590476Y-88457142D01*
X178614285Y-88480952D01*
X178638095Y-88528571D01*
X178638095Y-88719047D01*
X178376190Y-87980952D02*
X178376190Y-88219047D01*
X178614285Y-88242857D01*
X178590476Y-88219047D01*
X178566666Y-88171428D01*
X178566666Y-88052380D01*
X178590476Y-88004761D01*
X178614285Y-87980952D01*
X178661904Y-87957142D01*
X178780952Y-87957142D01*
X178828571Y-87980952D01*
X178852380Y-88004761D01*
X178876190Y-88052380D01*
X178876190Y-88171428D01*
X178852380Y-88219047D01*
X178828571Y-88242857D01*
G04 #@! TO.C,R4*
D11*
X166551619Y-86383714D02*
X166504000Y-86336095D01*
X166456380Y-86240857D01*
X166456380Y-86002761D01*
X166504000Y-85907523D01*
X166551619Y-85859904D01*
X166646857Y-85812285D01*
X166742095Y-85812285D01*
X166884952Y-85859904D01*
X167456380Y-86431333D01*
X167456380Y-85812285D01*
X167456380Y-85383714D02*
X166456380Y-85383714D01*
X167456380Y-84812285D02*
X166884952Y-85240857D01*
X166456380Y-84812285D02*
X167027809Y-85383714D01*
D16*
X165580190Y-85681333D02*
X165342095Y-85848000D01*
X165580190Y-85967047D02*
X165080190Y-85967047D01*
X165080190Y-85776571D01*
X165104000Y-85728952D01*
X165127809Y-85705142D01*
X165175428Y-85681333D01*
X165246857Y-85681333D01*
X165294476Y-85705142D01*
X165318285Y-85728952D01*
X165342095Y-85776571D01*
X165342095Y-85967047D01*
X165246857Y-85252761D02*
X165580190Y-85252761D01*
X165056380Y-85371809D02*
X165413523Y-85490857D01*
X165413523Y-85181333D01*
G04 #@! TO.C,R2*
D11*
X167657632Y-83124678D02*
X167253571Y-83528739D01*
X167455602Y-83326709D02*
X166748495Y-82619602D01*
X166782167Y-82787961D01*
X166782167Y-82922648D01*
X166748495Y-83023663D01*
X167960678Y-82821632D02*
X167253571Y-82114525D01*
X168364739Y-82417571D02*
X167657632Y-82316556D01*
X167657632Y-81710464D02*
X167657632Y-82518586D01*
D16*
X168757015Y-84038866D02*
X168470805Y-83988358D01*
X168554984Y-84240896D02*
X168201431Y-83887343D01*
X168336118Y-83752656D01*
X168386625Y-83735820D01*
X168420297Y-83735820D01*
X168470805Y-83752656D01*
X168521312Y-83803164D01*
X168538148Y-83853671D01*
X168538148Y-83887343D01*
X168521312Y-83937851D01*
X168386625Y-84072538D01*
X168571820Y-83584297D02*
X168571820Y-83550625D01*
X168588656Y-83500118D01*
X168672835Y-83415938D01*
X168723343Y-83399103D01*
X168757015Y-83399103D01*
X168807522Y-83415938D01*
X168841194Y-83449610D01*
X168874866Y-83516954D01*
X168874866Y-83921015D01*
X169093732Y-83702148D01*
G04 #@! TO.C,R3*
D11*
X150947523Y-100402380D02*
X150376095Y-100402380D01*
X150661809Y-100402380D02*
X150661809Y-99402380D01*
X150566571Y-99545238D01*
X150471333Y-99640476D01*
X150376095Y-99688095D01*
X151566571Y-99402380D02*
X151661809Y-99402380D01*
X151757047Y-99450000D01*
X151804666Y-99497619D01*
X151852285Y-99592857D01*
X151899904Y-99783333D01*
X151899904Y-100021428D01*
X151852285Y-100211904D01*
X151804666Y-100307142D01*
X151757047Y-100354761D01*
X151661809Y-100402380D01*
X151566571Y-100402380D01*
X151471333Y-100354761D01*
X151423714Y-100307142D01*
X151376095Y-100211904D01*
X151328476Y-100021428D01*
X151328476Y-99783333D01*
X151376095Y-99592857D01*
X151423714Y-99497619D01*
X151471333Y-99450000D01*
X151566571Y-99402380D01*
X152328476Y-100402380D02*
X152328476Y-99402380D01*
X152899904Y-100402380D02*
X152471333Y-99830952D01*
X152899904Y-99402380D02*
X152328476Y-99973809D01*
D16*
X151554666Y-101826190D02*
X151388000Y-101588095D01*
X151268952Y-101826190D02*
X151268952Y-101326190D01*
X151459428Y-101326190D01*
X151507047Y-101350000D01*
X151530857Y-101373809D01*
X151554666Y-101421428D01*
X151554666Y-101492857D01*
X151530857Y-101540476D01*
X151507047Y-101564285D01*
X151459428Y-101588095D01*
X151268952Y-101588095D01*
X151721333Y-101326190D02*
X152030857Y-101326190D01*
X151864190Y-101516666D01*
X151935619Y-101516666D01*
X151983238Y-101540476D01*
X152007047Y-101564285D01*
X152030857Y-101611904D01*
X152030857Y-101730952D01*
X152007047Y-101778571D01*
X151983238Y-101802380D01*
X151935619Y-101826190D01*
X151792761Y-101826190D01*
X151745142Y-101802380D01*
X151721333Y-101778571D01*
G04 #@! TO.C,C3*
D11*
X161518452Y-98019142D02*
X161470833Y-98066761D01*
X161327976Y-98114380D01*
X161232738Y-98114380D01*
X161089880Y-98066761D01*
X160994642Y-97971523D01*
X160947023Y-97876285D01*
X160899404Y-97685809D01*
X160899404Y-97542952D01*
X160947023Y-97352476D01*
X160994642Y-97257238D01*
X161089880Y-97162000D01*
X161232738Y-97114380D01*
X161327976Y-97114380D01*
X161470833Y-97162000D01*
X161518452Y-97209619D01*
X161899404Y-97828666D02*
X162375595Y-97828666D01*
X161804166Y-98114380D02*
X162137500Y-97114380D01*
X162470833Y-98114380D01*
X162804166Y-98114380D02*
X162804166Y-97114380D01*
X163185119Y-97114380D01*
X163280357Y-97162000D01*
X163327976Y-97209619D01*
X163375595Y-97304857D01*
X163375595Y-97447714D01*
X163327976Y-97542952D01*
X163280357Y-97590571D01*
X163185119Y-97638190D01*
X162804166Y-97638190D01*
D16*
X162054166Y-96190571D02*
X162030357Y-96214380D01*
X161958928Y-96238190D01*
X161911309Y-96238190D01*
X161839880Y-96214380D01*
X161792261Y-96166761D01*
X161768452Y-96119142D01*
X161744642Y-96023904D01*
X161744642Y-95952476D01*
X161768452Y-95857238D01*
X161792261Y-95809619D01*
X161839880Y-95762000D01*
X161911309Y-95738190D01*
X161958928Y-95738190D01*
X162030357Y-95762000D01*
X162054166Y-95785809D01*
X162220833Y-95738190D02*
X162530357Y-95738190D01*
X162363690Y-95928666D01*
X162435119Y-95928666D01*
X162482738Y-95952476D01*
X162506547Y-95976285D01*
X162530357Y-96023904D01*
X162530357Y-96142952D01*
X162506547Y-96190571D01*
X162482738Y-96214380D01*
X162435119Y-96238190D01*
X162292261Y-96238190D01*
X162244642Y-96214380D01*
X162220833Y-96190571D01*
G04 #@! TO.C,C2*
D11*
X160446079Y-75469544D02*
X160446079Y-75536888D01*
X160378735Y-75671575D01*
X160311392Y-75738918D01*
X160176705Y-75806262D01*
X160042018Y-75806262D01*
X159941003Y-75772590D01*
X159772644Y-75671575D01*
X159671629Y-75570560D01*
X159570613Y-75402201D01*
X159536942Y-75301186D01*
X159536942Y-75166499D01*
X159604285Y-75031812D01*
X159671629Y-74964468D01*
X159806316Y-74897125D01*
X159873659Y-74897125D01*
X160580766Y-75065483D02*
X160917483Y-74728766D01*
X160715453Y-75334857D02*
X160244048Y-74392048D01*
X161186857Y-74863453D01*
X161422560Y-74627751D02*
X160715453Y-73920644D01*
X160984827Y-73651270D01*
X161085842Y-73617598D01*
X161153186Y-73617598D01*
X161254201Y-73651270D01*
X161355216Y-73752285D01*
X161388888Y-73853300D01*
X161388888Y-73920644D01*
X161355216Y-74021659D01*
X161085842Y-74291033D01*
D16*
X161865343Y-76131194D02*
X161865343Y-76164866D01*
X161831671Y-76232209D01*
X161798000Y-76265881D01*
X161730656Y-76299553D01*
X161663312Y-76299553D01*
X161612805Y-76282717D01*
X161528625Y-76232209D01*
X161478118Y-76181702D01*
X161427610Y-76097522D01*
X161410774Y-76047015D01*
X161410774Y-75979671D01*
X161444446Y-75912328D01*
X161478118Y-75878656D01*
X161545461Y-75844984D01*
X161579133Y-75844984D01*
X161713820Y-75710297D02*
X161713820Y-75676625D01*
X161730656Y-75626118D01*
X161814835Y-75541938D01*
X161865343Y-75525103D01*
X161899015Y-75525103D01*
X161949522Y-75541938D01*
X161983194Y-75575610D01*
X162016866Y-75642954D01*
X162016866Y-76047015D01*
X162235732Y-75828148D01*
G04 #@! TO.C,C1*
D11*
X171681142Y-75295047D02*
X171728761Y-75342666D01*
X171776380Y-75485523D01*
X171776380Y-75580761D01*
X171728761Y-75723619D01*
X171633523Y-75818857D01*
X171538285Y-75866476D01*
X171347809Y-75914095D01*
X171204952Y-75914095D01*
X171014476Y-75866476D01*
X170919238Y-75818857D01*
X170824000Y-75723619D01*
X170776380Y-75580761D01*
X170776380Y-75485523D01*
X170824000Y-75342666D01*
X170871619Y-75295047D01*
X171490666Y-74914095D02*
X171490666Y-74437904D01*
X171776380Y-75009333D02*
X170776380Y-74676000D01*
X171776380Y-74342666D01*
X171776380Y-74009333D02*
X170776380Y-74009333D01*
X170776380Y-73628380D01*
X170824000Y-73533142D01*
X170871619Y-73485523D01*
X170966857Y-73437904D01*
X171109714Y-73437904D01*
X171204952Y-73485523D01*
X171252571Y-73533142D01*
X171300190Y-73628380D01*
X171300190Y-74009333D01*
D16*
X173152571Y-74759333D02*
X173176380Y-74783142D01*
X173200190Y-74854571D01*
X173200190Y-74902190D01*
X173176380Y-74973619D01*
X173128761Y-75021238D01*
X173081142Y-75045047D01*
X172985904Y-75068857D01*
X172914476Y-75068857D01*
X172819238Y-75045047D01*
X172771619Y-75021238D01*
X172724000Y-74973619D01*
X172700190Y-74902190D01*
X172700190Y-74854571D01*
X172724000Y-74783142D01*
X172747809Y-74759333D01*
X173200190Y-74283142D02*
X173200190Y-74568857D01*
X173200190Y-74426000D02*
X172700190Y-74426000D01*
X172771619Y-74473619D01*
X172819238Y-74521238D01*
X172843047Y-74568857D01*
G04 #@! TO.C,U1*
D11*
X133198571Y-90880476D02*
X133198571Y-90547142D01*
X133722380Y-90404285D02*
X133722380Y-90880476D01*
X132722380Y-90880476D01*
X132722380Y-90404285D01*
X133674761Y-90023333D02*
X133722380Y-89880476D01*
X133722380Y-89642380D01*
X133674761Y-89547142D01*
X133627142Y-89499523D01*
X133531904Y-89451904D01*
X133436666Y-89451904D01*
X133341428Y-89499523D01*
X133293809Y-89547142D01*
X133246190Y-89642380D01*
X133198571Y-89832857D01*
X133150952Y-89928095D01*
X133103333Y-89975714D01*
X133008095Y-90023333D01*
X132912857Y-90023333D01*
X132817619Y-89975714D01*
X132770000Y-89928095D01*
X132722380Y-89832857D01*
X132722380Y-89594761D01*
X132770000Y-89451904D01*
X133722380Y-89023333D02*
X132722380Y-89023333D01*
X132722380Y-88642380D01*
X132770000Y-88547142D01*
X132817619Y-88499523D01*
X132912857Y-88451904D01*
X133055714Y-88451904D01*
X133150952Y-88499523D01*
X133198571Y-88547142D01*
X133246190Y-88642380D01*
X133246190Y-89023333D01*
X133341428Y-88023333D02*
X133341428Y-87261428D01*
X133722380Y-86261428D02*
X133722380Y-86832857D01*
X133722380Y-86547142D02*
X132722380Y-86547142D01*
X132865238Y-86642380D01*
X132960476Y-86737619D01*
X133008095Y-86832857D01*
X132817619Y-85880476D02*
X132770000Y-85832857D01*
X132722380Y-85737619D01*
X132722380Y-85499523D01*
X132770000Y-85404285D01*
X132817619Y-85356666D01*
X132912857Y-85309047D01*
X133008095Y-85309047D01*
X133150952Y-85356666D01*
X133722380Y-85928095D01*
X133722380Y-85309047D01*
X133198571Y-84547142D02*
X133198571Y-84880476D01*
X133722380Y-84880476D02*
X132722380Y-84880476D01*
X132722380Y-84404285D01*
X144702380Y-87901904D02*
X145511904Y-87901904D01*
X145607142Y-87854285D01*
X145654761Y-87806666D01*
X145702380Y-87711428D01*
X145702380Y-87520952D01*
X145654761Y-87425714D01*
X145607142Y-87378095D01*
X145511904Y-87330476D01*
X144702380Y-87330476D01*
X145702380Y-86330476D02*
X145702380Y-86901904D01*
X145702380Y-86616190D02*
X144702380Y-86616190D01*
X144845238Y-86711428D01*
X144940476Y-86806666D01*
X144988095Y-86901904D01*
G04 #@! TO.C,R1*
X153559523Y-77002380D02*
X152988095Y-77002380D01*
X153273809Y-77002380D02*
X153273809Y-76002380D01*
X153178571Y-76145238D01*
X153083333Y-76240476D01*
X152988095Y-76288095D01*
X154178571Y-76002380D02*
X154273809Y-76002380D01*
X154369047Y-76050000D01*
X154416666Y-76097619D01*
X154464285Y-76192857D01*
X154511904Y-76383333D01*
X154511904Y-76621428D01*
X154464285Y-76811904D01*
X154416666Y-76907142D01*
X154369047Y-76954761D01*
X154273809Y-77002380D01*
X154178571Y-77002380D01*
X154083333Y-76954761D01*
X154035714Y-76907142D01*
X153988095Y-76811904D01*
X153940476Y-76621428D01*
X153940476Y-76383333D01*
X153988095Y-76192857D01*
X154035714Y-76097619D01*
X154083333Y-76050000D01*
X154178571Y-76002380D01*
X154940476Y-77002380D02*
X154940476Y-76002380D01*
X155511904Y-77002380D02*
X155083333Y-76430952D01*
X155511904Y-76002380D02*
X154940476Y-76573809D01*
D16*
X154166666Y-75126190D02*
X154000000Y-74888095D01*
X153880952Y-75126190D02*
X153880952Y-74626190D01*
X154071428Y-74626190D01*
X154119047Y-74650000D01*
X154142857Y-74673809D01*
X154166666Y-74721428D01*
X154166666Y-74792857D01*
X154142857Y-74840476D01*
X154119047Y-74864285D01*
X154071428Y-74888095D01*
X153880952Y-74888095D01*
X154642857Y-75126190D02*
X154357142Y-75126190D01*
X154500000Y-75126190D02*
X154500000Y-74626190D01*
X154452380Y-74697619D01*
X154404761Y-74745238D01*
X154357142Y-74769047D01*
G04 #@! TD*
M02*
