G04 #@! TF.GenerationSoftware,KiCad,Pcbnew,5.0.0-fee4fd1~66~ubuntu16.04.1*
G04 #@! TF.CreationDate,2018-09-18T23:27:24+02:00*
G04 #@! TF.ProjectId,iotbin,696F7462696E2E6B696361645F706362,rev?*
G04 #@! TF.SameCoordinates,Original*
G04 #@! TF.FileFunction,Legend,Top*
G04 #@! TF.FilePolarity,Positive*
%FSLAX46Y46*%
G04 Gerber Fmt 4.6, Leading zero omitted, Abs format (unit mm)*
G04 Created by KiCad (PCBNEW 5.0.0-fee4fd1~66~ubuntu16.04.1) date Tue Sep 18 23:27:24 2018*
%MOMM*%
%LPD*%
G01*
G04 APERTURE LIST*
%ADD10C,0.100000*%
%ADD11C,0.150000*%
%ADD12C,0.300000*%
%ADD13C,0.400000*%
%ADD14C,0.120000*%
G04 APERTURE END LIST*
D10*
D11*
X177002200Y-166007200D02*
X177002200Y-198007200D01*
X285002200Y-198007200D01*
X285002200Y-166007200D01*
X177002200Y-166007200D01*
D10*
D11*
X10000000Y-10000000D02*
X10000000Y-200007200D01*
X287002200Y-200007200D01*
X287002200Y-10000000D01*
X10000000Y-10000000D01*
D10*
D11*
X12000000Y-12000000D02*
X12000000Y-198007200D01*
X285002200Y-198007200D01*
X285002200Y-12000000D01*
X12000000Y-12000000D01*
D10*
D11*
X60000000Y-12000000D02*
X60000000Y-10000000D01*
D10*
D11*
X110000000Y-12000000D02*
X110000000Y-10000000D01*
D10*
D11*
X160000000Y-12000000D02*
X160000000Y-10000000D01*
D10*
D11*
X210000000Y-12000000D02*
X210000000Y-10000000D01*
D10*
D11*
X260000000Y-12000000D02*
X260000000Y-10000000D01*
D10*
D11*
X36065476Y-11588095D02*
X35322619Y-11588095D01*
X35694047Y-11588095D02*
X35694047Y-10288095D01*
X35570238Y-10473809D01*
X35446428Y-10597619D01*
X35322619Y-10659523D01*
D10*
D11*
X85322619Y-10411904D02*
X85384523Y-10350000D01*
X85508333Y-10288095D01*
X85817857Y-10288095D01*
X85941666Y-10350000D01*
X86003571Y-10411904D01*
X86065476Y-10535714D01*
X86065476Y-10659523D01*
X86003571Y-10845238D01*
X85260714Y-11588095D01*
X86065476Y-11588095D01*
D10*
D11*
X135260714Y-10288095D02*
X136065476Y-10288095D01*
X135632142Y-10783333D01*
X135817857Y-10783333D01*
X135941666Y-10845238D01*
X136003571Y-10907142D01*
X136065476Y-11030952D01*
X136065476Y-11340476D01*
X136003571Y-11464285D01*
X135941666Y-11526190D01*
X135817857Y-11588095D01*
X135446428Y-11588095D01*
X135322619Y-11526190D01*
X135260714Y-11464285D01*
D10*
D11*
X185941666Y-10721428D02*
X185941666Y-11588095D01*
X185632142Y-10226190D02*
X185322619Y-11154761D01*
X186127380Y-11154761D01*
D10*
D11*
X236003571Y-10288095D02*
X235384523Y-10288095D01*
X235322619Y-10907142D01*
X235384523Y-10845238D01*
X235508333Y-10783333D01*
X235817857Y-10783333D01*
X235941666Y-10845238D01*
X236003571Y-10907142D01*
X236065476Y-11030952D01*
X236065476Y-11340476D01*
X236003571Y-11464285D01*
X235941666Y-11526190D01*
X235817857Y-11588095D01*
X235508333Y-11588095D01*
X235384523Y-11526190D01*
X235322619Y-11464285D01*
D10*
D11*
X285941666Y-10288095D02*
X285694047Y-10288095D01*
X285570238Y-10350000D01*
X285508333Y-10411904D01*
X285384523Y-10597619D01*
X285322619Y-10845238D01*
X285322619Y-11340476D01*
X285384523Y-11464285D01*
X285446428Y-11526190D01*
X285570238Y-11588095D01*
X285817857Y-11588095D01*
X285941666Y-11526190D01*
X286003571Y-11464285D01*
X286065476Y-11340476D01*
X286065476Y-11030952D01*
X286003571Y-10907142D01*
X285941666Y-10845238D01*
X285817857Y-10783333D01*
X285570238Y-10783333D01*
X285446428Y-10845238D01*
X285384523Y-10907142D01*
X285322619Y-11030952D01*
D10*
D11*
X60000000Y-198007200D02*
X60000000Y-200007200D01*
D10*
D11*
X110000000Y-198007200D02*
X110000000Y-200007200D01*
D10*
D11*
X160000000Y-198007200D02*
X160000000Y-200007200D01*
D10*
D11*
X210000000Y-198007200D02*
X210000000Y-200007200D01*
D10*
D11*
X260000000Y-198007200D02*
X260000000Y-200007200D01*
D10*
D11*
X36065476Y-199595295D02*
X35322619Y-199595295D01*
X35694047Y-199595295D02*
X35694047Y-198295295D01*
X35570238Y-198481009D01*
X35446428Y-198604819D01*
X35322619Y-198666723D01*
D10*
D11*
X85322619Y-198419104D02*
X85384523Y-198357200D01*
X85508333Y-198295295D01*
X85817857Y-198295295D01*
X85941666Y-198357200D01*
X86003571Y-198419104D01*
X86065476Y-198542914D01*
X86065476Y-198666723D01*
X86003571Y-198852438D01*
X85260714Y-199595295D01*
X86065476Y-199595295D01*
D10*
D11*
X135260714Y-198295295D02*
X136065476Y-198295295D01*
X135632142Y-198790533D01*
X135817857Y-198790533D01*
X135941666Y-198852438D01*
X136003571Y-198914342D01*
X136065476Y-199038152D01*
X136065476Y-199347676D01*
X136003571Y-199471485D01*
X135941666Y-199533390D01*
X135817857Y-199595295D01*
X135446428Y-199595295D01*
X135322619Y-199533390D01*
X135260714Y-199471485D01*
D10*
D11*
X185941666Y-198728628D02*
X185941666Y-199595295D01*
X185632142Y-198233390D02*
X185322619Y-199161961D01*
X186127380Y-199161961D01*
D10*
D11*
X236003571Y-198295295D02*
X235384523Y-198295295D01*
X235322619Y-198914342D01*
X235384523Y-198852438D01*
X235508333Y-198790533D01*
X235817857Y-198790533D01*
X235941666Y-198852438D01*
X236003571Y-198914342D01*
X236065476Y-199038152D01*
X236065476Y-199347676D01*
X236003571Y-199471485D01*
X235941666Y-199533390D01*
X235817857Y-199595295D01*
X235508333Y-199595295D01*
X235384523Y-199533390D01*
X235322619Y-199471485D01*
D10*
D11*
X285941666Y-198295295D02*
X285694047Y-198295295D01*
X285570238Y-198357200D01*
X285508333Y-198419104D01*
X285384523Y-198604819D01*
X285322619Y-198852438D01*
X285322619Y-199347676D01*
X285384523Y-199471485D01*
X285446428Y-199533390D01*
X285570238Y-199595295D01*
X285817857Y-199595295D01*
X285941666Y-199533390D01*
X286003571Y-199471485D01*
X286065476Y-199347676D01*
X286065476Y-199038152D01*
X286003571Y-198914342D01*
X285941666Y-198852438D01*
X285817857Y-198790533D01*
X285570238Y-198790533D01*
X285446428Y-198852438D01*
X285384523Y-198914342D01*
X285322619Y-199038152D01*
D10*
D11*
X10000000Y-60000000D02*
X12000000Y-60000000D01*
D10*
D11*
X10000000Y-110000000D02*
X12000000Y-110000000D01*
D10*
D11*
X10000000Y-160000000D02*
X12000000Y-160000000D01*
D10*
D11*
X10690476Y-35216666D02*
X11309523Y-35216666D01*
X10566666Y-35588095D02*
X11000000Y-34288095D01*
X11433333Y-35588095D01*
D10*
D11*
X11092857Y-84907142D02*
X11278571Y-84969047D01*
X11340476Y-85030952D01*
X11402380Y-85154761D01*
X11402380Y-85340476D01*
X11340476Y-85464285D01*
X11278571Y-85526190D01*
X11154761Y-85588095D01*
X10659523Y-85588095D01*
X10659523Y-84288095D01*
X11092857Y-84288095D01*
X11216666Y-84350000D01*
X11278571Y-84411904D01*
X11340476Y-84535714D01*
X11340476Y-84659523D01*
X11278571Y-84783333D01*
X11216666Y-84845238D01*
X11092857Y-84907142D01*
X10659523Y-84907142D01*
D10*
D11*
X11402380Y-135464285D02*
X11340476Y-135526190D01*
X11154761Y-135588095D01*
X11030952Y-135588095D01*
X10845238Y-135526190D01*
X10721428Y-135402380D01*
X10659523Y-135278571D01*
X10597619Y-135030952D01*
X10597619Y-134845238D01*
X10659523Y-134597619D01*
X10721428Y-134473809D01*
X10845238Y-134350000D01*
X11030952Y-134288095D01*
X11154761Y-134288095D01*
X11340476Y-134350000D01*
X11402380Y-134411904D01*
D10*
D11*
X10659523Y-185588095D02*
X10659523Y-184288095D01*
X10969047Y-184288095D01*
X11154761Y-184350000D01*
X11278571Y-184473809D01*
X11340476Y-184597619D01*
X11402380Y-184845238D01*
X11402380Y-185030952D01*
X11340476Y-185278571D01*
X11278571Y-185402380D01*
X11154761Y-185526190D01*
X10969047Y-185588095D01*
X10659523Y-185588095D01*
D10*
D11*
X287002200Y-60000000D02*
X285002200Y-60000000D01*
D10*
D11*
X287002200Y-110000000D02*
X285002200Y-110000000D01*
D10*
D11*
X287002200Y-160000000D02*
X285002200Y-160000000D01*
D10*
D11*
X285692676Y-35216666D02*
X286311723Y-35216666D01*
X285568866Y-35588095D02*
X286002200Y-34288095D01*
X286435533Y-35588095D01*
D10*
D11*
X286095057Y-84907142D02*
X286280771Y-84969047D01*
X286342676Y-85030952D01*
X286404580Y-85154761D01*
X286404580Y-85340476D01*
X286342676Y-85464285D01*
X286280771Y-85526190D01*
X286156961Y-85588095D01*
X285661723Y-85588095D01*
X285661723Y-84288095D01*
X286095057Y-84288095D01*
X286218866Y-84350000D01*
X286280771Y-84411904D01*
X286342676Y-84535714D01*
X286342676Y-84659523D01*
X286280771Y-84783333D01*
X286218866Y-84845238D01*
X286095057Y-84907142D01*
X285661723Y-84907142D01*
D10*
D11*
X286404580Y-135464285D02*
X286342676Y-135526190D01*
X286156961Y-135588095D01*
X286033152Y-135588095D01*
X285847438Y-135526190D01*
X285723628Y-135402380D01*
X285661723Y-135278571D01*
X285599819Y-135030952D01*
X285599819Y-134845238D01*
X285661723Y-134597619D01*
X285723628Y-134473809D01*
X285847438Y-134350000D01*
X286033152Y-134288095D01*
X286156961Y-134288095D01*
X286342676Y-134350000D01*
X286404580Y-134411904D01*
D10*
D11*
X285661723Y-185588095D02*
X285661723Y-184288095D01*
X285971247Y-184288095D01*
X286156961Y-184350000D01*
X286280771Y-184473809D01*
X286342676Y-184597619D01*
X286404580Y-184845238D01*
X286404580Y-185030952D01*
X286342676Y-185278571D01*
X286280771Y-185402380D01*
X286156961Y-185526190D01*
X285971247Y-185588095D01*
X285661723Y-185588095D01*
D10*
D11*
X200434342Y-193785771D02*
X200434342Y-192285771D01*
X200791485Y-192285771D01*
X201005771Y-192357200D01*
X201148628Y-192500057D01*
X201220057Y-192642914D01*
X201291485Y-192928628D01*
X201291485Y-193142914D01*
X201220057Y-193428628D01*
X201148628Y-193571485D01*
X201005771Y-193714342D01*
X200791485Y-193785771D01*
X200434342Y-193785771D01*
X202577200Y-193785771D02*
X202577200Y-193000057D01*
X202505771Y-192857200D01*
X202362914Y-192785771D01*
X202077200Y-192785771D01*
X201934342Y-192857200D01*
X202577200Y-193714342D02*
X202434342Y-193785771D01*
X202077200Y-193785771D01*
X201934342Y-193714342D01*
X201862914Y-193571485D01*
X201862914Y-193428628D01*
X201934342Y-193285771D01*
X202077200Y-193214342D01*
X202434342Y-193214342D01*
X202577200Y-193142914D01*
X203077200Y-192785771D02*
X203648628Y-192785771D01*
X203291485Y-192285771D02*
X203291485Y-193571485D01*
X203362914Y-193714342D01*
X203505771Y-193785771D01*
X203648628Y-193785771D01*
X204720057Y-193714342D02*
X204577200Y-193785771D01*
X204291485Y-193785771D01*
X204148628Y-193714342D01*
X204077200Y-193571485D01*
X204077200Y-193000057D01*
X204148628Y-192857200D01*
X204291485Y-192785771D01*
X204577200Y-192785771D01*
X204720057Y-192857200D01*
X204791485Y-193000057D01*
X204791485Y-193142914D01*
X204077200Y-193285771D01*
X205434342Y-193642914D02*
X205505771Y-193714342D01*
X205434342Y-193785771D01*
X205362914Y-193714342D01*
X205434342Y-193642914D01*
X205434342Y-193785771D01*
X205434342Y-192857200D02*
X205505771Y-192928628D01*
X205434342Y-193000057D01*
X205362914Y-192928628D01*
X205434342Y-192857200D01*
X205434342Y-193000057D01*
D10*
D11*
X177002200Y-194507200D02*
X285002200Y-194507200D01*
D10*
D11*
X178434342Y-196585771D02*
X178434342Y-195085771D01*
X179291485Y-196585771D02*
X178648628Y-195728628D01*
X179291485Y-195085771D02*
X178434342Y-195942914D01*
X179934342Y-196585771D02*
X179934342Y-195585771D01*
X179934342Y-195085771D02*
X179862914Y-195157200D01*
X179934342Y-195228628D01*
X180005771Y-195157200D01*
X179934342Y-195085771D01*
X179934342Y-195228628D01*
X181505771Y-196442914D02*
X181434342Y-196514342D01*
X181220057Y-196585771D01*
X181077200Y-196585771D01*
X180862914Y-196514342D01*
X180720057Y-196371485D01*
X180648628Y-196228628D01*
X180577200Y-195942914D01*
X180577200Y-195728628D01*
X180648628Y-195442914D01*
X180720057Y-195300057D01*
X180862914Y-195157200D01*
X181077200Y-195085771D01*
X181220057Y-195085771D01*
X181434342Y-195157200D01*
X181505771Y-195228628D01*
X182791485Y-196585771D02*
X182791485Y-195800057D01*
X182720057Y-195657200D01*
X182577200Y-195585771D01*
X182291485Y-195585771D01*
X182148628Y-195657200D01*
X182791485Y-196514342D02*
X182648628Y-196585771D01*
X182291485Y-196585771D01*
X182148628Y-196514342D01*
X182077200Y-196371485D01*
X182077200Y-196228628D01*
X182148628Y-196085771D01*
X182291485Y-196014342D01*
X182648628Y-196014342D01*
X182791485Y-195942914D01*
X184148628Y-196585771D02*
X184148628Y-195085771D01*
X184148628Y-196514342D02*
X184005771Y-196585771D01*
X183720057Y-196585771D01*
X183577200Y-196514342D01*
X183505771Y-196442914D01*
X183434342Y-196300057D01*
X183434342Y-195871485D01*
X183505771Y-195728628D01*
X183577200Y-195657200D01*
X183720057Y-195585771D01*
X184005771Y-195585771D01*
X184148628Y-195657200D01*
X186005771Y-195800057D02*
X186505771Y-195800057D01*
X186720057Y-196585771D02*
X186005771Y-196585771D01*
X186005771Y-195085771D01*
X186720057Y-195085771D01*
X187362914Y-196442914D02*
X187434342Y-196514342D01*
X187362914Y-196585771D01*
X187291485Y-196514342D01*
X187362914Y-196442914D01*
X187362914Y-196585771D01*
X188077200Y-196585771D02*
X188077200Y-195085771D01*
X188434342Y-195085771D01*
X188648628Y-195157200D01*
X188791485Y-195300057D01*
X188862914Y-195442914D01*
X188934342Y-195728628D01*
X188934342Y-195942914D01*
X188862914Y-196228628D01*
X188791485Y-196371485D01*
X188648628Y-196514342D01*
X188434342Y-196585771D01*
X188077200Y-196585771D01*
X189577200Y-196442914D02*
X189648628Y-196514342D01*
X189577200Y-196585771D01*
X189505771Y-196514342D01*
X189577200Y-196442914D01*
X189577200Y-196585771D01*
X190220057Y-196157200D02*
X190934342Y-196157200D01*
X190077200Y-196585771D02*
X190577200Y-195085771D01*
X191077200Y-196585771D01*
X191577200Y-196442914D02*
X191648628Y-196514342D01*
X191577200Y-196585771D01*
X191505771Y-196514342D01*
X191577200Y-196442914D01*
X191577200Y-196585771D01*
X194577200Y-196585771D02*
X194577200Y-195085771D01*
X194720057Y-196014342D02*
X195148628Y-196585771D01*
X195148628Y-195585771D02*
X194577200Y-196157200D01*
X195791485Y-196585771D02*
X195791485Y-195585771D01*
X195791485Y-195085771D02*
X195720057Y-195157200D01*
X195791485Y-195228628D01*
X195862914Y-195157200D01*
X195791485Y-195085771D01*
X195791485Y-195228628D01*
X197148628Y-196514342D02*
X197005771Y-196585771D01*
X196720057Y-196585771D01*
X196577200Y-196514342D01*
X196505771Y-196442914D01*
X196434342Y-196300057D01*
X196434342Y-195871485D01*
X196505771Y-195728628D01*
X196577200Y-195657200D01*
X196720057Y-195585771D01*
X197005771Y-195585771D01*
X197148628Y-195657200D01*
X198434342Y-196585771D02*
X198434342Y-195800057D01*
X198362914Y-195657200D01*
X198220057Y-195585771D01*
X197934342Y-195585771D01*
X197791485Y-195657200D01*
X198434342Y-196514342D02*
X198291485Y-196585771D01*
X197934342Y-196585771D01*
X197791485Y-196514342D01*
X197720057Y-196371485D01*
X197720057Y-196228628D01*
X197791485Y-196085771D01*
X197934342Y-196014342D01*
X198291485Y-196014342D01*
X198434342Y-195942914D01*
X199791485Y-196585771D02*
X199791485Y-195085771D01*
X199791485Y-196514342D02*
X199648628Y-196585771D01*
X199362914Y-196585771D01*
X199220057Y-196514342D01*
X199148628Y-196442914D01*
X199077200Y-196300057D01*
X199077200Y-195871485D01*
X199148628Y-195728628D01*
X199220057Y-195657200D01*
X199362914Y-195585771D01*
X199648628Y-195585771D01*
X199791485Y-195657200D01*
X202362914Y-195085771D02*
X201648628Y-195085771D01*
X201577200Y-195800057D01*
X201648628Y-195728628D01*
X201791485Y-195657200D01*
X202148628Y-195657200D01*
X202291485Y-195728628D01*
X202362914Y-195800057D01*
X202434342Y-195942914D01*
X202434342Y-196300057D01*
X202362914Y-196442914D01*
X202291485Y-196514342D01*
X202148628Y-196585771D01*
X201791485Y-196585771D01*
X201648628Y-196514342D01*
X201577200Y-196442914D01*
X203077200Y-196442914D02*
X203148628Y-196514342D01*
X203077200Y-196585771D01*
X203005771Y-196514342D01*
X203077200Y-196442914D01*
X203077200Y-196585771D01*
X204077200Y-195085771D02*
X204220057Y-195085771D01*
X204362914Y-195157200D01*
X204434342Y-195228628D01*
X204505771Y-195371485D01*
X204577200Y-195657200D01*
X204577200Y-196014342D01*
X204505771Y-196300057D01*
X204434342Y-196442914D01*
X204362914Y-196514342D01*
X204220057Y-196585771D01*
X204077200Y-196585771D01*
X203934342Y-196514342D01*
X203862914Y-196442914D01*
X203791485Y-196300057D01*
X203720057Y-196014342D01*
X203720057Y-195657200D01*
X203791485Y-195371485D01*
X203862914Y-195228628D01*
X203934342Y-195157200D01*
X204077200Y-195085771D01*
X205220057Y-196442914D02*
X205291485Y-196514342D01*
X205220057Y-196585771D01*
X205148628Y-196514342D01*
X205220057Y-196442914D01*
X205220057Y-196585771D01*
X206220057Y-195085771D02*
X206362914Y-195085771D01*
X206505771Y-195157200D01*
X206577200Y-195228628D01*
X206648628Y-195371485D01*
X206720057Y-195657200D01*
X206720057Y-196014342D01*
X206648628Y-196300057D01*
X206577200Y-196442914D01*
X206505771Y-196514342D01*
X206362914Y-196585771D01*
X206220057Y-196585771D01*
X206077200Y-196514342D01*
X206005771Y-196442914D01*
X205934342Y-196300057D01*
X205862914Y-196014342D01*
X205862914Y-195657200D01*
X205934342Y-195371485D01*
X206005771Y-195228628D01*
X206077200Y-195157200D01*
X206220057Y-195085771D01*
X207362914Y-196014342D02*
X208505771Y-196014342D01*
X209005771Y-195585771D02*
X209577200Y-195585771D01*
X209220057Y-196585771D02*
X209220057Y-195300057D01*
X209291485Y-195157200D01*
X209434342Y-195085771D01*
X209577200Y-195085771D01*
X210648628Y-196514342D02*
X210505771Y-196585771D01*
X210220057Y-196585771D01*
X210077200Y-196514342D01*
X210005771Y-196371485D01*
X210005771Y-195800057D01*
X210077200Y-195657200D01*
X210220057Y-195585771D01*
X210505771Y-195585771D01*
X210648628Y-195657200D01*
X210720057Y-195800057D01*
X210720057Y-195942914D01*
X210005771Y-196085771D01*
X211934342Y-196514342D02*
X211791485Y-196585771D01*
X211505771Y-196585771D01*
X211362914Y-196514342D01*
X211291485Y-196371485D01*
X211291485Y-195800057D01*
X211362914Y-195657200D01*
X211505771Y-195585771D01*
X211791485Y-195585771D01*
X211934342Y-195657200D01*
X212005771Y-195800057D01*
X212005771Y-195942914D01*
X211291485Y-196085771D01*
X213291485Y-195585771D02*
X213291485Y-196585771D01*
X212934342Y-195014342D02*
X212577200Y-196085771D01*
X213505771Y-196085771D01*
X213862914Y-195585771D02*
X214434342Y-195585771D01*
X214077200Y-196585771D02*
X214077200Y-195300057D01*
X214148628Y-195157200D01*
X214291485Y-195085771D01*
X214434342Y-195085771D01*
X215577200Y-196585771D02*
X215577200Y-195085771D01*
X215577200Y-196514342D02*
X215434342Y-196585771D01*
X215148628Y-196585771D01*
X215005771Y-196514342D01*
X214934342Y-196442914D01*
X214862914Y-196300057D01*
X214862914Y-195871485D01*
X214934342Y-195728628D01*
X215005771Y-195657200D01*
X215148628Y-195585771D01*
X215434342Y-195585771D01*
X215577200Y-195657200D01*
X217077200Y-196585771D02*
X216220057Y-196585771D01*
X216648628Y-196585771D02*
X216648628Y-195085771D01*
X216505771Y-195300057D01*
X216362914Y-195442914D01*
X216220057Y-195514342D01*
X217362914Y-194677200D02*
X218791485Y-194677200D01*
X218362914Y-195085771D02*
X218077200Y-195085771D01*
X217934342Y-195157200D01*
X217862914Y-195228628D01*
X217720057Y-195442914D01*
X217648628Y-195728628D01*
X217648628Y-196300057D01*
X217720057Y-196442914D01*
X217791485Y-196514342D01*
X217934342Y-196585771D01*
X218220057Y-196585771D01*
X218362914Y-196514342D01*
X218434342Y-196442914D01*
X218505771Y-196300057D01*
X218505771Y-195942914D01*
X218434342Y-195800057D01*
X218362914Y-195728628D01*
X218220057Y-195657200D01*
X217934342Y-195657200D01*
X217791485Y-195728628D01*
X217720057Y-195800057D01*
X217648628Y-195942914D01*
X218791485Y-194677200D02*
X220220057Y-194677200D01*
X219791485Y-195085771D02*
X219505771Y-195085771D01*
X219362914Y-195157200D01*
X219291485Y-195228628D01*
X219148628Y-195442914D01*
X219077200Y-195728628D01*
X219077200Y-196300057D01*
X219148628Y-196442914D01*
X219220057Y-196514342D01*
X219362914Y-196585771D01*
X219648628Y-196585771D01*
X219791485Y-196514342D01*
X219862914Y-196442914D01*
X219934342Y-196300057D01*
X219934342Y-195942914D01*
X219862914Y-195800057D01*
X219791485Y-195728628D01*
X219648628Y-195657200D01*
X219362914Y-195657200D01*
X219220057Y-195728628D01*
X219148628Y-195800057D01*
X219077200Y-195942914D01*
X221220057Y-195585771D02*
X221220057Y-196585771D01*
X220577200Y-195585771D02*
X220577200Y-196371485D01*
X220648628Y-196514342D01*
X220791485Y-196585771D01*
X221005771Y-196585771D01*
X221148628Y-196514342D01*
X221220057Y-196442914D01*
X221934342Y-196585771D02*
X221934342Y-195085771D01*
X221934342Y-195657200D02*
X222077200Y-195585771D01*
X222362914Y-195585771D01*
X222505771Y-195657200D01*
X222577200Y-195728628D01*
X222648628Y-195871485D01*
X222648628Y-196300057D01*
X222577200Y-196442914D01*
X222505771Y-196514342D01*
X222362914Y-196585771D01*
X222077200Y-196585771D01*
X221934342Y-196514342D01*
X223934342Y-195585771D02*
X223934342Y-196585771D01*
X223291485Y-195585771D02*
X223291485Y-196371485D01*
X223362914Y-196514342D01*
X223505771Y-196585771D01*
X223720057Y-196585771D01*
X223862914Y-196514342D01*
X223934342Y-196442914D01*
X224648628Y-195585771D02*
X224648628Y-196585771D01*
X224648628Y-195728628D02*
X224720057Y-195657200D01*
X224862914Y-195585771D01*
X225077200Y-195585771D01*
X225220057Y-195657200D01*
X225291485Y-195800057D01*
X225291485Y-196585771D01*
X225791485Y-195585771D02*
X226362914Y-195585771D01*
X226005771Y-195085771D02*
X226005771Y-196371485D01*
X226077200Y-196514342D01*
X226220057Y-196585771D01*
X226362914Y-196585771D01*
X227505771Y-195585771D02*
X227505771Y-196585771D01*
X226862914Y-195585771D02*
X226862914Y-196371485D01*
X226934342Y-196514342D01*
X227077200Y-196585771D01*
X227291485Y-196585771D01*
X227434342Y-196514342D01*
X227505771Y-196442914D01*
X229005771Y-196585771D02*
X228148628Y-196585771D01*
X228577200Y-196585771D02*
X228577200Y-195085771D01*
X228434342Y-195300057D01*
X228291485Y-195442914D01*
X228148628Y-195514342D01*
X230291485Y-195085771D02*
X230005771Y-195085771D01*
X229862914Y-195157200D01*
X229791485Y-195228628D01*
X229648628Y-195442914D01*
X229577200Y-195728628D01*
X229577200Y-196300057D01*
X229648628Y-196442914D01*
X229720057Y-196514342D01*
X229862914Y-196585771D01*
X230148628Y-196585771D01*
X230291485Y-196514342D01*
X230362914Y-196442914D01*
X230434342Y-196300057D01*
X230434342Y-195942914D01*
X230362914Y-195800057D01*
X230291485Y-195728628D01*
X230148628Y-195657200D01*
X229862914Y-195657200D01*
X229720057Y-195728628D01*
X229648628Y-195800057D01*
X229577200Y-195942914D01*
X231077200Y-196442914D02*
X231148628Y-196514342D01*
X231077200Y-196585771D01*
X231005771Y-196514342D01*
X231077200Y-196442914D01*
X231077200Y-196585771D01*
X232077200Y-195085771D02*
X232220057Y-195085771D01*
X232362914Y-195157200D01*
X232434342Y-195228628D01*
X232505771Y-195371485D01*
X232577200Y-195657200D01*
X232577200Y-196014342D01*
X232505771Y-196300057D01*
X232434342Y-196442914D01*
X232362914Y-196514342D01*
X232220057Y-196585771D01*
X232077200Y-196585771D01*
X231934342Y-196514342D01*
X231862914Y-196442914D01*
X231791485Y-196300057D01*
X231720057Y-196014342D01*
X231720057Y-195657200D01*
X231791485Y-195371485D01*
X231862914Y-195228628D01*
X231934342Y-195157200D01*
X232077200Y-195085771D01*
X233862914Y-195585771D02*
X233862914Y-196585771D01*
X233505771Y-195014342D02*
X233148628Y-196085771D01*
X234077200Y-196085771D01*
X234648628Y-196442914D02*
X234720057Y-196514342D01*
X234648628Y-196585771D01*
X234577200Y-196514342D01*
X234648628Y-196442914D01*
X234648628Y-196585771D01*
X236148628Y-196585771D02*
X235291485Y-196585771D01*
X235720057Y-196585771D02*
X235720057Y-195085771D01*
X235577200Y-195300057D01*
X235434342Y-195442914D01*
X235291485Y-195514342D01*
D10*
D11*
X177002200Y-191507200D02*
X285002200Y-191507200D01*
D10*
D12*
X264411485Y-193785771D02*
X263911485Y-193071485D01*
X263554342Y-193785771D02*
X263554342Y-192285771D01*
X264125771Y-192285771D01*
X264268628Y-192357200D01*
X264340057Y-192428628D01*
X264411485Y-192571485D01*
X264411485Y-192785771D01*
X264340057Y-192928628D01*
X264268628Y-193000057D01*
X264125771Y-193071485D01*
X263554342Y-193071485D01*
X265625771Y-193714342D02*
X265482914Y-193785771D01*
X265197200Y-193785771D01*
X265054342Y-193714342D01*
X264982914Y-193571485D01*
X264982914Y-193000057D01*
X265054342Y-192857200D01*
X265197200Y-192785771D01*
X265482914Y-192785771D01*
X265625771Y-192857200D01*
X265697200Y-193000057D01*
X265697200Y-193142914D01*
X264982914Y-193285771D01*
X266197200Y-192785771D02*
X266554342Y-193785771D01*
X266911485Y-192785771D01*
X267482914Y-193642914D02*
X267554342Y-193714342D01*
X267482914Y-193785771D01*
X267411485Y-193714342D01*
X267482914Y-193642914D01*
X267482914Y-193785771D01*
X267482914Y-192857200D02*
X267554342Y-192928628D01*
X267482914Y-193000057D01*
X267411485Y-192928628D01*
X267482914Y-192857200D01*
X267482914Y-193000057D01*
D10*
D11*
X178362914Y-193714342D02*
X178577200Y-193785771D01*
X178934342Y-193785771D01*
X179077200Y-193714342D01*
X179148628Y-193642914D01*
X179220057Y-193500057D01*
X179220057Y-193357200D01*
X179148628Y-193214342D01*
X179077200Y-193142914D01*
X178934342Y-193071485D01*
X178648628Y-193000057D01*
X178505771Y-192928628D01*
X178434342Y-192857200D01*
X178362914Y-192714342D01*
X178362914Y-192571485D01*
X178434342Y-192428628D01*
X178505771Y-192357200D01*
X178648628Y-192285771D01*
X179005771Y-192285771D01*
X179220057Y-192357200D01*
X179862914Y-193785771D02*
X179862914Y-192785771D01*
X179862914Y-192285771D02*
X179791485Y-192357200D01*
X179862914Y-192428628D01*
X179934342Y-192357200D01*
X179862914Y-192285771D01*
X179862914Y-192428628D01*
X180434342Y-192785771D02*
X181220057Y-192785771D01*
X180434342Y-193785771D01*
X181220057Y-193785771D01*
X182362914Y-193714342D02*
X182220057Y-193785771D01*
X181934342Y-193785771D01*
X181791485Y-193714342D01*
X181720057Y-193571485D01*
X181720057Y-193000057D01*
X181791485Y-192857200D01*
X181934342Y-192785771D01*
X182220057Y-192785771D01*
X182362914Y-192857200D01*
X182434342Y-193000057D01*
X182434342Y-193142914D01*
X181720057Y-193285771D01*
X183077200Y-193642914D02*
X183148628Y-193714342D01*
X183077200Y-193785771D01*
X183005771Y-193714342D01*
X183077200Y-193642914D01*
X183077200Y-193785771D01*
X183077200Y-192857200D02*
X183148628Y-192928628D01*
X183077200Y-193000057D01*
X183005771Y-192928628D01*
X183077200Y-192857200D01*
X183077200Y-193000057D01*
X184862914Y-193357200D02*
X185577200Y-193357200D01*
X184720057Y-193785771D02*
X185220057Y-192285771D01*
X185720057Y-193785771D01*
X186862914Y-192785771D02*
X186862914Y-193785771D01*
X186505771Y-192214342D02*
X186148628Y-193285771D01*
X187077200Y-193285771D01*
D10*
D11*
X263434342Y-196585771D02*
X263434342Y-195085771D01*
X264791485Y-196585771D02*
X264791485Y-195085771D01*
X264791485Y-196514342D02*
X264648628Y-196585771D01*
X264362914Y-196585771D01*
X264220057Y-196514342D01*
X264148628Y-196442914D01*
X264077200Y-196300057D01*
X264077200Y-195871485D01*
X264148628Y-195728628D01*
X264220057Y-195657200D01*
X264362914Y-195585771D01*
X264648628Y-195585771D01*
X264791485Y-195657200D01*
X265505771Y-196442914D02*
X265577200Y-196514342D01*
X265505771Y-196585771D01*
X265434342Y-196514342D01*
X265505771Y-196442914D01*
X265505771Y-196585771D01*
X265505771Y-195657200D02*
X265577200Y-195728628D01*
X265505771Y-195800057D01*
X265434342Y-195728628D01*
X265505771Y-195657200D01*
X265505771Y-195800057D01*
X268148628Y-196585771D02*
X267291485Y-196585771D01*
X267720057Y-196585771D02*
X267720057Y-195085771D01*
X267577200Y-195300057D01*
X267434342Y-195442914D01*
X267291485Y-195514342D01*
X269862914Y-195014342D02*
X268577200Y-196942914D01*
X271148628Y-196585771D02*
X270291485Y-196585771D01*
X270720057Y-196585771D02*
X270720057Y-195085771D01*
X270577200Y-195300057D01*
X270434342Y-195442914D01*
X270291485Y-195514342D01*
D10*
D11*
X177002200Y-187507200D02*
X285002200Y-187507200D01*
D10*
D13*
X178714580Y-188211961D02*
X179857438Y-188211961D01*
X179036009Y-190211961D02*
X179286009Y-188211961D01*
X180274104Y-190211961D02*
X180440771Y-188878628D01*
X180524104Y-188211961D02*
X180416961Y-188307200D01*
X180500295Y-188402438D01*
X180607438Y-188307200D01*
X180524104Y-188211961D01*
X180500295Y-188402438D01*
X181107438Y-188878628D02*
X181869342Y-188878628D01*
X181476485Y-188211961D02*
X181262200Y-189926247D01*
X181333628Y-190116723D01*
X181512200Y-190211961D01*
X181702676Y-190211961D01*
X182655057Y-190211961D02*
X182476485Y-190116723D01*
X182405057Y-189926247D01*
X182619342Y-188211961D01*
X184190771Y-190116723D02*
X183988390Y-190211961D01*
X183607438Y-190211961D01*
X183428866Y-190116723D01*
X183357438Y-189926247D01*
X183452676Y-189164342D01*
X183571723Y-188973866D01*
X183774104Y-188878628D01*
X184155057Y-188878628D01*
X184333628Y-188973866D01*
X184405057Y-189164342D01*
X184381247Y-189354819D01*
X183405057Y-189545295D01*
X185155057Y-190021485D02*
X185238390Y-190116723D01*
X185131247Y-190211961D01*
X185047914Y-190116723D01*
X185155057Y-190021485D01*
X185131247Y-190211961D01*
X185286009Y-188973866D02*
X185369342Y-189069104D01*
X185262200Y-189164342D01*
X185178866Y-189069104D01*
X185286009Y-188973866D01*
X185262200Y-189164342D01*
D10*
D11*
X178934342Y-185600057D02*
X178434342Y-185600057D01*
X178434342Y-186385771D02*
X178434342Y-184885771D01*
X179148628Y-184885771D01*
X179720057Y-186385771D02*
X179720057Y-185385771D01*
X179720057Y-184885771D02*
X179648628Y-184957200D01*
X179720057Y-185028628D01*
X179791485Y-184957200D01*
X179720057Y-184885771D01*
X179720057Y-185028628D01*
X180648628Y-186385771D02*
X180505771Y-186314342D01*
X180434342Y-186171485D01*
X180434342Y-184885771D01*
X181791485Y-186314342D02*
X181648628Y-186385771D01*
X181362914Y-186385771D01*
X181220057Y-186314342D01*
X181148628Y-186171485D01*
X181148628Y-185600057D01*
X181220057Y-185457200D01*
X181362914Y-185385771D01*
X181648628Y-185385771D01*
X181791485Y-185457200D01*
X181862914Y-185600057D01*
X181862914Y-185742914D01*
X181148628Y-185885771D01*
X182505771Y-186242914D02*
X182577200Y-186314342D01*
X182505771Y-186385771D01*
X182434342Y-186314342D01*
X182505771Y-186242914D01*
X182505771Y-186385771D01*
X182505771Y-185457200D02*
X182577200Y-185528628D01*
X182505771Y-185600057D01*
X182434342Y-185528628D01*
X182505771Y-185457200D01*
X182505771Y-185600057D01*
X184362914Y-186385771D02*
X184362914Y-185385771D01*
X184362914Y-184885771D02*
X184291485Y-184957200D01*
X184362914Y-185028628D01*
X184434342Y-184957200D01*
X184362914Y-184885771D01*
X184362914Y-185028628D01*
X185291485Y-186385771D02*
X185148628Y-186314342D01*
X185077200Y-186242914D01*
X185005771Y-186100057D01*
X185005771Y-185671485D01*
X185077200Y-185528628D01*
X185148628Y-185457200D01*
X185291485Y-185385771D01*
X185505771Y-185385771D01*
X185648628Y-185457200D01*
X185720057Y-185528628D01*
X185791485Y-185671485D01*
X185791485Y-186100057D01*
X185720057Y-186242914D01*
X185648628Y-186314342D01*
X185505771Y-186385771D01*
X185291485Y-186385771D01*
X186220057Y-185385771D02*
X186791485Y-185385771D01*
X186434342Y-184885771D02*
X186434342Y-186171485D01*
X186505771Y-186314342D01*
X186648628Y-186385771D01*
X186791485Y-186385771D01*
X187291485Y-186385771D02*
X187291485Y-184885771D01*
X187291485Y-185457200D02*
X187434342Y-185385771D01*
X187720057Y-185385771D01*
X187862914Y-185457200D01*
X187934342Y-185528628D01*
X188005771Y-185671485D01*
X188005771Y-186100057D01*
X187934342Y-186242914D01*
X187862914Y-186314342D01*
X187720057Y-186385771D01*
X187434342Y-186385771D01*
X187291485Y-186314342D01*
X188648628Y-186385771D02*
X188648628Y-185385771D01*
X188648628Y-184885771D02*
X188577200Y-184957200D01*
X188648628Y-185028628D01*
X188720057Y-184957200D01*
X188648628Y-184885771D01*
X188648628Y-185028628D01*
X189362914Y-185385771D02*
X189362914Y-186385771D01*
X189362914Y-185528628D02*
X189434342Y-185457200D01*
X189577200Y-185385771D01*
X189791485Y-185385771D01*
X189934342Y-185457200D01*
X190005771Y-185600057D01*
X190005771Y-186385771D01*
X190720057Y-186242914D02*
X190791485Y-186314342D01*
X190720057Y-186385771D01*
X190648628Y-186314342D01*
X190720057Y-186242914D01*
X190720057Y-186385771D01*
X191434342Y-186385771D02*
X191434342Y-184885771D01*
X191577200Y-185814342D02*
X192005771Y-186385771D01*
X192005771Y-185385771D02*
X191434342Y-185957200D01*
X192648628Y-186385771D02*
X192648628Y-185385771D01*
X192648628Y-184885771D02*
X192577200Y-184957200D01*
X192648628Y-185028628D01*
X192720057Y-184957200D01*
X192648628Y-184885771D01*
X192648628Y-185028628D01*
X194005771Y-186314342D02*
X193862914Y-186385771D01*
X193577200Y-186385771D01*
X193434342Y-186314342D01*
X193362914Y-186242914D01*
X193291485Y-186100057D01*
X193291485Y-185671485D01*
X193362914Y-185528628D01*
X193434342Y-185457200D01*
X193577200Y-185385771D01*
X193862914Y-185385771D01*
X194005771Y-185457200D01*
X195291485Y-186385771D02*
X195291485Y-185600057D01*
X195220057Y-185457200D01*
X195077200Y-185385771D01*
X194791485Y-185385771D01*
X194648628Y-185457200D01*
X195291485Y-186314342D02*
X195148628Y-186385771D01*
X194791485Y-186385771D01*
X194648628Y-186314342D01*
X194577200Y-186171485D01*
X194577200Y-186028628D01*
X194648628Y-185885771D01*
X194791485Y-185814342D01*
X195148628Y-185814342D01*
X195291485Y-185742914D01*
X196648628Y-186385771D02*
X196648628Y-184885771D01*
X196648628Y-186314342D02*
X196505771Y-186385771D01*
X196220057Y-186385771D01*
X196077200Y-186314342D01*
X196005771Y-186242914D01*
X195934342Y-186100057D01*
X195934342Y-185671485D01*
X196005771Y-185528628D01*
X196077200Y-185457200D01*
X196220057Y-185385771D01*
X196505771Y-185385771D01*
X196648628Y-185457200D01*
X197005771Y-186528628D02*
X198148628Y-186528628D01*
X198505771Y-185385771D02*
X198505771Y-186885771D01*
X198505771Y-185457200D02*
X198648628Y-185385771D01*
X198934342Y-185385771D01*
X199077200Y-185457200D01*
X199148628Y-185528628D01*
X199220057Y-185671485D01*
X199220057Y-186100057D01*
X199148628Y-186242914D01*
X199077200Y-186314342D01*
X198934342Y-186385771D01*
X198648628Y-186385771D01*
X198505771Y-186314342D01*
X200505771Y-186314342D02*
X200362914Y-186385771D01*
X200077200Y-186385771D01*
X199934342Y-186314342D01*
X199862914Y-186242914D01*
X199791485Y-186100057D01*
X199791485Y-185671485D01*
X199862914Y-185528628D01*
X199934342Y-185457200D01*
X200077200Y-185385771D01*
X200362914Y-185385771D01*
X200505771Y-185457200D01*
X201148628Y-186385771D02*
X201148628Y-184885771D01*
X201148628Y-185457200D02*
X201291485Y-185385771D01*
X201577200Y-185385771D01*
X201720057Y-185457200D01*
X201791485Y-185528628D01*
X201862914Y-185671485D01*
X201862914Y-186100057D01*
X201791485Y-186242914D01*
X201720057Y-186314342D01*
X201577200Y-186385771D01*
X201291485Y-186385771D01*
X201148628Y-186314342D01*
D10*
D11*
X177002200Y-181507200D02*
X285002200Y-181507200D01*
D10*
D11*
X178362914Y-183614342D02*
X178577200Y-183685771D01*
X178934342Y-183685771D01*
X179077200Y-183614342D01*
X179148628Y-183542914D01*
X179220057Y-183400057D01*
X179220057Y-183257200D01*
X179148628Y-183114342D01*
X179077200Y-183042914D01*
X178934342Y-182971485D01*
X178648628Y-182900057D01*
X178505771Y-182828628D01*
X178434342Y-182757200D01*
X178362914Y-182614342D01*
X178362914Y-182471485D01*
X178434342Y-182328628D01*
X178505771Y-182257200D01*
X178648628Y-182185771D01*
X179005771Y-182185771D01*
X179220057Y-182257200D01*
X179862914Y-183685771D02*
X179862914Y-182185771D01*
X180505771Y-183685771D02*
X180505771Y-182900057D01*
X180434342Y-182757200D01*
X180291485Y-182685771D01*
X180077200Y-182685771D01*
X179934342Y-182757200D01*
X179862914Y-182828628D01*
X181791485Y-183614342D02*
X181648628Y-183685771D01*
X181362914Y-183685771D01*
X181220057Y-183614342D01*
X181148628Y-183471485D01*
X181148628Y-182900057D01*
X181220057Y-182757200D01*
X181362914Y-182685771D01*
X181648628Y-182685771D01*
X181791485Y-182757200D01*
X181862914Y-182900057D01*
X181862914Y-183042914D01*
X181148628Y-183185771D01*
X183077200Y-183614342D02*
X182934342Y-183685771D01*
X182648628Y-183685771D01*
X182505771Y-183614342D01*
X182434342Y-183471485D01*
X182434342Y-182900057D01*
X182505771Y-182757200D01*
X182648628Y-182685771D01*
X182934342Y-182685771D01*
X183077200Y-182757200D01*
X183148628Y-182900057D01*
X183148628Y-183042914D01*
X182434342Y-183185771D01*
X183577200Y-182685771D02*
X184148628Y-182685771D01*
X183791485Y-182185771D02*
X183791485Y-183471485D01*
X183862914Y-183614342D01*
X184005771Y-183685771D01*
X184148628Y-183685771D01*
X184648628Y-183542914D02*
X184720057Y-183614342D01*
X184648628Y-183685771D01*
X184577200Y-183614342D01*
X184648628Y-183542914D01*
X184648628Y-183685771D01*
X184648628Y-182757200D02*
X184720057Y-182828628D01*
X184648628Y-182900057D01*
X184577200Y-182828628D01*
X184648628Y-182757200D01*
X184648628Y-182900057D01*
D10*
D11*
X197002200Y-191507200D02*
X197002200Y-194507200D01*
D10*
D11*
X261002200Y-191507200D02*
X261002200Y-198007200D01*
D12*
X169354571Y-100945142D02*
X170497428Y-100945142D01*
X169926000Y-101516571D02*
X169926000Y-100373714D01*
X163004571Y-100945142D02*
X164147428Y-100945142D01*
D14*
G04 #@! TO.C,U4*
X164230000Y-78364000D02*
X165490000Y-78364000D01*
X171050000Y-78364000D02*
X169790000Y-78364000D01*
X164230000Y-74604000D02*
X164230000Y-78364000D01*
X171050000Y-72354000D02*
X171050000Y-78364000D01*
G04 #@! TO.C,U3*
X171760000Y-91696000D02*
X171760000Y-93156000D01*
X168600000Y-91696000D02*
X168600000Y-93856000D01*
X168600000Y-91696000D02*
X169530000Y-91696000D01*
X171760000Y-91696000D02*
X170830000Y-91696000D01*
G04 #@! TO.C,U2*
X174808000Y-86616000D02*
X173878000Y-86616000D01*
X171648000Y-86616000D02*
X172578000Y-86616000D01*
X171648000Y-86616000D02*
X171648000Y-88776000D01*
X174808000Y-86616000D02*
X174808000Y-88076000D01*
G04 #@! TO.C,R8*
X166123252Y-94182000D02*
X165600748Y-94182000D01*
X166123252Y-92762000D02*
X165600748Y-92762000D01*
G04 #@! TO.C,R7*
X175506748Y-90984000D02*
X176029252Y-90984000D01*
X175506748Y-92404000D02*
X176029252Y-92404000D01*
G04 #@! TO.C,J1*
X145990000Y-70806000D02*
X145990000Y-73466000D01*
X156210000Y-70806000D02*
X145990000Y-70806000D01*
X156210000Y-73466000D02*
X145990000Y-73466000D01*
X156210000Y-70806000D02*
X156210000Y-73466000D01*
X157480000Y-70806000D02*
X158810000Y-70806000D01*
X158810000Y-70806000D02*
X158810000Y-72136000D01*
D11*
G04 #@! TO.C,P1*
X185400000Y-80639000D02*
X182860000Y-80639000D01*
X185400000Y-78099000D02*
X185400000Y-80639000D01*
X182860000Y-78099000D02*
X185400000Y-78099000D01*
X185400000Y-78099000D02*
X182860000Y-78099000D01*
X185400000Y-75559000D02*
X185400000Y-78099000D01*
X182860000Y-75559000D02*
X185400000Y-75559000D01*
X185400000Y-75559000D02*
X182860000Y-75559000D01*
X185400000Y-73019000D02*
X185400000Y-75559000D01*
X182860000Y-73019000D02*
X185400000Y-73019000D01*
X205400000Y-54350000D02*
X185400000Y-54350000D01*
X205400000Y-99350000D02*
X205400000Y-54350000D01*
X185400000Y-99350000D02*
X205400000Y-99350000D01*
X185400000Y-54350000D02*
X185400000Y-99350000D01*
X202400000Y-62850000D02*
G75*
G03X202400000Y-62850000I-7000000J0D01*
G01*
X202400000Y-89850000D02*
G75*
G03X202400000Y-89850000I-7000000J0D01*
G01*
D14*
G04 #@! TO.C,R6*
X157338748Y-76390000D02*
X157861252Y-76390000D01*
X157338748Y-77810000D02*
X157861252Y-77810000D01*
G04 #@! TO.C,J2*
X154190000Y-100120000D02*
X154190000Y-98000000D01*
X152130000Y-100120000D02*
X154190000Y-100120000D01*
X152130000Y-98000000D02*
X154190000Y-98000000D01*
X152130000Y-100120000D02*
X152130000Y-98000000D01*
X151130000Y-100120000D02*
X150070000Y-100120000D01*
X150070000Y-100120000D02*
X150070000Y-99060000D01*
G04 #@! TO.C,R5*
X179360000Y-88088748D02*
X179360000Y-88611252D01*
X177940000Y-88088748D02*
X177940000Y-88611252D01*
G04 #@! TO.C,R4*
X166064000Y-85859252D02*
X166064000Y-85336748D01*
X164644000Y-85859252D02*
X164644000Y-85336748D01*
G04 #@! TO.C,R2*
X168338687Y-83133221D02*
X167969221Y-83502687D01*
X169342779Y-84137313D02*
X168973313Y-84506779D01*
G04 #@! TO.C,R3*
X151899252Y-100890000D02*
X151376748Y-100890000D01*
X151899252Y-102310000D02*
X151376748Y-102310000D01*
G04 #@! TO.C,C3*
X161878922Y-96722000D02*
X162396078Y-96722000D01*
X161878922Y-95302000D02*
X162396078Y-95302000D01*
G04 #@! TO.C,C2*
X161478796Y-75261112D02*
X161113112Y-75626796D01*
X162482888Y-76265204D02*
X162117204Y-76630888D01*
G04 #@! TO.C,C1*
X172264000Y-74417422D02*
X172264000Y-74934578D01*
X173684000Y-74417422D02*
X173684000Y-74934578D01*
G04 #@! TO.C,U1*
X141550000Y-95750000D02*
X141550000Y-96360000D01*
X141550000Y-95750000D02*
X133930000Y-95750000D01*
X158170000Y-95750000D02*
X157550000Y-95750000D01*
X158170000Y-93630000D02*
X158170000Y-95750000D01*
X158170000Y-79510000D02*
X158170000Y-81630000D01*
X157550000Y-79510000D02*
X158170000Y-79510000D01*
X133930000Y-79510000D02*
X141550000Y-79510000D01*
X133930000Y-95750000D02*
X133930000Y-79510000D01*
G04 #@! TO.C,R1*
X153988748Y-75610000D02*
X154511252Y-75610000D01*
X153988748Y-74190000D02*
X154511252Y-74190000D01*
G04 #@! TO.C,U4*
D11*
X170688095Y-79208380D02*
X170688095Y-80017904D01*
X170735714Y-80113142D01*
X170783333Y-80160761D01*
X170878571Y-80208380D01*
X171069047Y-80208380D01*
X171164285Y-80160761D01*
X171211904Y-80113142D01*
X171259523Y-80017904D01*
X171259523Y-79208380D01*
X172164285Y-79541714D02*
X172164285Y-80208380D01*
X171926190Y-79160761D02*
X171688095Y-79875047D01*
X172307142Y-79875047D01*
G04 #@! TO.C,U3*
X170434095Y-94702380D02*
X170434095Y-95511904D01*
X170481714Y-95607142D01*
X170529333Y-95654761D01*
X170624571Y-95702380D01*
X170815047Y-95702380D01*
X170910285Y-95654761D01*
X170957904Y-95607142D01*
X171005523Y-95511904D01*
X171005523Y-94702380D01*
X171386476Y-94702380D02*
X172005523Y-94702380D01*
X171672190Y-95083333D01*
X171815047Y-95083333D01*
X171910285Y-95130952D01*
X171957904Y-95178571D01*
X172005523Y-95273809D01*
X172005523Y-95511904D01*
X171957904Y-95607142D01*
X171910285Y-95654761D01*
X171815047Y-95702380D01*
X171529333Y-95702380D01*
X171434095Y-95654761D01*
X171386476Y-95607142D01*
G04 #@! TO.C,U2*
X170140380Y-89407904D02*
X170949904Y-89407904D01*
X171045142Y-89360285D01*
X171092761Y-89312666D01*
X171140380Y-89217428D01*
X171140380Y-89026952D01*
X171092761Y-88931714D01*
X171045142Y-88884095D01*
X170949904Y-88836476D01*
X170140380Y-88836476D01*
X170235619Y-88407904D02*
X170188000Y-88360285D01*
X170140380Y-88265047D01*
X170140380Y-88026952D01*
X170188000Y-87931714D01*
X170235619Y-87884095D01*
X170330857Y-87836476D01*
X170426095Y-87836476D01*
X170568952Y-87884095D01*
X171140380Y-88455523D01*
X171140380Y-87836476D01*
G04 #@! TO.C,R8*
X165695333Y-95574380D02*
X165362000Y-95098190D01*
X165123904Y-95574380D02*
X165123904Y-94574380D01*
X165504857Y-94574380D01*
X165600095Y-94622000D01*
X165647714Y-94669619D01*
X165695333Y-94764857D01*
X165695333Y-94907714D01*
X165647714Y-95002952D01*
X165600095Y-95050571D01*
X165504857Y-95098190D01*
X165123904Y-95098190D01*
X166266761Y-95002952D02*
X166171523Y-94955333D01*
X166123904Y-94907714D01*
X166076285Y-94812476D01*
X166076285Y-94764857D01*
X166123904Y-94669619D01*
X166171523Y-94622000D01*
X166266761Y-94574380D01*
X166457238Y-94574380D01*
X166552476Y-94622000D01*
X166600095Y-94669619D01*
X166647714Y-94764857D01*
X166647714Y-94812476D01*
X166600095Y-94907714D01*
X166552476Y-94955333D01*
X166457238Y-95002952D01*
X166266761Y-95002952D01*
X166171523Y-95050571D01*
X166123904Y-95098190D01*
X166076285Y-95193428D01*
X166076285Y-95383904D01*
X166123904Y-95479142D01*
X166171523Y-95526761D01*
X166266761Y-95574380D01*
X166457238Y-95574380D01*
X166552476Y-95526761D01*
X166600095Y-95479142D01*
X166647714Y-95383904D01*
X166647714Y-95193428D01*
X166600095Y-95098190D01*
X166552476Y-95050571D01*
X166457238Y-95002952D01*
G04 #@! TO.C,R7*
X176871333Y-94686380D02*
X176538000Y-94210190D01*
X176299904Y-94686380D02*
X176299904Y-93686380D01*
X176680857Y-93686380D01*
X176776095Y-93734000D01*
X176823714Y-93781619D01*
X176871333Y-93876857D01*
X176871333Y-94019714D01*
X176823714Y-94114952D01*
X176776095Y-94162571D01*
X176680857Y-94210190D01*
X176299904Y-94210190D01*
X177204666Y-93686380D02*
X177871333Y-93686380D01*
X177442761Y-94686380D01*
G04 #@! TO.C,J1*
X159262380Y-72469333D02*
X159976666Y-72469333D01*
X160119523Y-72516952D01*
X160214761Y-72612190D01*
X160262380Y-72755047D01*
X160262380Y-72850285D01*
X160262380Y-71469333D02*
X160262380Y-72040761D01*
X160262380Y-71755047D02*
X159262380Y-71755047D01*
X159405238Y-71850285D01*
X159500476Y-71945523D01*
X159548095Y-72040761D01*
G04 #@! TO.C,P1*
X206852380Y-99088095D02*
X205852380Y-99088095D01*
X205852380Y-98707142D01*
X205900000Y-98611904D01*
X205947619Y-98564285D01*
X206042857Y-98516666D01*
X206185714Y-98516666D01*
X206280952Y-98564285D01*
X206328571Y-98611904D01*
X206376190Y-98707142D01*
X206376190Y-99088095D01*
X206852380Y-97564285D02*
X206852380Y-98135714D01*
X206852380Y-97850000D02*
X205852380Y-97850000D01*
X205995238Y-97945238D01*
X206090476Y-98040476D01*
X206138095Y-98135714D01*
X187725714Y-76606190D02*
X187725714Y-76225238D01*
X188392380Y-76463333D02*
X187535238Y-76463333D01*
X187440000Y-76415714D01*
X187392380Y-76320476D01*
X187392380Y-76225238D01*
X188392380Y-75463333D02*
X187868571Y-75463333D01*
X187773333Y-75510952D01*
X187725714Y-75606190D01*
X187725714Y-75796666D01*
X187773333Y-75891904D01*
X188344761Y-75463333D02*
X188392380Y-75558571D01*
X188392380Y-75796666D01*
X188344761Y-75891904D01*
X188249523Y-75939523D01*
X188154285Y-75939523D01*
X188059047Y-75891904D01*
X188011428Y-75796666D01*
X188011428Y-75558571D01*
X187963809Y-75463333D01*
X188344761Y-74558571D02*
X188392380Y-74653809D01*
X188392380Y-74844285D01*
X188344761Y-74939523D01*
X188297142Y-74987142D01*
X188201904Y-75034761D01*
X187916190Y-75034761D01*
X187820952Y-74987142D01*
X187773333Y-74939523D01*
X187725714Y-74844285D01*
X187725714Y-74653809D01*
X187773333Y-74558571D01*
X188392380Y-74130000D02*
X187725714Y-74130000D01*
X187392380Y-74130000D02*
X187440000Y-74177619D01*
X187487619Y-74130000D01*
X187440000Y-74082380D01*
X187392380Y-74130000D01*
X187487619Y-74130000D01*
X187725714Y-73653809D02*
X188392380Y-73653809D01*
X187820952Y-73653809D02*
X187773333Y-73606190D01*
X187725714Y-73510952D01*
X187725714Y-73368095D01*
X187773333Y-73272857D01*
X187868571Y-73225238D01*
X188392380Y-73225238D01*
X187725714Y-72320476D02*
X188535238Y-72320476D01*
X188630476Y-72368095D01*
X188678095Y-72415714D01*
X188725714Y-72510952D01*
X188725714Y-72653809D01*
X188678095Y-72749047D01*
X188344761Y-72320476D02*
X188392380Y-72415714D01*
X188392380Y-72606190D01*
X188344761Y-72701428D01*
X188297142Y-72749047D01*
X188201904Y-72796666D01*
X187916190Y-72796666D01*
X187820952Y-72749047D01*
X187773333Y-72701428D01*
X187725714Y-72606190D01*
X187725714Y-72415714D01*
X187773333Y-72320476D01*
X188392380Y-70653809D02*
X187392380Y-70653809D01*
X188344761Y-70653809D02*
X188392380Y-70749047D01*
X188392380Y-70939523D01*
X188344761Y-71034761D01*
X188297142Y-71082380D01*
X188201904Y-71130000D01*
X187916190Y-71130000D01*
X187820952Y-71082380D01*
X187773333Y-71034761D01*
X187725714Y-70939523D01*
X187725714Y-70749047D01*
X187773333Y-70653809D01*
X188392380Y-70034761D02*
X188344761Y-70130000D01*
X188297142Y-70177619D01*
X188201904Y-70225238D01*
X187916190Y-70225238D01*
X187820952Y-70177619D01*
X187773333Y-70130000D01*
X187725714Y-70034761D01*
X187725714Y-69891904D01*
X187773333Y-69796666D01*
X187820952Y-69749047D01*
X187916190Y-69701428D01*
X188201904Y-69701428D01*
X188297142Y-69749047D01*
X188344761Y-69796666D01*
X188392380Y-69891904D01*
X188392380Y-70034761D01*
X187725714Y-69368095D02*
X188392380Y-69177619D01*
X187916190Y-68987142D01*
X188392380Y-68796666D01*
X187725714Y-68606190D01*
X187725714Y-68225238D02*
X188392380Y-68225238D01*
X187820952Y-68225238D02*
X187773333Y-68177619D01*
X187725714Y-68082380D01*
X187725714Y-67939523D01*
X187773333Y-67844285D01*
X187868571Y-67796666D01*
X188392380Y-67796666D01*
G04 #@! TO.C,R6*
X158583333Y-75636380D02*
X158250000Y-75160190D01*
X158011904Y-75636380D02*
X158011904Y-74636380D01*
X158392857Y-74636380D01*
X158488095Y-74684000D01*
X158535714Y-74731619D01*
X158583333Y-74826857D01*
X158583333Y-74969714D01*
X158535714Y-75064952D01*
X158488095Y-75112571D01*
X158392857Y-75160190D01*
X158011904Y-75160190D01*
X159440476Y-74636380D02*
X159250000Y-74636380D01*
X159154761Y-74684000D01*
X159107142Y-74731619D01*
X159011904Y-74874476D01*
X158964285Y-75064952D01*
X158964285Y-75445904D01*
X159011904Y-75541142D01*
X159059523Y-75588761D01*
X159154761Y-75636380D01*
X159345238Y-75636380D01*
X159440476Y-75588761D01*
X159488095Y-75541142D01*
X159535714Y-75445904D01*
X159535714Y-75207809D01*
X159488095Y-75112571D01*
X159440476Y-75064952D01*
X159345238Y-75017333D01*
X159154761Y-75017333D01*
X159059523Y-75064952D01*
X159011904Y-75112571D01*
X158964285Y-75207809D01*
G04 #@! TO.C,J2*
X148764666Y-98766380D02*
X148764666Y-99480666D01*
X148717047Y-99623523D01*
X148621809Y-99718761D01*
X148478952Y-99766380D01*
X148383714Y-99766380D01*
X149193238Y-98861619D02*
X149240857Y-98814000D01*
X149336095Y-98766380D01*
X149574190Y-98766380D01*
X149669428Y-98814000D01*
X149717047Y-98861619D01*
X149764666Y-98956857D01*
X149764666Y-99052095D01*
X149717047Y-99194952D01*
X149145619Y-99766380D01*
X149764666Y-99766380D01*
G04 #@! TO.C,R5*
X180752380Y-88516666D02*
X180276190Y-88850000D01*
X180752380Y-89088095D02*
X179752380Y-89088095D01*
X179752380Y-88707142D01*
X179800000Y-88611904D01*
X179847619Y-88564285D01*
X179942857Y-88516666D01*
X180085714Y-88516666D01*
X180180952Y-88564285D01*
X180228571Y-88611904D01*
X180276190Y-88707142D01*
X180276190Y-89088095D01*
X179752380Y-87611904D02*
X179752380Y-88088095D01*
X180228571Y-88135714D01*
X180180952Y-88088095D01*
X180133333Y-87992857D01*
X180133333Y-87754761D01*
X180180952Y-87659523D01*
X180228571Y-87611904D01*
X180323809Y-87564285D01*
X180561904Y-87564285D01*
X180657142Y-87611904D01*
X180704761Y-87659523D01*
X180752380Y-87754761D01*
X180752380Y-87992857D01*
X180704761Y-88088095D01*
X180657142Y-88135714D01*
G04 #@! TO.C,R4*
X164156380Y-85764666D02*
X163680190Y-86098000D01*
X164156380Y-86336095D02*
X163156380Y-86336095D01*
X163156380Y-85955142D01*
X163204000Y-85859904D01*
X163251619Y-85812285D01*
X163346857Y-85764666D01*
X163489714Y-85764666D01*
X163584952Y-85812285D01*
X163632571Y-85859904D01*
X163680190Y-85955142D01*
X163680190Y-86336095D01*
X163489714Y-84907523D02*
X164156380Y-84907523D01*
X163108761Y-85145619D02*
X163823047Y-85383714D01*
X163823047Y-84764666D01*
G04 #@! TO.C,R2*
X170382030Y-85781732D02*
X169809610Y-85680717D01*
X169977969Y-86185793D02*
X169270862Y-85478687D01*
X169540236Y-85209312D01*
X169641251Y-85175641D01*
X169708595Y-85175641D01*
X169809610Y-85209312D01*
X169910625Y-85310328D01*
X169944297Y-85411343D01*
X169944297Y-85478687D01*
X169910625Y-85579702D01*
X169641251Y-85849076D01*
X170011641Y-84872595D02*
X170011641Y-84805251D01*
X170045312Y-84704236D01*
X170213671Y-84535877D01*
X170314687Y-84502206D01*
X170382030Y-84502206D01*
X170483045Y-84535877D01*
X170550389Y-84603221D01*
X170617732Y-84737908D01*
X170617732Y-85546030D01*
X171055465Y-85108297D01*
G04 #@! TO.C,R3*
X155027333Y-102306380D02*
X154694000Y-101830190D01*
X154455904Y-102306380D02*
X154455904Y-101306380D01*
X154836857Y-101306380D01*
X154932095Y-101354000D01*
X154979714Y-101401619D01*
X155027333Y-101496857D01*
X155027333Y-101639714D01*
X154979714Y-101734952D01*
X154932095Y-101782571D01*
X154836857Y-101830190D01*
X154455904Y-101830190D01*
X155360666Y-101306380D02*
X155979714Y-101306380D01*
X155646380Y-101687333D01*
X155789238Y-101687333D01*
X155884476Y-101734952D01*
X155932095Y-101782571D01*
X155979714Y-101877809D01*
X155979714Y-102115904D01*
X155932095Y-102211142D01*
X155884476Y-102258761D01*
X155789238Y-102306380D01*
X155503523Y-102306380D01*
X155408285Y-102258761D01*
X155360666Y-102211142D01*
G04 #@! TO.C,C3*
X161970833Y-94719142D02*
X161923214Y-94766761D01*
X161780357Y-94814380D01*
X161685119Y-94814380D01*
X161542261Y-94766761D01*
X161447023Y-94671523D01*
X161399404Y-94576285D01*
X161351785Y-94385809D01*
X161351785Y-94242952D01*
X161399404Y-94052476D01*
X161447023Y-93957238D01*
X161542261Y-93862000D01*
X161685119Y-93814380D01*
X161780357Y-93814380D01*
X161923214Y-93862000D01*
X161970833Y-93909619D01*
X162304166Y-93814380D02*
X162923214Y-93814380D01*
X162589880Y-94195333D01*
X162732738Y-94195333D01*
X162827976Y-94242952D01*
X162875595Y-94290571D01*
X162923214Y-94385809D01*
X162923214Y-94623904D01*
X162875595Y-94719142D01*
X162827976Y-94766761D01*
X162732738Y-94814380D01*
X162447023Y-94814380D01*
X162351785Y-94766761D01*
X162304166Y-94719142D01*
G04 #@! TO.C,C2*
X163099413Y-77483115D02*
X163099413Y-77550458D01*
X163032069Y-77685145D01*
X162964726Y-77752489D01*
X162830038Y-77819832D01*
X162695351Y-77819832D01*
X162594336Y-77786161D01*
X162425977Y-77685145D01*
X162324962Y-77584130D01*
X162223947Y-77415771D01*
X162190275Y-77314756D01*
X162190275Y-77180069D01*
X162257619Y-77045382D01*
X162324962Y-76978038D01*
X162459649Y-76910695D01*
X162526993Y-76910695D01*
X162796367Y-76641321D02*
X162796367Y-76573977D01*
X162830038Y-76472962D01*
X162998397Y-76304603D01*
X163099413Y-76270932D01*
X163166756Y-76270932D01*
X163267771Y-76304603D01*
X163335115Y-76371947D01*
X163402458Y-76506634D01*
X163402458Y-77314756D01*
X163840191Y-76877023D01*
G04 #@! TO.C,C1*
X174981142Y-74842666D02*
X175028761Y-74890285D01*
X175076380Y-75033142D01*
X175076380Y-75128380D01*
X175028761Y-75271238D01*
X174933523Y-75366476D01*
X174838285Y-75414095D01*
X174647809Y-75461714D01*
X174504952Y-75461714D01*
X174314476Y-75414095D01*
X174219238Y-75366476D01*
X174124000Y-75271238D01*
X174076380Y-75128380D01*
X174076380Y-75033142D01*
X174124000Y-74890285D01*
X174171619Y-74842666D01*
X175076380Y-73890285D02*
X175076380Y-74461714D01*
X175076380Y-74176000D02*
X174076380Y-74176000D01*
X174219238Y-74271238D01*
X174314476Y-74366476D01*
X174362095Y-74461714D01*
G04 #@! TO.C,U1*
X141692380Y-77469904D02*
X142501904Y-77469904D01*
X142597142Y-77422285D01*
X142644761Y-77374666D01*
X142692380Y-77279428D01*
X142692380Y-77088952D01*
X142644761Y-76993714D01*
X142597142Y-76946095D01*
X142501904Y-76898476D01*
X141692380Y-76898476D01*
X142692380Y-75898476D02*
X142692380Y-76469904D01*
X142692380Y-76184190D02*
X141692380Y-76184190D01*
X141835238Y-76279428D01*
X141930476Y-76374666D01*
X141978095Y-76469904D01*
G04 #@! TO.C,R1*
X151471333Y-76906380D02*
X151138000Y-76430190D01*
X150899904Y-76906380D02*
X150899904Y-75906380D01*
X151280857Y-75906380D01*
X151376095Y-75954000D01*
X151423714Y-76001619D01*
X151471333Y-76096857D01*
X151471333Y-76239714D01*
X151423714Y-76334952D01*
X151376095Y-76382571D01*
X151280857Y-76430190D01*
X150899904Y-76430190D01*
X152423714Y-76906380D02*
X151852285Y-76906380D01*
X152138000Y-76906380D02*
X152138000Y-75906380D01*
X152042761Y-76049238D01*
X151947523Y-76144476D01*
X151852285Y-76192095D01*
G04 #@! TD*
M02*
